<svg width="340" height="231" viewBox="0 0 340 231" fill="none" xmlns="http://www.w3.org/2000/svg">
<g clip-path="url(#clip0_1_8393)">
<path d="M83.7003 0.000488281C83.7003 0.0976229 83.7003 0.167005 83.7003 0.250263C83.7142 0.916329 83.6587 1.61015 83.6031 2.27621V2.49824C83.5476 2.90065 83.506 3.30307 83.4505 3.70548C83.395 4.1079 83.3256 4.52419 83.2424 4.9266C83.062 5.77306 82.8538 6.57789 82.5902 7.32721C82.3126 8.13204 81.9935 8.95075 81.6188 9.72783C81.258 10.491 80.8834 11.1571 80.4948 11.7538C80.023 12.4753 79.5374 13.1137 79.0101 13.6687C78.7187 13.974 78.4134 14.2654 78.1081 14.5152C77.9555 14.6401 77.8167 14.7511 77.6641 14.8621C77.8028 14.9037 77.9416 14.9315 78.0804 14.9592L78.4411 15.0425L78.6909 15.0841C79.0656 15.1674 79.4264 15.2645 79.801 15.4033C80.4671 15.6114 81.0915 15.8612 81.6605 16.1526C82.2988 16.4717 82.9093 16.8464 83.5476 17.2905C84.1304 17.6929 84.6716 18.1369 85.1851 18.5948C86.2674 19.5801 87.2388 20.6902 88.1407 22.0084C88.8207 22.9936 89.4729 24.0899 90.2083 25.4775C90.2083 25.3665 90.2083 25.2694 90.1805 25.1584C90.0418 23.9372 90.0418 22.6329 90.2083 21.2868C90.3748 19.9131 90.694 18.5393 91.1658 17.2072C91.6376 15.8196 92.2481 14.5013 92.9836 13.2802C93.6774 12.1284 94.4545 11.0738 95.3148 10.158L95.2177 10.1302C95.0512 10.1025 94.8846 10.0609 94.7181 10.0331C93.8162 9.83884 93.0391 9.61682 92.3591 9.36704C91.5821 9.07564 90.8744 8.71485 90.2361 8.29856C89.6394 7.89615 89.0566 7.4521 88.5015 6.95255C87.9465 6.453 87.433 5.93958 86.9612 5.3984C85.9899 4.27441 85.1573 3.06717 84.4912 1.79054C84.186 1.19386 83.9223 0.597172 83.7003 0.0143647H83.6864" fill="#FFD809"/>
<path d="M336.209 28.9473C336.209 28.9473 336.168 29.0444 336.14 29.086C335.932 29.4468 335.682 29.7937 335.432 30.1268L335.404 30.1684L335.349 30.2516C335.196 30.4598 335.044 30.6541 334.891 30.8483C334.738 31.0426 334.558 31.2369 334.391 31.4311C334.031 31.8197 333.656 32.1805 333.281 32.4996C332.879 32.8465 332.449 33.1657 331.991 33.471C331.547 33.7624 331.144 33.9983 330.742 34.1925C330.256 34.4284 329.798 34.6088 329.34 34.7337C329.077 34.8031 328.827 34.8586 328.591 34.9002C328.48 34.9141 328.355 34.928 328.244 34.9419C328.3 35.0112 328.369 35.0667 328.438 35.1361L328.605 35.3026L328.716 35.3998C328.896 35.5663 329.049 35.7328 329.202 35.9271C329.493 36.2462 329.743 36.5931 329.951 36.9123C330.187 37.287 330.395 37.6755 330.589 38.1195C330.77 38.522 330.922 38.9383 331.047 39.3407C331.311 40.2149 331.463 41.1168 331.533 42.1021C331.574 42.8375 331.574 43.6423 331.533 44.6137C331.574 44.5582 331.602 44.5027 331.616 44.4333C331.935 43.7395 332.352 43.0457 332.865 42.3796C333.392 41.6997 334.003 41.0752 334.683 40.5063C335.377 39.9235 336.126 39.4101 336.917 38.9938C337.652 38.6052 338.402 38.2999 339.165 38.0779L339.123 38.0224C339.04 37.953 338.971 37.8836 338.887 37.8143C338.471 37.4257 338.124 37.0511 337.847 36.7042C337.527 36.3017 337.264 35.8716 337.056 35.4553C336.861 35.0529 336.695 34.6227 336.556 34.1925C336.417 33.7485 336.306 33.3044 336.237 32.8743C336.07 31.9723 336.029 31.0565 336.084 30.1545C336.112 29.7382 336.154 29.3358 336.223 28.9473" fill="#FFD809"/>
<path d="M61.9287 19.8721C61.9287 19.8721 61.9565 19.9415 61.9704 19.9692C62.0675 20.2329 62.1369 20.5104 62.2063 20.774V20.8018L62.234 20.8712C62.2756 21.0377 62.3173 21.1903 62.345 21.3568C62.3728 21.5234 62.4005 21.6899 62.4283 21.8564C62.4699 22.2033 62.4977 22.5502 62.4977 22.8832C62.4977 23.2302 62.4838 23.5909 62.4422 23.9517C62.4005 24.2986 62.345 24.6039 62.2756 24.8953C62.1924 25.2422 62.0814 25.5614 61.9565 25.8389C61.8871 26.0054 61.8038 26.1581 61.7206 26.2968C61.679 26.3662 61.6373 26.4217 61.5957 26.4911C61.6512 26.4911 61.7206 26.4911 61.7761 26.4772H61.9287L62.0259 26.4495C62.1785 26.4356 62.345 26.4217 62.4977 26.4217C62.7891 26.4217 63.0666 26.4217 63.3303 26.4633C63.6217 26.505 63.9131 26.5605 64.2183 26.6576C64.4959 26.7409 64.7734 26.838 65.037 26.949C65.5921 27.1849 66.1194 27.4902 66.6606 27.8787C67.063 28.1701 67.4654 28.5171 67.9372 28.9611C67.9372 28.9195 67.9095 28.8778 67.8817 28.8362C67.6597 28.3783 67.4793 27.8649 67.3683 27.3237C67.2434 26.7548 67.1879 26.1858 67.1879 25.603C67.1879 24.9925 67.2434 24.3958 67.3683 23.813C67.4793 23.2718 67.6458 22.7584 67.854 22.2727H67.8123C67.8123 22.2727 67.6736 22.2866 67.6042 22.3004C67.2156 22.3421 66.8965 22.3698 66.5912 22.3559C66.2443 22.3559 65.9251 22.3004 65.6199 22.2311C65.3285 22.1617 65.0509 22.0645 64.7595 21.9397C64.482 21.8286 64.2045 21.6899 63.9408 21.5372C63.4135 21.232 62.914 20.8712 62.4838 20.4549C62.2895 20.2606 62.0953 20.0663 61.9287 19.8721Z" fill="#FFD809"/>
<path d="M85.1035 50.5224V156.649C85.1035 162.574 89.988 167.389 96.0381 167.389H314.508C320.544 167.389 325.442 162.574 325.442 156.649V50.5224C325.442 44.5972 327.732 33.4961 310.914 33.4961L96.0381 39.7821C89.988 39.7821 85.1035 44.5972 85.1035 50.5363V50.5224ZM307.75 46.4983C313.495 46.4983 318.157 50.7999 318.157 56.1146V151.057C318.157 156.385 313.509 160.687 307.75 160.687H104.322C92.6106 160.687 92.0417 156.385 92.0417 151.057V132.032C92.0417 130.922 93.2906 130.02 94.8586 130.02H95.5247C99.1742 130.02 99.188 128.022 99.188 125.58V81.5916C99.188 79.1216 99.188 77.1373 95.5247 77.1373H94.8586C93.3045 77.1373 92.0417 76.2492 92.0417 75.1252V56.1146C92.0417 50.7999 93.5959 46.4983 104.322 46.4983H307.764H307.75Z" fill="#131820"/>
<path d="M77.8613 44.2371V150.364C77.8613 156.289 82.7458 161.104 88.7959 161.104H307.266C313.302 161.104 318.2 156.289 318.2 150.364V44.2371C318.2 38.3119 313.302 33.4829 307.266 33.4829H88.7959C82.7458 33.4829 77.8613 38.298 77.8613 44.2371ZM300.508 40.213C306.253 40.213 310.915 44.5146 310.915 49.8293V144.771C310.915 150.1 306.266 154.402 300.508 154.402H97.0801C85.3684 154.402 84.7995 150.1 84.7995 144.771V125.747C84.7995 124.637 86.0484 123.735 87.6164 123.735H88.2825C91.932 123.735 91.9458 121.737 91.9458 119.294V75.3063C91.9458 72.8363 91.9458 70.852 88.2825 70.852H87.6164C86.0623 70.852 84.7995 69.9639 84.7995 68.8399V49.8293C84.7995 44.5146 86.3537 40.213 97.0801 40.213H300.508Z" fill="#1C53B5"/>
<path d="M97.2611 40.1987H300.689C306.433 40.1987 311.096 44.5004 311.096 49.8151V144.757C311.096 150.086 306.447 154.387 300.689 154.387H97.2611C85.5494 154.387 84.9805 150.086 84.9805 144.757V125.733C84.9805 124.623 86.2293 123.721 87.7974 123.721H88.4634C92.1129 123.721 92.1268 121.722 92.1268 119.28V75.2921C92.1268 72.8221 92.1268 70.8378 88.4634 70.8378H87.7974C86.2432 70.8378 84.9805 69.9497 84.9805 68.8257V49.8151C84.9805 44.5004 86.5346 40.1987 97.2611 40.1987Z" fill="#C0F5FD"/>
<path d="M87.3811 91.3053V103.308C87.3811 103.711 87.048 104.044 86.6456 104.044C86.2432 104.044 85.9102 103.711 85.9102 103.308V91.3053C85.9102 90.889 86.2432 90.5698 86.6456 90.5698C87.048 90.5698 87.3811 90.9029 87.3811 91.3053Z" fill="#1A2E35"/>
<path d="M249.582 50.3706H302.895V143.55C302.895 147.422 299.759 150.558 295.887 150.558H256.59C252.718 150.558 249.582 147.422 249.582 143.55V50.3706Z" fill="#AFEAEE"/>
<path d="M299.578 62.0278H251.996V65.5247H299.578V62.0278Z" fill="#C0F5FD"/>
<path d="M286.618 72.2676H251.996V75.7644H286.618V72.2676Z" fill="#C0F5FD"/>
<path d="M299.578 94.6084H251.996V98.1052H299.578V94.6084Z" fill="#C0F5FD"/>
<path d="M286.618 104.849H251.996V108.346H286.618V104.849Z" fill="#C0F5FD"/>
<path d="M294.916 80.2881H251.996V83.7849H294.916V80.2881Z" fill="#C0F5FD"/>
<path d="M286.618 116.713H251.996V120.21H286.618V116.713Z" fill="#C0F5FD"/>
<path d="M299.578 124.733H251.996V128.23H299.578V124.733Z" fill="#C0F5FD"/>
<path d="M299.578 132.769H251.996V136.265H299.578V132.769Z" fill="#C0F5FD"/>
<path d="M245.281 50.6348H96.5684V143.967H245.281V50.6348Z" fill="#FFFDF2"/>
<path d="M151.88 135.722C151.88 135.722 151.88 135.722 151.866 135.722L146.704 135.403C146.607 135.403 146.524 135.333 146.468 135.25C146.427 135.167 146.427 135.056 146.468 134.973C147.467 133.335 148.772 131.864 150.298 130.671L145.247 130.241C145.094 130.241 144.983 130.088 144.997 129.936C144.997 129.783 145.164 129.672 145.303 129.686L151.089 130.171C151.2 130.171 151.297 130.269 151.339 130.38C151.367 130.491 151.339 130.615 151.228 130.685C149.646 131.809 148.272 133.252 147.217 134.876L151.922 135.167C152.074 135.167 152.185 135.306 152.185 135.458C152.185 135.611 152.046 135.722 151.908 135.722H151.88Z" fill="#8CC0CE"/>
<path d="M156.888 132.156C156.444 132.156 156 132.142 155.556 132.101C155.403 132.101 155.292 131.962 155.306 131.795C155.32 131.629 155.459 131.532 155.611 131.532C156.943 131.629 158.303 131.573 159.635 131.365C159.788 131.337 159.927 131.448 159.954 131.601C159.982 131.754 159.871 131.892 159.719 131.92C158.789 132.073 157.845 132.142 156.902 132.142L156.888 132.156Z" fill="#8CC0CE"/>
<path d="M166.435 135.307C166.186 135.307 166.033 135.112 165.977 135.029L162.592 130.519C162.494 130.394 162.522 130.228 162.647 130.131C162.772 130.034 162.939 130.061 163.036 130.186L166.338 134.599C166.338 134.599 166.491 134.543 166.574 134.557C166.741 134.599 166.852 134.765 166.824 134.946C166.796 135.154 166.63 135.307 166.435 135.307Z" fill="#8CC0CE"/>
<path d="M158.332 134.417C157.457 134.417 156.583 134.348 155.723 134.195C155.57 134.168 155.473 134.029 155.501 133.876C155.529 133.724 155.667 133.626 155.82 133.654C157.013 133.848 158.234 133.918 159.442 133.821C159.58 133.821 159.733 133.918 159.733 134.084C159.733 134.237 159.636 134.376 159.469 134.376C159.081 134.403 158.706 134.417 158.318 134.417H158.332Z" fill="#8CC0CE"/>
<path d="M165.355 138.942C165.355 138.942 165.327 138.942 165.299 138.942C165.146 138.914 165.049 138.776 165.077 138.623C165.59 135.709 166.534 132.906 167.88 130.269C167.949 130.131 168.116 130.075 168.255 130.145C168.393 130.214 168.449 130.381 168.38 130.519C167.061 133.1 166.132 135.862 165.632 138.706C165.604 138.845 165.493 138.942 165.355 138.942Z" fill="#8CC0CE"/>
<path d="M171.779 132.309C171.627 132.309 171.516 132.198 171.502 132.046C171.502 131.893 171.613 131.754 171.766 131.754L175.262 131.532C175.415 131.532 175.554 131.643 175.554 131.796C175.554 131.949 175.443 132.087 175.29 132.087L171.793 132.309H171.779Z" fill="#8CC0CE"/>
<path d="M179.106 134.099C178.509 134.099 177.884 133.877 177.371 133.447C177.246 133.35 177.232 133.169 177.329 133.058C177.427 132.933 177.607 132.92 177.718 133.017C178.301 133.502 179.078 133.669 179.674 133.433C180.313 133.183 180.701 132.434 180.493 131.851C180.41 131.615 180.202 131.421 179.938 131.31C179.619 131.449 179.23 131.518 178.828 131.518C178.689 131.518 178.606 131.449 178.564 131.352C178.523 131.254 178.55 131.13 178.62 131.046C178.925 130.727 179.397 130.616 179.883 130.713C179.994 130.658 180.105 130.574 180.202 130.477C180.493 130.172 180.59 129.603 180.299 129.298C180.188 129.187 180.021 129.104 179.799 129.034C179.258 128.882 178.648 128.951 178.148 129.228C178.009 129.298 177.843 129.256 177.773 129.117C177.704 128.979 177.746 128.812 177.884 128.743C178.509 128.396 179.258 128.313 179.952 128.507C180.271 128.59 180.521 128.729 180.701 128.923C181.229 129.478 181.09 130.38 180.604 130.88C180.563 130.921 180.521 130.963 180.479 131.005C180.729 131.185 180.909 131.421 181.007 131.698C181.312 132.559 180.771 133.627 179.855 133.974C179.605 134.071 179.341 134.113 179.078 134.113L179.106 134.099Z" fill="#8CC0CE"/>
<path d="M173.332 134.252C173.18 134.252 173.055 134.127 173.055 133.975V130.283C173.055 130.131 173.18 130.006 173.332 130.006C173.485 130.006 173.61 130.131 173.61 130.283V133.975C173.61 134.127 173.485 134.252 173.332 134.252Z" fill="#8CC0CE"/>
<path d="M145.581 119.946C145.581 119.946 145.553 119.946 145.539 119.946C142.972 119.599 140.349 119.488 137.768 119.627C137.685 119.627 137.616 119.599 137.56 119.557C137.505 119.502 137.477 119.432 137.463 119.363C137.31 116.449 137.352 113.493 137.588 110.593C137.588 110.454 137.713 110.343 137.852 110.343C139.905 110.288 141.973 110.288 144.013 110.343C144.165 110.343 144.29 110.482 144.29 110.635C144.29 110.787 144.165 110.912 144.013 110.912C142.056 110.857 140.086 110.857 138.129 110.912C137.921 113.618 137.879 116.366 138.004 119.086C140.53 118.961 143.083 119.086 145.595 119.419C145.747 119.432 145.858 119.585 145.83 119.738C145.817 119.876 145.692 119.974 145.553 119.974L145.581 119.946Z" fill="#8CC0CE"/>
<path d="M153.767 116.254C153.698 116.254 153.615 116.227 153.545 116.171C153.518 116.157 153.49 116.129 153.462 116.102H148.092C147.939 116.102 147.814 115.991 147.814 115.838C147.814 115.685 147.939 115.561 148.092 115.561H153.407C153.462 115.477 153.559 115.449 153.656 115.463C153.74 115.463 153.809 115.519 153.851 115.588C153.906 115.602 153.948 115.644 153.989 115.685C154.059 115.755 154.087 115.852 154.087 115.949C154.087 116.074 154.003 116.185 153.906 116.24C153.865 116.254 153.823 116.268 153.781 116.268L153.767 116.254Z" fill="#8CC0CE"/>
<path d="M142.07 115.519H137.602C137.449 115.519 137.324 115.394 137.324 115.241C137.324 115.089 137.449 114.964 137.602 114.964H142.07C142.223 114.964 142.347 115.089 142.347 115.241C142.347 115.394 142.223 115.519 142.07 115.519Z" fill="#8CC0CE"/>
<path d="M150.118 118.28C149.438 118.28 148.758 118.266 148.078 118.224C147.925 118.224 147.814 118.086 147.814 117.933C147.814 117.78 147.967 117.669 148.106 117.669C149.896 117.78 151.714 117.739 153.504 117.558C153.656 117.544 153.795 117.655 153.809 117.808C153.823 117.961 153.712 118.099 153.559 118.113C152.421 118.224 151.256 118.294 150.104 118.294L150.118 118.28Z" fill="#8CC0CE"/>
<path d="M164.383 118.1C164.383 118.1 164.327 118.1 164.286 118.1C164.147 118.058 163.981 117.947 163.953 117.6L163.759 115.463C163.703 114.894 163.606 114.325 163.217 114.117C163.037 114.02 162.843 114.02 162.635 114.117C162.274 114.27 161.927 114.672 161.816 115.089C161.719 115.435 161.691 115.796 161.663 116.185C161.622 116.629 161.594 117.073 161.441 117.517C161.4 117.642 161.275 117.711 161.15 117.697C161.025 117.683 160.914 117.572 160.9 117.448C160.817 116.504 160.664 115.56 160.442 114.631C160.359 114.27 160.234 113.895 159.956 113.77C159.526 113.576 159.013 114.145 158.805 114.603C158.361 115.56 158.18 116.67 158.319 117.725C158.333 117.878 158.236 118.016 158.083 118.03C157.93 118.058 157.792 117.947 157.764 117.808C157.528 116.462 157.389 115.089 157.348 113.729C157.348 113.576 157.459 113.451 157.625 113.437C157.764 113.437 157.903 113.548 157.917 113.701C157.917 114.201 157.958 114.686 158 115.186C158.083 114.908 158.194 114.631 158.319 114.353C158.694 113.548 159.457 112.91 160.206 113.243C160.706 113.465 160.9 114.02 161.011 114.478C161.08 114.783 161.15 115.089 161.205 115.394C161.233 115.227 161.261 115.075 161.302 114.922C161.469 114.339 161.927 113.812 162.44 113.59C162.815 113.437 163.176 113.451 163.509 113.618C164.133 113.951 164.286 114.714 164.341 115.408L164.522 117.406C164.605 117.42 164.674 117.475 164.716 117.545C164.799 117.67 164.785 117.85 164.688 117.975C164.619 118.072 164.508 118.128 164.397 118.128L164.383 118.1Z" fill="#8CC0CE"/>
<path d="M169.073 117.753C168.351 117.753 167.643 117.531 167.102 117.114C166.089 116.323 165.729 114.852 166.284 113.756C166.575 113.187 167.144 112.743 167.796 112.563C168.421 112.396 169.045 112.48 169.545 112.799C169.669 112.882 169.711 113.048 169.628 113.187C169.545 113.312 169.378 113.354 169.239 113.27C168.878 113.035 168.407 112.979 167.935 113.104C167.421 113.243 166.991 113.576 166.769 114.006C166.339 114.852 166.631 116.046 167.435 116.67C168.199 117.267 169.364 117.364 170.335 116.92H170.349C170.349 116.92 170.294 116.781 170.308 116.712C170.336 116.559 170.474 116.448 170.627 116.476C170.807 116.504 170.932 116.629 170.96 116.795C171.002 117.045 170.793 117.322 170.585 117.42C170.113 117.642 169.6 117.753 169.087 117.753H169.073Z" fill="#8CC0CE"/>
<path d="M171.433 111.897C171.03 111.897 170.67 111.758 170.475 111.369C170.253 110.939 170.406 110.467 170.559 110.093C170.683 109.788 170.808 109.482 170.739 109.246C170.711 109.163 170.6 109.066 170.503 109.052C170.434 109.052 170.42 109.052 170.42 109.066C170.337 109.191 170.156 109.233 170.031 109.135C169.906 109.052 169.865 108.872 169.962 108.747C170.101 108.553 170.337 108.455 170.586 108.483C170.905 108.539 171.197 108.775 171.28 109.066C171.405 109.496 171.225 109.926 171.086 110.259C170.961 110.537 170.864 110.856 170.975 111.078C171.197 111.508 172.002 111.231 172.404 111.023C172.543 110.953 172.709 111.009 172.779 111.147C172.848 111.286 172.793 111.453 172.654 111.522C172.279 111.716 171.835 111.855 171.433 111.855V111.897Z" fill="#8CC0CE"/>
<path d="M133.91 71.9197C133.91 71.9197 133.896 71.9197 133.882 71.9197C133.729 71.9197 133.618 71.7671 133.632 71.6144L134.506 61.7483C134.506 61.6095 134.631 61.4985 134.77 61.4985C134.923 61.4985 135.034 61.5818 135.061 61.7206C135.464 63.802 136.144 65.828 137.073 67.729C137.504 65.7586 138.114 63.8298 138.905 61.9703C138.961 61.8454 139.085 61.7899 139.21 61.8038C139.335 61.8316 139.432 61.9287 139.432 62.0675L139.89 70.879C139.89 71.0316 139.779 71.1565 139.627 71.1704C139.474 71.1704 139.349 71.0594 139.335 70.9067L138.933 63.358C138.294 65.0648 137.795 66.8271 137.448 68.6171C137.42 68.7281 137.337 68.8253 137.212 68.8391C137.101 68.853 136.976 68.7975 136.935 68.7004C136.074 67.0491 135.394 65.3145 134.909 63.5245L134.187 71.6699C134.187 71.8087 134.048 71.9197 133.91 71.9197Z" fill="#8CC0CE"/>
<path d="M145.635 72.9453C145.052 72.9453 144.456 72.7787 143.9 72.4596C142.915 71.8906 142.291 70.9471 142.235 69.9341C142.166 68.8378 142.846 67.5196 144.053 67.3114C144.678 67.2004 145.371 67.5196 145.774 68.0885C146.121 68.5881 146.176 69.157 145.913 69.6288C145.496 70.3504 144.511 70.6279 143.29 70.3781C143.137 70.3504 143.04 70.1977 143.082 70.059C143.11 69.9063 143.262 69.8092 143.401 69.8508C143.776 69.9341 145.011 70.1145 145.441 69.379C145.663 68.9766 145.441 68.5881 145.33 68.4354C145.052 68.033 144.567 67.7971 144.15 67.8804C143.234 68.0469 142.735 69.0737 142.776 69.9341C142.818 70.7528 143.345 71.5299 144.178 72.0155C145.011 72.4873 145.94 72.5567 146.676 72.1821C146.815 72.1127 146.981 72.1682 147.05 72.3069C147.12 72.4457 147.064 72.6122 146.926 72.6816C146.523 72.8897 146.093 72.9869 145.635 72.9869V72.9453Z" fill="#8CC0CE"/>
<path d="M155.029 68.9496H150.02C149.867 68.9496 149.742 68.8247 149.742 68.6721C149.742 68.5194 149.867 68.3945 150.02 68.3945H155.029C155.182 68.3945 155.307 68.5194 155.307 68.6721C155.307 68.8247 155.182 68.9496 155.029 68.9496Z" fill="#8CC0CE"/>
<path d="M161.98 72.058C161.314 72.058 160.648 72.0441 159.982 72.0164C159.844 72.0164 159.719 71.8915 159.719 71.7527C159.649 69.7684 159.594 68.2281 159.524 66.6878C159.455 65.1475 159.399 63.5934 159.33 61.6091C159.33 61.4564 159.441 61.3315 159.594 61.3315C159.746 61.3315 159.871 61.4426 159.871 61.5952C159.941 63.5795 159.996 65.1198 160.066 66.6601C160.121 68.1448 160.19 69.6157 160.246 71.4752C161.578 71.5307 162.924 71.5168 164.242 71.4474C164.381 71.4474 164.52 71.5584 164.534 71.7111C164.548 71.8637 164.423 71.9886 164.27 72.0025C163.507 72.0441 162.73 72.058 161.967 72.058H161.98Z" fill="#8CC0CE"/>
<path d="M154.918 71.184H150.02C149.867 71.184 149.742 71.0591 149.742 70.9064C149.742 70.7538 149.867 70.6289 150.02 70.6289H154.918C155.071 70.6289 155.196 70.7538 155.196 70.9064C155.196 71.0591 155.071 71.184 154.918 71.184Z" fill="#8CC0CE"/>
<path d="M168.823 72.6969C168.573 72.6969 168.476 72.5859 168.337 69.6163C168.337 69.5886 168.199 66.3693 168.476 66.2028C168.559 66.1473 168.67 66.1473 168.754 66.2028C168.837 66.2583 168.892 66.3415 168.892 66.4525C168.892 66.6052 168.851 69.1307 168.892 69.6025C168.906 69.9771 169.003 71.2815 169.059 71.9476C169.115 72.0031 169.156 72.0725 169.142 72.1557C169.142 72.4194 169.142 72.6969 168.851 72.7108H168.823V72.6969Z" fill="#8CC0CE"/>
<path d="M175.358 71.614C175.219 71.614 175.095 71.503 175.081 71.3503L175.025 70.5871C174.789 67.0348 174.72 65.8414 174.789 61.9699C174.789 61.8173 174.928 61.7063 175.067 61.6924C175.219 61.6924 175.344 61.8173 175.33 61.9699C175.261 65.8275 175.33 67.007 175.566 70.5455L175.622 71.3087C175.622 71.4613 175.511 71.5862 175.358 71.6001H175.344L175.358 71.614Z" fill="#8CC0CE"/>
<path d="M170.613 70.1291C170.613 70.1291 170.585 70.1291 170.571 70.1291L166.824 69.5186C166.672 69.4908 166.575 69.352 166.602 69.1994C166.63 69.0468 166.769 68.9496 166.922 68.9774L170.668 69.5879C170.821 69.6157 170.918 69.7545 170.89 69.9071C170.862 70.0459 170.751 70.143 170.613 70.143V70.1291Z" fill="#8CC0CE"/>
<path d="M176.788 62.4139C176.788 62.4139 176.774 62.4139 176.76 62.4139L172.806 61.9976C172.653 61.9838 172.542 61.845 172.556 61.6924C172.57 61.5397 172.709 61.4287 172.861 61.4426L176.816 61.8589C176.969 61.8727 177.08 62.0115 177.066 62.1641C177.052 62.3029 176.927 62.4139 176.788 62.4139Z" fill="#8CC0CE"/>
<path d="M173.582 72.0173C173.443 72.0173 173.319 71.9063 173.305 71.7675C173.305 71.6149 173.402 71.49 173.554 71.4761L178.272 71.1431C178.411 71.1431 178.55 71.2402 178.564 71.3928C178.564 71.5455 178.467 71.6704 178.314 71.6842L173.596 72.0173H173.582Z" fill="#8CC0CE"/>
<path d="M187.529 80.6474L183.991 80.5503C183.88 80.5503 183.644 80.5503 183.491 80.3699C183.366 80.2312 183.352 80.0508 183.339 79.9536C182.908 73.7509 182.756 64.315 182.992 57.5017C182.992 57.2658 183.019 56.905 183.241 56.6413C183.463 56.3915 183.796 56.3222 184.018 56.2805L186.266 55.8226C186.419 55.7949 186.558 55.892 186.586 56.0308C186.613 56.1695 186.516 56.3222 186.377 56.3499L184.129 56.8078C183.921 56.8495 183.755 56.8911 183.658 56.9882C183.561 57.0992 183.547 57.2935 183.533 57.5155C183.297 64.315 183.45 73.7231 183.88 79.912C183.88 79.9398 183.88 79.9953 183.88 80.0091C183.88 79.9953 183.907 80.0091 183.977 80.0091L187.515 80.1063C187.668 80.1063 187.793 80.2312 187.779 80.3838C187.779 80.5364 187.654 80.6474 187.501 80.6474H187.529Z" fill="#8CC0CE"/>
<path d="M192.551 62.0518C192.398 62.0518 192.273 61.927 192.273 61.7882C192.245 60.7891 192.148 59.79 191.968 58.8186C191.926 58.555 191.76 57.9167 191.385 57.8751C191.163 57.8473 190.955 58.0277 190.844 58.1387C190.164 58.8187 190.067 59.8871 190.011 61.0111C190.011 61.1499 189.886 61.2748 189.748 61.2748C189.595 61.2748 189.484 61.1776 189.47 61.025C189.331 59.6512 189.29 58.2636 189.359 56.876C189.359 56.7233 189.512 56.6123 189.651 56.6123C189.803 56.6123 189.914 56.7511 189.914 56.9037C189.886 57.4726 189.873 58.0416 189.886 58.5966C190.025 58.2775 190.206 57.9861 190.469 57.7224C190.775 57.4033 191.135 57.2645 191.468 57.2922C191.843 57.3339 192.329 57.6114 192.523 58.6799C192.703 59.6929 192.814 60.7197 192.842 61.7327C192.842 61.8853 192.731 62.0102 192.578 62.0102L192.551 62.0518Z" fill="#8CC0CE"/>
<path d="M195.367 63.7877C195.367 63.7877 195.256 63.7738 195.214 63.7322L187.513 63.4408C187.36 63.4408 187.235 63.302 187.249 63.1494C187.249 62.9968 187.374 62.8857 187.527 62.8857L195.825 63.191C195.977 63.191 196.088 63.3159 196.088 63.4686C196.088 63.6212 195.977 63.7322 195.825 63.7461L195.381 63.7738H195.367V63.7877Z" fill="#8CC0CE"/>
<path d="M191.065 69.5604C190.912 69.5604 190.774 69.5604 190.621 69.5465C190.343 69.5327 189.997 69.4772 189.788 69.1858C189.539 68.825 189.65 68.3393 190.121 67.8397C190.51 67.4235 190.912 67.0072 191.023 66.4937C191.079 66.2301 191.009 65.9248 190.843 65.7167C190.774 65.6195 190.635 65.4946 190.454 65.4946C190.219 65.4946 189.955 65.7028 189.941 65.9387C189.927 66.0913 189.788 66.2023 189.636 66.1885C189.483 66.1746 189.372 66.0358 189.386 65.8832C189.441 65.342 189.941 64.9257 190.482 64.9535C190.787 64.9673 191.079 65.12 191.287 65.3975C191.551 65.7305 191.662 66.2023 191.565 66.6186C191.426 67.2708 190.954 67.7842 190.538 68.2283C190.343 68.4364 190.149 68.7278 190.246 68.8805C190.316 68.9776 190.51 69.0054 190.663 69.0054C191.176 69.0331 191.703 69.0054 192.203 68.9221C192.355 68.8943 192.494 68.9915 192.522 69.1441C192.55 69.2968 192.453 69.4355 192.3 69.4633C191.898 69.5327 191.481 69.5743 191.065 69.5743V69.5604Z" fill="#8CC0CE"/>
<path d="M199.711 65.2167C199.225 65.2167 198.74 65.1751 198.254 65.0918C198.101 65.064 198.004 64.9253 198.032 64.7726C198.06 64.62 198.212 64.5229 198.351 64.5506C199.073 64.6755 199.822 64.7033 200.544 64.62C200.696 64.6061 200.835 64.7171 200.849 64.8698C200.863 65.0224 200.752 65.1612 200.599 65.1751C200.308 65.2028 200.003 65.2167 199.697 65.2167H199.711Z" fill="#8CC0CE"/>
<path d="M203.567 68.4507C203.443 68.4507 203.332 68.3675 203.304 68.2426L203.123 67.5765C203.082 67.4516 203.151 67.3129 203.262 67.2574C203.151 64.3294 203.096 61.3599 203.096 58.4597C203.096 58.321 203.193 58.21 203.332 58.1822C204.594 57.9879 205.829 57.9879 207.217 58.0018C207.37 58.0018 207.495 58.1267 207.495 58.2793C207.495 58.432 207.37 58.5569 207.217 58.5569C205.94 58.543 204.789 58.5569 203.651 58.6956C203.651 61.8317 203.72 65.0094 203.859 68.1593C203.859 68.2981 203.762 68.423 203.623 68.4369C203.609 68.4369 203.595 68.4369 203.581 68.4369L203.567 68.4507Z" fill="#8CC0CE"/>
<path d="M201.723 71.5722C196.464 71.5722 191.191 71.3779 185.974 71.0033C185.821 71.0033 185.71 70.8645 185.724 70.7119C185.724 70.5592 185.863 70.4482 186.015 70.4621C193.356 71.0033 200.807 71.1559 208.162 70.9339C208.217 70.7813 208.384 70.7258 208.523 70.7813L208.897 70.9339C209.022 70.9894 209.092 71.1143 209.064 71.2392C209.036 71.3641 208.925 71.4612 208.8 71.4612C206.455 71.5445 204.082 71.5722 201.723 71.5722Z" fill="#8CC0CE"/>
<path d="M206.676 63.7889C206.676 63.7889 206.649 63.7889 206.635 63.7889C205.511 63.6085 204.359 63.5392 203.221 63.6224C203.068 63.6224 202.944 63.5114 202.93 63.3588C202.93 63.2061 203.041 63.0812 203.193 63.0674C204.373 62.9841 205.566 63.0535 206.732 63.2478C206.884 63.2755 206.982 63.4143 206.954 63.5669C206.926 63.7057 206.815 63.8028 206.676 63.8028V63.7889Z" fill="#8CC0CE"/>
<path d="M197.117 79.1218C196.964 79.1218 196.853 79.0108 196.839 78.8582C196.756 76.8738 196.825 74.8756 197.033 72.9052C197.047 72.7248 197.075 72.475 197.241 72.253C197.547 71.8367 198.185 71.8367 198.587 72.1004C198.948 72.3501 199.156 72.7387 199.309 73.0578C199.378 73.1966 199.309 73.3631 199.184 73.4325C199.045 73.5019 198.879 73.4325 198.809 73.3076C198.671 73.0301 198.518 72.7248 198.268 72.5583C198.088 72.4334 197.796 72.4195 197.672 72.5722C197.616 72.6554 197.588 72.7942 197.574 72.9468C197.366 74.8895 197.297 76.86 197.38 78.8165C197.38 78.9692 197.269 79.094 197.117 79.1079V79.1218Z" fill="#8CC0CE"/>
<path d="M209.772 80.5783C209.689 80.5783 209.605 80.5783 209.522 80.5506C209.189 80.4812 208.939 80.2592 208.856 79.9678C208.814 79.8151 208.898 79.6625 209.036 79.6209C209.189 79.5792 209.342 79.6625 209.383 79.8013C209.425 79.9261 209.55 79.9816 209.633 80.0094C209.855 80.0649 210.133 79.9678 210.258 79.8151C210.549 79.4821 210.577 78.9548 210.577 78.4136V55.7813C210.577 55.587 210.577 55.4343 210.507 55.3372C210.438 55.2262 210.258 55.1568 210.091 55.1013C209.383 54.8793 208.634 54.7405 207.885 54.7128C207.732 54.7128 207.621 54.574 207.621 54.4214C207.621 54.2687 207.774 54.1577 207.913 54.1577C208.703 54.1993 209.494 54.3381 210.258 54.574C210.535 54.6573 210.799 54.7822 210.979 55.0319C211.146 55.2817 211.146 55.5731 211.146 55.7813V78.4136C211.146 78.9132 211.146 79.6625 210.702 80.1759C210.48 80.4257 210.147 80.5783 209.786 80.5783H209.772Z" fill="#8CC0CE"/>
<path d="M199.711 76.2067C199.711 76.2067 199.711 76.2067 199.697 76.2067L195.867 75.9569C195.715 75.9569 195.604 75.8181 195.604 75.6655C195.604 75.5129 195.742 75.4019 195.895 75.4019L199.725 75.6516C199.877 75.6516 199.988 75.7904 199.988 75.943C199.988 76.0957 199.864 76.2067 199.711 76.2067Z" fill="#8CC0CE"/>
<path d="M190.83 120.542C190.691 120.542 190.58 120.445 190.566 120.32L189.567 114.853L184.905 115.199C184.752 115.199 184.613 115.102 184.613 114.936C184.613 114.783 184.71 114.644 184.877 114.644L189.789 114.284C189.928 114.284 190.053 114.367 190.081 114.506L190.872 118.877C191.413 116.365 191.885 113.826 192.259 111.3C192.273 111.175 192.37 111.078 192.495 111.064C196.089 110.606 199.725 110.246 203.333 109.996C203.485 109.982 203.624 110.093 203.624 110.259C203.624 110.426 203.527 110.551 203.36 110.551C199.836 110.801 196.269 111.161 192.759 111.592C192.315 114.519 191.76 117.461 191.107 120.348C191.08 120.472 190.969 120.57 190.83 120.57V120.542Z" fill="#8CC0CE"/>
<path d="M200.988 118.849C200.988 118.849 200.863 118.835 200.807 118.793L194.258 113.492C194.133 113.395 194.119 113.215 194.216 113.104C194.313 112.979 194.494 112.965 194.605 113.062L201.154 118.363C201.279 118.46 201.293 118.641 201.196 118.752C201.14 118.821 201.057 118.849 200.974 118.849H200.988Z" fill="#8CC0CE"/>
<path d="M195.631 120.042C195.631 120.042 195.576 120.042 195.548 120.042C195.395 120 195.326 119.834 195.367 119.695C196.089 117.447 198.226 114.158 199.378 112.396C199.461 112.271 199.627 112.23 199.766 112.313C199.891 112.396 199.933 112.563 199.849 112.701C198.712 114.45 196.602 117.697 195.895 119.875C195.853 120 195.742 120.07 195.631 120.07V120.042Z" fill="#8CC0CE"/>
<path d="M186.515 114.117C186.404 114.117 186.293 114.048 186.252 113.923C186.154 113.645 186.099 113.243 186.043 112.854C186.002 112.493 185.946 112.119 185.863 111.883C185.808 111.744 185.891 111.578 186.03 111.536C186.182 111.48 186.335 111.564 186.39 111.702C186.432 111.841 186.474 111.994 186.501 112.16C186.64 111.841 186.834 111.578 187.112 111.467C187.695 111.231 188.347 111.591 188.638 112.091C188.916 112.563 188.944 113.118 188.971 113.562C188.971 113.715 188.86 113.853 188.708 113.853C188.555 113.853 188.416 113.742 188.416 113.59C188.389 113.173 188.375 112.715 188.167 112.369C188 112.091 187.625 111.855 187.334 111.98C186.973 112.133 186.751 113.187 186.793 113.798C186.793 113.937 186.71 114.061 186.571 114.089C186.557 114.089 186.529 114.089 186.515 114.089V114.117Z" fill="#8CC0CE"/>
<path d="M158.942 99.9785C158.318 99.9785 157.679 99.9369 157.055 99.8675C156.847 99.8398 156.278 99.7704 156.084 99.3125C155.848 98.7713 156.32 98.2717 156.888 97.9942C157.166 97.8693 157.457 97.7444 157.749 97.6057C159.123 97.009 160.538 96.3984 160.968 95.0941C161.26 94.1921 160.899 93.1097 160.122 92.5547C159.345 92.0135 158.193 92.0413 157.457 92.6241C157.333 92.7212 157.166 92.6934 157.069 92.5824C156.972 92.4575 156.999 92.291 157.11 92.1939C158.054 91.4584 159.456 91.4168 160.441 92.0968C161.426 92.7906 161.87 94.1088 161.509 95.2606C161.01 96.8008 159.469 97.4669 157.985 98.1052C157.693 98.2301 157.416 98.355 157.138 98.4799C156.875 98.6048 156.528 98.8684 156.611 99.0627C156.653 99.1737 156.833 99.2431 157.138 99.2847C158.387 99.4374 159.65 99.4374 160.899 99.2708C161.051 99.257 161.19 99.3541 161.204 99.5067C161.218 99.6594 161.121 99.7981 160.968 99.812C160.302 99.8953 159.622 99.9369 158.956 99.9369L158.942 99.9785Z" fill="#8CC0CE"/>
<path d="M171.542 100.588C170.917 100.588 170.279 100.547 169.655 100.477C169.446 100.45 168.878 100.38 168.683 99.9222C168.447 99.381 168.919 98.8815 169.488 98.6039C169.766 98.4791 170.057 98.3403 170.348 98.2154C171.722 97.6187 173.138 97.0082 173.568 95.7038C173.859 94.8018 173.498 93.7195 172.721 93.1783C171.944 92.6371 170.792 92.6649 170.057 93.2477C169.932 93.3448 169.766 93.317 169.668 93.206C169.571 93.0811 169.599 92.9146 169.71 92.8175C170.654 92.0682 172.055 92.0404 173.04 92.7204C174.026 93.4142 174.47 94.7324 174.109 95.8842C173.609 97.4245 172.069 98.0905 170.584 98.7288C170.293 98.8537 170.015 98.9786 169.738 99.1035C169.474 99.2284 169.127 99.492 169.211 99.6863C169.252 99.7973 169.433 99.8667 169.738 99.9083C170.987 100.061 172.249 100.047 173.498 99.8944C173.651 99.8806 173.79 99.9777 173.804 100.13C173.818 100.283 173.72 100.422 173.568 100.436C172.902 100.519 172.222 100.561 171.556 100.561L171.542 100.588Z" fill="#8CC0CE"/>
<path d="M164.924 98.8127C164.785 98.8127 164.66 98.7017 164.647 98.549C164.605 97.9662 164.702 97.203 164.799 96.4814C164.883 95.7876 164.98 95.0522 164.938 94.5249C164.938 94.3722 165.049 94.2335 165.202 94.2335C165.354 94.2196 165.493 94.3445 165.493 94.4971C165.535 95.0799 165.438 95.8431 165.34 96.5647C165.257 97.2585 165.16 97.994 165.202 98.5213C165.202 98.6739 165.105 98.8127 164.938 98.8127H164.924Z" fill="#8CC0CE"/>
<path d="M163.911 96.8283C163.592 96.8283 163.286 96.8145 163.009 96.7728C162.856 96.7451 162.759 96.6063 162.773 96.4537C162.801 96.301 162.939 96.2039 163.092 96.2178C163.619 96.301 164.355 96.2594 165.049 96.2178C165.784 96.1761 166.533 96.1484 167.116 96.2316C167.269 96.2594 167.366 96.3982 167.352 96.5508C167.324 96.7035 167.185 96.8145 167.033 96.7867C166.506 96.7034 165.77 96.7451 165.076 96.7867C164.688 96.8006 164.285 96.8283 163.897 96.8283H163.911Z" fill="#8CC0CE"/>
<path d="M178.243 98.1745C177.924 98.1745 177.618 98.1606 177.341 98.119C177.188 98.0913 177.091 97.9525 177.105 97.7999C177.133 97.6472 177.271 97.5501 177.424 97.564C177.951 97.6472 178.687 97.6056 179.381 97.564C180.116 97.5223 180.865 97.4946 181.448 97.5778C181.601 97.6056 181.698 97.7444 181.684 97.897C181.656 98.0496 181.518 98.1607 181.365 98.1329C180.838 98.0496 180.102 98.0913 179.408 98.1329C179.02 98.1468 178.617 98.1745 178.229 98.1745H178.243Z" fill="#8CC0CE"/>
<path d="M178.12 99.6579C177.8 99.6579 177.495 99.644 177.218 99.6024C177.065 99.5747 176.968 99.4359 176.982 99.2833C177.01 99.1306 177.148 99.0335 177.301 99.0474C177.828 99.1306 178.564 99.089 179.257 99.0474C179.993 99.0057 180.742 98.978 181.325 99.0612C181.478 99.089 181.575 99.2278 181.561 99.3804C181.533 99.533 181.394 99.644 181.242 99.6163C180.715 99.533 179.979 99.5747 179.285 99.6163C178.897 99.6302 178.494 99.6579 178.106 99.6579H178.12Z" fill="#8CC0CE"/>
<path d="M185.516 96.8851C184.669 96.8851 183.837 96.8435 183.004 96.7464C182.879 96.7464 182.782 96.6492 182.768 96.5243C182.616 95.8167 182.616 95.1645 182.616 94.5262C182.616 94.0405 182.616 93.5409 182.546 93.0136C182.532 92.861 182.629 92.7222 182.782 92.7083C182.935 92.6945 183.074 92.7916 183.087 92.9443C183.157 93.4993 183.157 94.0266 183.157 94.5262C183.157 95.0951 183.157 95.6363 183.254 96.2052C184.433 96.3162 185.627 96.344 186.806 96.2746C186.959 96.2746 187.098 96.3856 187.098 96.5382C187.098 96.6909 186.987 96.8296 186.834 96.8296C186.39 96.8574 185.946 96.8713 185.502 96.8713L185.516 96.8851Z" fill="#8CC0CE"/>
<path d="M186.459 100.645C186.306 100.645 186.195 100.534 186.181 100.381C186.126 99.4791 186.056 98.0498 185.987 96.6206C185.918 95.2329 185.848 93.8453 185.807 92.9711C185.807 92.8184 185.918 92.6797 186.07 92.6797C186.237 92.6797 186.362 92.7907 186.362 92.9433C186.403 93.8314 186.473 95.2052 186.542 96.5928C186.611 98.0082 186.681 99.4375 186.736 100.339C186.736 100.492 186.625 100.631 186.473 100.631H186.459V100.645Z" fill="#8CC0CE"/>
<path d="M147.703 89.4325C146.357 89.4325 145.011 88.919 144.053 87.9893C143.345 87.3094 143.04 86.5184 143.193 85.8246C143.429 84.7978 144.483 84.3398 145.496 84.0207C145.635 83.9791 145.801 84.0623 145.843 84.2011C145.885 84.3398 145.801 84.5064 145.663 84.548C144.802 84.8116 143.9 85.1863 143.734 85.9495C143.567 86.6572 144.178 87.3371 144.442 87.6008C145.552 88.6831 147.245 89.1411 148.757 88.7664C148.979 88.7109 149.257 88.6276 149.423 88.4334C149.659 88.1697 149.631 87.7257 149.604 87.4898C149.409 86.1993 148.41 85.2834 147.342 84.3121C146.884 83.8958 146.412 83.4656 146.01 83.0077C145.76 82.7163 145.455 82.3139 145.33 81.8282C145.066 80.6765 145.843 79.5802 147.647 78.5534C148.424 78.1093 149.506 77.8734 149.951 78.6505C150.034 78.7754 149.978 78.9558 149.853 79.0252C149.715 79.1084 149.548 79.0529 149.479 78.9281C149.215 78.4701 148.369 78.7893 147.925 79.0391C146.842 79.6496 145.621 80.6071 145.871 81.7033C145.954 82.078 146.218 82.3971 146.426 82.6469C146.814 83.091 147.272 83.5073 147.716 83.9097C148.799 84.8949 149.923 85.9217 150.145 87.4065C150.228 87.9755 150.117 88.475 149.84 88.7942C149.576 89.0994 149.187 89.2243 148.882 89.2937C148.493 89.3908 148.105 89.4325 147.716 89.4325H147.703Z" fill="#8CC0CE"/>
<path d="M203.722 102.935C203.583 102.935 203.459 102.824 203.445 102.685L202.987 98.411H202.959C202.834 98.3139 202.793 98.1474 202.876 98.0086C202.89 97.9808 202.917 97.9531 202.931 97.9392L202.446 93.4155C202.404 92.9854 202.348 92.4442 202.557 91.9585C202.723 91.57 203.084 91.2647 203.528 91.112C204 90.9455 204.541 90.9872 204.957 91.2231C205.734 91.6532 206.123 92.6662 205.873 93.582C205.734 94.0677 205.443 94.5118 205.027 94.8587H205.998C206.192 94.8725 206.498 94.8725 206.733 95.0529C206.942 95.2056 207.066 95.4692 207.094 95.8161C207.205 96.8291 206.692 97.856 205.831 98.3971C205.165 98.8134 204.319 98.8967 203.57 98.6608L203.986 102.616C204 102.768 203.889 102.907 203.736 102.921H203.708L203.722 102.935ZM203.514 98.0641C204.152 98.3555 204.957 98.3139 205.554 97.9392C206.234 97.5229 206.65 96.6765 206.553 95.8855C206.539 95.6912 206.484 95.5664 206.4 95.5109C206.317 95.4415 206.164 95.4415 205.998 95.4415L204 95.4137C203.861 95.4137 203.75 95.3166 203.736 95.1778C203.722 95.0391 203.792 94.9142 203.917 94.8725C204.624 94.6366 205.165 94.0955 205.346 93.4571C205.526 92.7911 205.235 92.0279 204.694 91.7226C204.416 91.57 204.041 91.5422 203.708 91.6532C203.403 91.7504 203.181 91.9446 203.07 92.1944C202.917 92.5413 202.959 92.9854 203.001 93.3739L203.5 98.078L203.514 98.0641Z" fill="#8CC0CE"/>
<path d="M118.853 53.1611H100.883C100.347 53.1611 99.9121 53.596 99.9121 54.1325V63.8043C99.9121 64.3408 100.347 64.7757 100.883 64.7757H118.853C119.39 64.7757 119.825 64.3408 119.825 63.8043V54.1325C119.825 53.596 119.39 53.1611 118.853 53.1611Z" fill="#E40000"/>
<path d="M104.893 57.2812H105.531V60.1398H107.238L107.168 60.6671H104.906V57.2951L104.893 57.2812Z" fill="white"/>
<path d="M108.32 57.2812V60.6532H107.682V57.2812H108.32Z" fill="white"/>
<path d="M109.985 60.6532L108.777 57.2812H109.457L109.985 58.877C110.151 59.3627 110.276 59.7929 110.359 60.1259C110.429 59.8206 110.581 59.3766 110.748 58.8909L111.303 57.2812H111.955L110.72 60.6532H109.971H109.985Z" fill="white"/>
<path d="M114.662 59.1546H113.025V60.1259H114.829L114.746 60.6532H112.4V57.2812H114.732V57.8086H113.025V58.6411H114.662V59.1684V59.1546Z" fill="white"/>
<path d="M201.089 142.454C196.996 140.248 198.37 127.218 199.674 120.64C201.672 110.538 206.348 103.6 210.442 103.989C210.803 104.016 211.705 104.086 212.232 104.571C213.661 105.89 215.937 114.84 214.078 123.388C210.317 140.636 206.46 143.592 201.825 142.718C201.561 142.662 201.325 142.579 201.089 142.454Z" fill="#67D5C4"/>
<path d="M213.466 123.263C209.539 141.275 205.584 142.815 201.948 142.135C198.313 141.455 198.396 130.396 200.297 120.765C202.198 111.135 206.624 104.599 210.329 104.585C210.704 104.585 211.703 104.821 211.967 105.057C213.202 106.181 215.367 114.563 213.466 123.277V123.263Z" fill="#3DBBB2"/>
<path d="M184.116 116.175C184.116 116.175 183.506 115.259 182.673 113.996C182.215 113.288 180.245 111.762 179.079 110.832C177.705 109.75 177.428 109.528 177.344 109.25C177.164 108.668 177.372 108.473 177.566 108.293C177.761 108.113 178.205 108.168 178.302 108.085C178.066 107.779 177.622 107.516 177.83 106.947C177.983 106.517 178.496 106.503 178.899 106.572C178.635 106.35 178.51 105.754 178.677 105.448C178.746 105.309 179.162 104.935 179.856 105.101C179.676 104.838 179.606 104.491 179.731 104.227C179.814 104.033 179.939 103.825 180.369 103.825C181.341 103.825 183.131 105.212 184.408 106.198C184.519 105.962 184.671 105.573 184.907 105.42C185.143 105.268 185.379 105.198 185.601 105.198C185.962 105.198 186.198 105.379 186.322 105.573C186.392 105.684 186.864 106.322 187.197 106.767C187.779 107.544 188.029 108.279 188.237 108.917C188.348 109.25 188.446 109.556 188.584 109.819C189.042 110.721 190.166 112.692 190.18 112.706L190.499 113.261L184.435 116.646L184.116 116.161V116.175Z" fill="#227986"/>
<path d="M184.644 115.828C184.644 115.828 184.034 114.912 183.201 113.663C182.368 112.414 177.872 109.528 177.789 109.25C177.22 107.349 180.953 109.777 181.716 110.152C182.313 110.444 177.97 108.057 178.289 107.307C178.761 106.156 182.549 109.125 182.549 109.125C182.549 109.125 178.608 106.503 179.024 105.753C179.468 104.948 183.159 107.668 183.159 107.668C183.159 107.668 179.371 105.295 180.176 104.338C180.898 103.478 185.477 107.974 185.477 107.974C185.477 107.974 184.45 106.489 185.269 105.975C185.699 105.712 185.824 105.934 185.824 105.934C185.824 105.934 186.337 106.669 186.712 107.155C187.53 108.237 187.614 109.264 188.044 110.124C188.516 111.054 189.667 113.052 189.667 113.052L184.672 115.841L184.644 115.828Z" fill="#2E9DA0"/>
<path d="M203.945 145.689C202.238 145.689 200.171 145.009 197.826 143.65C185.351 136.475 182.284 118.894 182.159 118.159L182.09 117.728L191.29 112.331L191.637 112.747C194.218 115.952 200.379 123.57 202.849 126.54C203.751 127.636 203.515 129.246 203.723 129.454C204.653 130.384 208.136 137.891 207.9 141.221C207.9 141.221 208.788 141.887 208.483 142.72C207.858 144.413 206.124 145.676 203.959 145.676L203.945 145.689Z" fill="#67D5C4"/>
<path d="M182.771 118.062L191.125 113.164C191.125 113.164 201.366 125.861 202.365 126.86C203.364 127.859 209.15 135.991 208.928 139.002C208.706 142.013 207.041 148.244 198.133 143.123C185.783 136.018 182.771 118.076 182.771 118.076V118.062Z" fill="#3DBBB2"/>
<path d="M205.264 145.896L205.291 145.244C203.89 127.857 206.818 137.196 205.569 128.495C205.458 127.746 204.389 125.082 204.653 120.28C204.764 118.254 204.847 116.52 204.847 116.048C204.847 108.125 205.055 106.432 207.525 104.864C209.149 103.823 210.897 102.949 214.533 101.811C218.654 100.52 222.595 100.257 225.176 100.257C226.148 100.257 227.091 100.298 227.965 100.368C238.053 101.214 243.882 105.696 245.283 113.675C246.546 120.808 244.062 144.342 243.965 145.341L243.909 145.91H205.264V145.896Z" fill="#67D5C4"/>
<path d="M205.917 145.259H243.341C243.341 145.259 245.936 120.892 244.673 113.759C244.146 110.79 242.3 102.186 227.925 100.965C225.191 100.729 220.029 100.729 214.742 102.381C211.065 103.532 209.4 104.393 207.873 105.364C205.736 106.724 205.486 108.028 205.486 116.021C205.486 117.381 204.779 128.302 204.945 129.453C206.222 138.32 205.931 145.245 205.931 145.245L205.917 145.259Z" fill="#3DBBB2"/>
<path d="M225.134 86.2565V101.423C225.134 101.423 224.94 102.769 221.887 103.505C218.848 104.254 217.849 101.978 217.849 101.978L218.432 99.3419L218.557 98.7869C218.557 98.7869 217.655 99.2171 216.503 99.1338C215.004 99.0228 211.646 97.0523 211.688 93.2502C211.688 92.6396 211.688 83.0511 211.688 83.0511L215.698 81.2749L222.303 82.2462L225.12 86.2565H225.134Z" fill="#2E9DA0"/>
<path d="M222.999 96.6774C222.943 96.7746 222.222 97.5239 220.973 98.2593C220.071 98.7867 219.308 99.1336 218.447 99.3278L218.572 98.7728C218.669 98.7311 219.113 98.634 220.432 98.0928C222.763 97.1215 222.874 96.7191 222.999 96.6636V96.6774Z" fill="#227986"/>
<path d="M211.702 84.5493C211.702 84.5493 217.1 86.7556 220.43 85.0904C222.179 84.2162 220.43 89.5309 221.124 90.419C221.374 90.7381 223.095 89.739 223.095 89.739C223.095 89.739 224.316 92.9445 223.997 96.025L225.135 97.4959C227.466 96.6772 226.481 93.9574 226.481 93.9574C226.481 93.9574 228.035 92.5559 227.091 91.2377C227.091 91.2377 229.506 89.0868 227.147 87.5327C227.147 87.5327 228.853 84.7158 226.605 84.5076C227.271 82.8286 225.579 81.996 225.579 81.996C225.44 80.0533 223.4 80.1643 223.4 80.1643C223.247 78.402 220.694 79.1236 220.694 79.1236C219.265 77.6111 217.308 79.1514 217.308 79.1514C215.06 78.1661 214.2 80.206 214.2 80.206C209.066 80.0533 211.674 84.5493 211.674 84.5493H211.702Z" fill="#227986"/>
<path d="M249.293 144.898C244.603 144.898 243.534 155.042 236.86 125.485C236.402 123.431 237.914 123.931 237.817 123.431C236.18 114.079 234.098 106.363 237.651 104.754C237.984 104.601 238.803 104.212 239.51 104.407C241.425 104.92 248.003 112.025 250.778 120.85C256.37 138.64 254.538 143.288 250.056 144.787C249.806 144.87 249.543 144.912 249.279 144.912L249.293 144.898Z" fill="#67D5C4"/>
<path d="M250.181 121.018C256.023 139.598 256.356 145.884 245.643 146.592C241.952 146.828 240.759 135.102 237.47 125.278C234.181 115.439 233.418 106.1 236.623 104.227C237.872 103.492 239.274 104.671 239.621 104.754C241.272 105.185 247.378 112.026 250.194 121.018H250.181Z" fill="#3DBBB2"/>
<path d="M222.872 91.2372C223.408 91.2372 223.843 90.5787 223.843 89.7663C223.843 88.954 223.408 88.2954 222.872 88.2954C222.335 88.2954 221.9 88.954 221.9 89.7663C221.9 90.5787 222.335 91.2372 222.872 91.2372Z" fill="#2E9DA0"/>
<path d="M245 227.559C245 227.559 232.331 223.577 228.709 221.218C225.088 218.859 223.464 215.695 223.464 215.695L149.434 217.235C149.434 217.235 156.677 228.281 158.301 229.363C159.924 230.445 162.63 230.987 162.63 230.987L245 227.545V227.559Z" fill="#DAD8FE"/>
<path d="M169.138 178.839L188.079 212.919L191.257 211.157L172.316 177.077L171.15 177.729L165.239 167.072L164.184 167.655C164.184 167.655 164.059 167.724 164.018 167.779L169.929 178.409L169.152 178.839H169.138Z" fill="#B30000"/>
<path d="M170.436 173.712L169.271 174.358L190.078 211.818L191.243 211.171L170.436 173.712Z" fill="#DA1F1F"/>
<path d="M168.038 175.039L167.262 175.471L188.069 212.93L188.845 212.499L168.038 175.039Z" fill="#850000"/>
<path d="M188.081 212.92L188.858 213.711L191.426 216.278L192.341 215.764L191.578 212.476L191.273 211.144C191.273 211.144 190.44 209.839 190.08 210.144C189.719 210.45 190.01 211.546 189.982 211.49C189.955 211.435 189.136 210.672 188.9 210.783C188.664 210.894 188.692 211.601 188.872 212.087C188.872 212.087 188.081 210.963 187.734 211.324C187.401 211.685 188.081 212.906 188.081 212.906V212.92Z" fill="#F3DCAC"/>
<path d="M191.424 216.278L192.77 217.624L192.34 215.764L191.424 216.278Z" fill="#30261A"/>
<path d="M163.546 168.779L166.89 174.788L167.667 174.357L164.004 167.766C163.588 168.058 163.393 168.488 163.546 168.779Z" fill="#001E3E"/>
<path d="M165.24 167.072L168.917 173.677L170.083 173.025L166.739 167.003C166.558 166.67 165.99 166.656 165.462 166.947L165.24 167.072Z" fill="#004A86"/>
<path d="M164.004 167.766L167.667 174.357L168.902 173.677L165.225 167.072L164.171 167.655C164.171 167.655 164.046 167.724 163.99 167.766H164.004Z" fill="#003068"/>
<path d="M167.661 174.37L166.885 174.801L167.255 175.468L168.032 175.037L167.661 174.37Z" fill="#AFAFAF"/>
<path d="M170.067 173.038L168.902 173.685L169.273 174.352L170.437 173.705L170.067 173.038Z" fill="#E1E1E1"/>
<path d="M168.901 173.688L167.664 174.375L168.035 175.043L169.272 174.355L168.901 173.688Z" fill="#C9C7C7"/>
<path d="M90.1274 56.7011C90.1274 56.7011 93.7491 56.1599 95.1923 62.3071C96.6354 68.4544 91.7509 72.1177 89.9331 90.3929C89.9331 90.3929 100.673 113.455 95.4559 121.545C84.1467 139.057 73.0178 133.493 63.2488 127.693C53.4799 121.906 20.0794 105.019 21.5365 92.1691C22.9796 79.3196 48.4983 56.5068 53.3966 53.9813C58.2811 51.4419 90.1413 56.7011 90.1413 56.7011H90.1274Z" fill="#242D3A"/>
<path d="M44.3072 121.545H56.7266V104.436H44.3072V121.545Z" fill="#F79B67"/>
<path d="M112.383 226.851H4.36914C7.10279 189.538 6.95015 163.645 11.5987 144.148C13.2361 137.293 14.6238 128.801 24.4205 118.352C27.9729 114.564 33.0377 114.855 35.5077 114.605C48.1769 113.329 58.6396 120.489 61.6924 122.64C76.3736 132.978 80.1064 148.145 90.3749 175.259C95.0929 187.706 102.267 205.51 112.411 226.851H112.383Z" fill="#FDD4D4"/>
<path d="M95.4682 226.324L95.3017 226.282C94.7189 226.13 79.5381 222.924 66.2446 211.712C55.6152 202.748 43.9868 183.946 44.9859 161.48C45.652 146.368 44.6807 137.446 49.8427 137.446C50.4255 137.446 51.5078 137.501 52.1184 137.723C57.7661 139.805 76.2633 152.765 87.9056 165.906C99.5062 179.019 116.907 198.932 117.074 199.126L117.698 199.848L117.657 200.93C117.643 201.43 117.101 213.308 111.565 219.802C106.056 226.255 96.0649 226.338 95.6486 226.338H95.4821L95.4682 226.324Z" fill="#FCABB0"/>
<path d="M115.895 200.791C115.895 200.791 115.451 212.17 110.372 218.123C109.928 218.636 109.442 219.122 108.943 219.552C103.684 224.062 98.6881 224.076 98.6881 224.076C98.6881 224.076 70.2693 217.721 54.3947 197.475L54.367 197.447C46.6795 187.623 41.2122 174.537 41.9754 157.317C42.3223 149.532 43.3908 143.052 45.2779 139.458C46.5823 136.946 48.303 135.822 50.4538 136.613C51.2864 136.918 52.4798 137.585 53.9229 138.528C53.9507 138.556 53.9646 138.556 53.9923 138.57C53.9923 138.57 54.0201 138.597 54.0339 138.597C61.7769 143.648 76.9161 156.526 86.7405 167.613C98.4661 180.851 115.909 200.819 115.909 200.819L115.895 200.791Z" fill="#FDD4D4"/>
<path d="M183.041 224.937C184.817 224.91 186.066 224.23 186.912 223.328C187.592 224.244 188.522 224.937 189.771 224.937C189.91 224.937 190.048 224.937 190.201 224.91C191.103 224.799 191.727 224.396 192.158 223.952C192.81 224.535 193.629 224.923 194.586 224.923C194.753 224.923 194.919 224.923 195.086 224.896C196.126 224.757 196.751 224.188 197.112 223.605C197.694 224.049 198.36 224.368 199.054 224.368C199.401 224.368 199.748 224.285 200.067 224.133C200.886 223.73 201.427 222.87 201.621 221.704C202.065 219.026 200.525 215.335 198.763 213.059C195.197 208.452 193.337 207.703 189.105 206.315C187.773 205.871 185.733 205.663 183.055 205.663C178.42 205.663 172.412 206.357 171.787 206.621L170.594 207.134L170.816 208.73C170.968 209.757 172.273 218.901 173.216 221.357C174.424 224.521 178.462 224.951 182.25 224.951C182.25 224.951 182.777 224.951 183.027 224.951L183.041 224.937Z" fill="#B26B4D"/>
<path d="M172.26 208.383C172.649 208.217 184.43 206.704 188.745 208.12C192.728 209.424 194.337 209.979 197.723 214.364C199.916 217.209 201.067 221.621 199.541 222.371C198.015 223.12 196.03 219.845 196.03 219.845C196.03 219.845 197.015 222.745 194.934 223.023C192.367 223.37 191.59 219.873 191.59 219.873C191.59 219.873 192.45 222.731 190.049 223.037C187.649 223.342 186.997 219.748 186.997 219.748C186.997 219.748 186.664 223.009 183.014 223.064C179.365 223.12 175.396 222.829 174.522 220.525C173.648 218.222 172.246 208.383 172.246 208.383H172.26Z" fill="#F79B67"/>
<path d="M97.2431 226.325L96.7852 224.979C107.456 220.317 110.315 211.949 112.105 204.747C113.909 197.476 113.27 196.907 114.602 196.311C115.255 195.978 116.587 194.854 128.964 194.854C134.515 194.854 140.44 195.27 147.032 196.311C161.588 198.614 174.451 200.612 174.604 200.64L176.061 200.917L176.103 202.805C176.103 202.805 176.255 209.063 176.838 214.724C177.407 220.233 177.698 223.8 177.712 223.841L177.92 226.339H97.2569L97.2431 226.325Z" fill="#FCABB0"/>
<path d="M174.339 202.86C174.339 202.86 174.478 209.16 175.088 215.016C175.657 220.566 175.949 224.077 175.949 224.077H98.3937C98.3937 224.077 95.8682 216.709 97.4779 210.228C99.0876 203.748 109.495 199.113 109.495 199.113C109.495 199.113 119.569 193.743 145.56 197.864C160.255 200.196 174.325 202.874 174.325 202.874L174.339 202.86Z" fill="#FDD4D4"/>
<path d="M35.8828 76.5421C35.8828 95.7332 43.9866 102.047 59.0009 111.969C74.2094 122.015 86.934 110.081 92.7204 91.7784C99.2423 71.1442 96.2312 53.0078 78.2474 53.0078C60.2636 53.0078 35.8967 57.3511 35.8967 76.5421H35.8828Z" fill="#F79B67"/>
<path d="M95.3856 58.7669C95.3856 58.7669 90.5427 63.5265 84.3955 68.0502C78.2482 72.5739 72.323 75.4185 64.6633 76.9172C57.739 78.2771 40.6988 75.8903 42.5166 80.7887C44.3344 85.687 49.7462 100.41 50.1902 106.058C51.9941 129.134 14.7638 108.139 4.25941 130.813C1.65065 136.461 -7.41062 100.41 13.0848 82.2179C20.5503 75.585 32.2758 74.0309 32.2758 74.0309C32.2758 74.0309 25.2127 40.1864 58.3356 42.5315C78.0123 43.933 95.3856 58.7669 95.3856 58.7669Z" fill="#242D3A"/>
<path d="M45.9567 82.288C48.1409 82.288 49.9115 80.5173 49.9115 78.3332C49.9115 76.149 48.1409 74.3784 45.9567 74.3784C43.7726 74.3784 42.002 76.149 42.002 78.3332C42.002 80.5173 43.7726 82.288 45.9567 82.288Z" fill="#F79B67"/>
<path d="M90.5438 91.487C91.8926 91.487 92.986 90.3936 92.986 89.0448C92.986 87.696 91.8926 86.6025 90.5438 86.6025C89.195 86.6025 88.1016 87.696 88.1016 89.0448C88.1016 90.3936 89.195 91.487 90.5438 91.487Z" fill="#242D3A"/>
<path d="M81.0653 87.5329C82.4141 87.5329 83.5075 86.4395 83.5075 85.0907C83.5075 83.7419 82.4141 82.6484 81.0653 82.6484C79.7165 82.6484 78.623 83.7419 78.623 85.0907C78.623 86.4395 79.7165 87.5329 81.0653 87.5329Z" fill="#242D3A"/>
<path d="M97.3418 85.3116C97.3418 85.3116 96.9394 83.4661 95.524 82.4392C93.7062 81.1348 91.375 81.7593 91.375 81.7593" stroke="#242D3A" stroke-width="0.693819" stroke-miterlimit="10" stroke-linecap="round"/>
<path d="M83.6882 78.9701C83.6882 78.9701 82.3977 77.5825 80.6631 77.4298C78.4429 77.2356 76.75 78.9562 76.75 78.9562" stroke="#242D3A" stroke-width="0.693819" stroke-miterlimit="10" stroke-linecap="round"/>
<path d="M69.0071 92.916C71.9806 92.916 74.3911 90.5055 74.3911 87.532C74.3911 84.5585 71.9806 82.1479 69.0071 82.1479C66.0336 82.1479 63.623 84.5585 63.623 87.532C63.623 90.5055 66.0336 92.916 69.0071 92.916Z" fill="#F48062"/>
<path d="M79.8303 106.363C76.6665 106.654 74.0023 104.892 72.6562 103.019C73.128 104.933 74.6822 105.905 75.6258 106.321C77.5962 107.209 79.8303 106.349 79.8303 106.349V106.363Z" fill="#B26B4D"/>
</g>
<defs>
<clipPath id="clip0_1_8393">
<rect width="339.139" height="231" fill="white"/>
</clipPath>
</defs>
</svg>
