<svg width="354" height="231" viewBox="0 0 354 231" fill="none" xmlns="http://www.w3.org/2000/svg">
<g clip-path="url(#clip0_1_8857)">
<g opacity="0.5">
<g opacity="0.5">
<path opacity="0.5" d="M124.517 183.431H129.666H148.64" stroke="#231F20" stroke-width="0.709205" stroke-miterlimit="10"/>
<path opacity="0.5" d="M148.64 96.6738H128.688L126.888 99.0934H131.799V104.803H129.666H124.517" stroke="#231F20" stroke-width="0.709205" stroke-miterlimit="10"/>
<path opacity="0.5" d="M148.641 74.9697V79.7015L129.272 84.9458V80.214L136.4 78.2832L140.607 77.139L148.641 74.9697Z" stroke="#231F20" stroke-width="0.709205" stroke-miterlimit="10"/>
<path opacity="0.5" d="M75.757 112.538L111.967 102.729V103.694V104.802H113.683H114.815V107.973L113.683 108.283L73.54 119.153" stroke="#231F20" stroke-width="0.709205" stroke-miterlimit="10"/>
<path opacity="0.5" d="M113.349 142.907L73.54 153.681" stroke="#231F20" stroke-width="0.709205" stroke-miterlimit="10"/>
<path opacity="0.5" d="M111.967 137.258L73.54 147.663" stroke="#231F20" stroke-width="0.709205" stroke-miterlimit="10"/>
<path opacity="0.5" d="M131.799 99.0933V104.802H111.966V99.0933H117.305L117.854 99.8322H126.352L126.888 99.0933H131.799Z" stroke="#231F20" stroke-width="0.709205" stroke-miterlimit="10"/>
<path opacity="0.5" d="M131.799 137.198H111.966V142.907H131.799V137.198Z" stroke="#231F20" stroke-width="0.709205" stroke-miterlimit="10"/>
<path opacity="0.5" d="M111.966 103.694V104.803H113.682H114.814V107.973V136.495V137.198" stroke="#231F20" stroke-width="0.709205" stroke-miterlimit="10"/>
<path opacity="0.5" d="M114.815 142.907V183.431V183.574H73.54" stroke="#231F20" stroke-width="0.709205" stroke-miterlimit="10"/>
<path opacity="0.5" d="M114.814 183.431H124.516H129.665V142.907" stroke="#231F20" stroke-width="0.709205" stroke-miterlimit="10"/>
<path opacity="0.5" d="M129.666 137.198V104.802H124.517H117.699" stroke="#231F20" stroke-width="0.709205" stroke-miterlimit="10"/>
<path opacity="0.5" d="M114.815 107.973V104.802H113.683" stroke="#231F20" stroke-width="0.709205" stroke-miterlimit="10"/>
<path opacity="0.5" d="M73.5398 115.519V115.53V119.154V147.664V153.683V183.575V183.909H65.0654V182.956V178.748V153.278V149.07V124.589V120.393V115.53" stroke="#231F20" stroke-width="0.709205" stroke-miterlimit="10"/>
<path opacity="0.5" d="M77.4842 109.607C77.6511 109.702 77.6987 109.929 77.5795 110.084L75.756 112.551L73.5629 115.519H65.0528L61.0242 110.084C60.905 109.929 60.9527 109.702 61.1196 109.607L62.1208 109.011L65.0528 107.283H73.5391L76.4711 109.011L77.4723 109.607H77.4842Z" stroke="#231F20" stroke-width="0.709205" stroke-miterlimit="10"/>
<path opacity="0.5" d="M73.551 115.505V115.529H73.5039L73.5392 115.517L73.551 115.505Z" stroke="#231F20" stroke-width="0.709205" stroke-miterlimit="10"/>
<path opacity="0.5" d="M78.7478 92.6094L76.4236 95.3269H71.0721L71.0125 95.2673C70.5715 94.8263 69.9636 94.5522 69.2961 94.5522C68.6287 94.5522 67.9731 94.8382 67.5321 95.315H62.1686C61.3939 94.4091 60.6192 93.5033 59.8445 92.5975C59.6776 92.3948 59.7372 92.0969 59.9636 91.9777L64.3975 89.7012H74.159L78.5929 91.9777C78.8313 92.0969 78.8789 92.3948 78.7121 92.5975L78.7478 92.6094Z" stroke="#231F20" stroke-width="0.709205" stroke-miterlimit="10"/>
<path opacity="0.5" d="M76.4714 95.3154V109.01L73.5394 107.282H65.0531L62.1211 109.01V95.3154H67.5323C67.1151 95.7445 66.8648 96.3285 66.8648 96.9722V105.101H71.7158V96.9722C71.7158 96.3285 71.4774 95.7445 71.0603 95.3154H76.4595H76.4714Z" stroke="#231F20" stroke-width="0.709205" stroke-miterlimit="10"/>
<path opacity="0.5" d="M78.2588 85.0416C78.2588 87.0916 76.2326 88.8556 73.2648 89.7018H65.3387C62.3829 88.8556 60.3447 87.0797 60.3447 85.0416C60.3447 82.1572 64.3495 79.833 69.2958 79.833C74.2421 79.833 78.2469 82.1572 78.2469 85.0416H78.2588Z" stroke="#231F20" stroke-width="0.709205" stroke-miterlimit="10"/>
<path opacity="0.5" d="M69.3086 79.8327V73.1343" stroke="#231F20" stroke-width="0.709205" stroke-miterlimit="10"/>
<path opacity="0.5" d="M130.285 93.9085C130.452 94.0038 130.5 94.2303 130.38 94.3852L128.688 96.6736L126.888 99.1051L126.352 99.8441H117.854L117.317 99.1051L113.825 94.3852C113.706 94.2303 113.753 94.0157 113.92 93.9085L114.933 93.3125L117.854 91.5962H126.352L129.272 93.3125L130.285 93.9085V93.9085Z" stroke="#231F20" stroke-width="0.709205" stroke-miterlimit="10"/>
<path opacity="0.5" d="M129.272 79.6294V93.3123L126.352 91.596H117.854L114.934 93.3123V79.6294H119.844C119.737 79.9154 119.665 80.2253 119.665 80.5472V88.6758H124.516V80.5472C124.516 80.2253 124.457 79.9035 124.326 79.6294H129.26H129.272Z" stroke="#231F20" stroke-width="0.709205" stroke-miterlimit="10"/>
<path opacity="0.5" d="M131.537 76.9005L129.213 79.6299H124.326C124.207 79.3319 124.016 79.0697 123.801 78.8433C123.36 78.4023 122.752 78.1281 122.085 78.1281C121.072 78.1281 120.214 78.7479 119.832 79.6299H114.969L112.312 76.5191L117.198 74.0161H126.972L131.406 76.2807C131.644 76.3999 131.692 76.6979 131.525 76.9005H131.537Z" stroke="#231F20" stroke-width="0.709205" stroke-miterlimit="10"/>
<path opacity="0.5" d="M131.049 69.3438C131.049 71.3939 129.011 73.1817 126.043 74.0041H118.152C115.185 73.1579 113.146 71.3939 113.146 69.3438C113.146 66.4594 117.151 64.1353 122.098 64.1353C127.044 64.1353 131.049 66.4594 131.049 69.3438V69.3438Z" stroke="#231F20" stroke-width="0.709205" stroke-miterlimit="10"/>
<path opacity="0.5" d="M122.097 64.1473V57.437" stroke="#231F20" stroke-width="0.709205" stroke-miterlimit="10"/>
<path opacity="0.5" d="M138.509 67.5681V62.6694" stroke="#231F20" stroke-width="0.709205" stroke-miterlimit="10"/>
<path opacity="0.5" d="M65.0654 120.392H27.4971" stroke="#231F20" stroke-width="0.709205" stroke-miterlimit="10"/>
<path opacity="0.5" d="M15.3633 124.588H65.0651" stroke="#231F20" stroke-width="0.709205" stroke-miterlimit="10"/>
<path opacity="0.5" d="M65.0654 149.068H27.4971" stroke="#231F20" stroke-width="0.709205" stroke-miterlimit="10"/>
<path opacity="0.5" d="M0 153.276H65.0652" stroke="#231F20" stroke-width="0.709205" stroke-miterlimit="10"/>
<path opacity="0.5" d="M12.1338 178.749H65.0656" stroke="#231F20" stroke-width="0.709205" stroke-miterlimit="10"/>
<path opacity="0.5" d="M65.0654 182.955H27.4971" stroke="#231F20" stroke-width="0.709205" stroke-miterlimit="10"/>
<path opacity="0.5" d="M148.641 79.7017V96.6742H128.688L130.345 94.4334C130.476 94.2546 130.429 93.9924 130.238 93.8851L129.272 93.313V84.9579L148.641 79.7136V79.7017Z" stroke="#231F20" stroke-width="0.709205" stroke-miterlimit="10"/>
<path opacity="0.5" d="M148.641 64.7188V79.7008" stroke="#231F20" stroke-width="0.709205" stroke-miterlimit="10"/>
<path opacity="0.5" d="M148.641 183.431V96.6738" stroke="#231F20" stroke-width="0.709205" stroke-miterlimit="10"/>
<path opacity="0.5" d="M124.516 80.5475V88.6761H119.665V80.5475C119.665 80.2257 119.725 79.9038 119.844 79.6297C120.213 78.7477 121.083 78.1279 122.096 78.1279C122.764 78.1279 123.372 78.4021 123.813 78.8431C124.027 79.0695 124.218 79.3317 124.337 79.6297C124.456 79.9158 124.528 80.2257 124.528 80.5475H124.516Z" stroke="#231F20" stroke-width="0.709205" stroke-miterlimit="10"/>
<path opacity="0.5" d="M71.7279 96.984V105.113H66.877V96.984C66.877 96.3404 67.1272 95.7564 67.5444 95.3273C67.9854 94.8505 68.6171 94.5645 69.3084 94.5645C69.9997 94.5645 70.5837 94.8386 71.0247 95.2796L71.0843 95.3392C71.5015 95.7683 71.7399 96.3523 71.7399 96.9959L71.7279 96.984Z" stroke="#231F20" stroke-width="0.709205" stroke-miterlimit="10"/>
<path opacity="0.5" d="M138.509 111.608C141.656 111.608 144.218 114.171 144.218 117.318V139.963H132.8V117.318C132.8 114.171 135.362 111.608 138.509 111.608V111.608Z" stroke="#231F20" stroke-width="0.709205" stroke-miterlimit="10"/>
<path opacity="0.5" d="M138.509 150.225C141.656 150.225 144.218 152.788 144.218 155.934V178.58H132.8V155.934C132.8 152.788 135.362 150.225 138.509 150.225V150.225Z" stroke="#231F20" stroke-width="0.709205" stroke-miterlimit="10"/>
<path opacity="0.5" d="M35.0534 129.784C38.1285 129.784 40.6195 132.275 40.6195 135.35V149.069H29.4873V135.35C29.4873 132.275 31.9784 129.784 35.0534 129.784V129.784Z" stroke="#231F20" stroke-width="0.709205" stroke-miterlimit="10"/>
<path opacity="0.5" d="M52.8483 129.784C55.9234 129.784 58.4145 132.275 58.4145 135.35V149.069H47.2822V135.35C47.2822 132.275 49.7733 129.784 52.8483 129.784Z" stroke="#231F20" stroke-width="0.709205" stroke-miterlimit="10"/>
<path opacity="0.5" d="M35.0896 159.451C38.1646 159.451 40.6557 161.942 40.6557 165.017V178.736H29.5234V165.017C29.5234 161.942 32.0145 159.451 35.0896 159.451V159.451Z" stroke="#231F20" stroke-width="0.709205" stroke-miterlimit="10"/>
<path opacity="0.5" d="M52.8835 159.451C55.9586 159.451 58.4496 161.942 58.4496 165.017V178.736H47.3174V165.017C47.3174 161.942 49.8084 159.451 52.8835 159.451V159.451Z" stroke="#231F20" stroke-width="0.709205" stroke-miterlimit="10"/>
<path opacity="0.5" d="M75.0654 142.681V128.927C75.0654 126.876 76.7222 125.22 78.7722 125.22C79.7972 125.22 80.715 125.637 81.3944 126.304C82.0737 126.972 82.479 127.901 82.479 128.927V140.679L75.0654 142.681V142.681Z" stroke="#231F20" stroke-width="0.709205" stroke-miterlimit="10"/>
<path opacity="0.5" d="M89.5227 138.771V123.17C89.5227 121.251 91.0721 119.701 92.9911 119.701C93.9565 119.701 94.8266 120.094 95.4464 120.714C96.0781 121.334 96.4595 122.204 96.4595 123.17V136.888L89.5107 138.771H89.5227Z" stroke="#231F20" stroke-width="0.709205" stroke-miterlimit="10"/>
<path opacity="0.5" d="M103.969 134.85V119.391C103.969 117.508 105.494 115.982 107.378 115.982C108.319 115.982 109.177 116.363 109.785 116.971C110.405 117.591 110.786 118.437 110.786 119.379V132.99L103.969 134.838V134.85Z" stroke="#231F20" stroke-width="0.709205" stroke-miterlimit="10"/>
<path opacity="0.5" d="M82.479 164.826V178.533H75.0654V164.826C75.0654 162.776 76.7222 161.119 78.7722 161.119C79.7972 161.119 80.715 161.536 81.3944 162.204C82.0737 162.871 82.479 163.801 82.479 164.826V164.826Z" stroke="#231F20" stroke-width="0.709205" stroke-miterlimit="10"/>
<path opacity="0.5" d="M96.4595 159.07V178.533H89.5107V159.07C89.5107 157.151 91.0602 155.602 92.9791 155.602C93.9446 155.602 94.8146 155.995 95.4344 156.615C96.0661 157.234 96.4475 158.105 96.4475 159.07H96.4595Z" stroke="#231F20" stroke-width="0.709205" stroke-miterlimit="10"/>
<path opacity="0.5" d="M110.786 155.291V178.533H103.969V155.291C103.969 153.408 105.494 151.882 107.378 151.882C108.319 151.882 109.177 152.264 109.785 152.872C110.405 153.491 110.786 154.338 110.786 155.279V155.291Z" stroke="#231F20" stroke-width="0.709205" stroke-miterlimit="10"/>
<path opacity="0.5" d="M85.7793 183.575V113.646" stroke="#231F20" stroke-width="0.709205" stroke-miterlimit="10"/>
<path opacity="0.5" d="M99.7012 183.574V110.082" stroke="#231F20" stroke-width="0.709205" stroke-miterlimit="10"/>
<path opacity="0.5" d="M140.607 77.1391V69.666C140.607 69.082 140.369 68.5575 139.987 68.1642C139.606 67.7828 139.081 67.5444 138.497 67.5444C137.329 67.5444 136.388 68.486 136.388 69.6541V78.2595" stroke="#231F20" stroke-width="0.709205" stroke-miterlimit="10"/>
</g>
<g opacity="0.5">
<path opacity="0.5" d="M205.137 183.431H224.124H229.261" stroke="#231F20" stroke-width="0.709205" stroke-miterlimit="10"/>
<path opacity="0.5" d="M229.261 104.803H224.124H221.99V99.0934H226.889L225.101 96.6738H205.137" stroke="#231F20" stroke-width="0.709205" stroke-miterlimit="10"/>
<path opacity="0.5" d="M205.137 74.9697V79.7015L224.517 84.9458V80.214L217.389 78.2832L213.17 77.139L205.137 74.9697Z" stroke="#231F20" stroke-width="0.709205" stroke-miterlimit="10"/>
<path opacity="0.5" d="M280.237 119.153L240.106 108.283L238.962 107.973V104.802H240.106H241.822V103.694V102.729L278.02 112.538" stroke="#231F20" stroke-width="0.709205" stroke-miterlimit="10"/>
<path opacity="0.5" d="M280.238 153.681L240.44 142.907" stroke="#231F20" stroke-width="0.709205" stroke-miterlimit="10"/>
<path opacity="0.5" d="M280.238 147.663L241.823 137.258" stroke="#231F20" stroke-width="0.709205" stroke-miterlimit="10"/>
<path opacity="0.5" d="M221.99 99.0933V104.802H241.823V99.0933H236.472L235.935 99.8322H227.437L226.889 99.0933H221.99Z" stroke="#231F20" stroke-width="0.709205" stroke-miterlimit="10"/>
<path opacity="0.5" d="M221.99 142.907H241.823V137.198H221.99V142.907Z" stroke="#231F20" stroke-width="0.709205" stroke-miterlimit="10"/>
<path opacity="0.5" d="M238.962 137.198V136.495V107.973V104.803H240.106H241.822V103.694" stroke="#231F20" stroke-width="0.709205" stroke-miterlimit="10"/>
<path opacity="0.5" d="M280.237 183.574H238.962V183.431V142.907" stroke="#231F20" stroke-width="0.709205" stroke-miterlimit="10"/>
<path opacity="0.5" d="M224.123 142.907V183.431H229.26H238.962" stroke="#231F20" stroke-width="0.709205" stroke-miterlimit="10"/>
<path opacity="0.5" d="M236.09 104.802H229.26H224.123V137.198" stroke="#231F20" stroke-width="0.709205" stroke-miterlimit="10"/>
<path opacity="0.5" d="M240.106 104.802H238.962V107.973" stroke="#231F20" stroke-width="0.709205" stroke-miterlimit="10"/>
<path opacity="0.5" d="M288.712 115.53V120.393V124.589V149.07V153.278V178.748V182.956V183.909H280.237V183.575V153.683V147.664V119.154V115.53V115.519" stroke="#231F20" stroke-width="0.709205" stroke-miterlimit="10"/>
<path opacity="0.5" d="M276.304 109.607C276.137 109.702 276.09 109.929 276.209 110.084L278.032 112.551L280.225 115.519H288.736L292.764 110.084C292.883 109.929 292.836 109.702 292.669 109.607L291.668 109.011L288.736 107.283H280.249L277.317 109.011L276.316 109.607H276.304Z" stroke="#231F20" stroke-width="0.709205" stroke-miterlimit="10"/>
<path opacity="0.5" d="M280.226 115.505L280.237 115.529H280.273L280.237 115.517L280.226 115.505Z" stroke="#231F20" stroke-width="0.709205" stroke-miterlimit="10"/>
<path opacity="0.5" d="M291.656 95.3154V109.01L288.724 107.282H280.238L277.306 109.01V95.3154H282.717C282.3 95.7445 282.049 96.3285 282.049 96.9722V105.101H286.9V96.9722C286.9 96.3285 286.65 95.7445 286.233 95.3154H291.644H291.656Z" stroke="#231F20" stroke-width="0.709205" stroke-miterlimit="10"/>
<path opacity="0.5" d="M293.92 92.6095L291.596 95.327H286.233C285.792 94.8502 285.16 94.5642 284.469 94.5642C283.777 94.5642 283.193 94.8383 282.752 95.2793C282.741 95.2912 282.717 95.3151 282.705 95.3389H277.341L275.029 92.6214C274.862 92.4188 274.922 92.1208 275.148 92.0016L279.582 89.7251H289.356L293.789 92.0016C294.028 92.1208 294.075 92.4188 293.909 92.6214L293.92 92.6095Z" stroke="#231F20" stroke-width="0.709205" stroke-miterlimit="10"/>
<path opacity="0.5" d="M293.432 85.0416C293.432 87.0916 291.405 88.8556 288.438 89.7018H280.512C277.556 88.8556 275.518 87.0916 275.518 85.0416C275.518 82.1572 279.522 79.833 284.469 79.833C289.415 79.833 293.42 82.1572 293.42 85.0416H293.432Z" stroke="#231F20" stroke-width="0.709205" stroke-miterlimit="10"/>
<path opacity="0.5" d="M284.481 79.8327V73.1343" stroke="#231F20" stroke-width="0.709205" stroke-miterlimit="10"/>
<path opacity="0.5" d="M223.503 93.9085C223.336 94.0038 223.289 94.2303 223.408 94.3852L225.1 96.6736L226.9 99.1051L227.437 99.8441H235.935L236.471 99.1051L239.963 94.3852C240.083 94.2303 240.035 94.0157 239.868 93.9085L238.855 93.3125L235.935 91.5962H227.437L224.516 93.3125L223.503 93.9085V93.9085Z" stroke="#231F20" stroke-width="0.709205" stroke-miterlimit="10"/>
<path opacity="0.5" d="M238.856 79.6294V93.3123L235.936 91.596H227.438L224.518 93.3123V79.6294H229.44C229.333 79.9154 229.261 80.2253 229.261 80.5472V88.6758H234.112V80.5472C234.112 80.2253 234.053 79.9035 233.934 79.6294H238.844H238.856Z" stroke="#231F20" stroke-width="0.709205" stroke-miterlimit="10"/>
<path opacity="0.5" d="M241.12 76.9005L238.796 79.6299H233.933C233.563 78.7479 232.693 78.1281 231.68 78.1281C231.012 78.1281 230.405 78.4023 229.964 78.8433C229.737 79.0697 229.558 79.3319 229.427 79.6299H224.552L222.228 76.9005C222.061 76.6979 222.121 76.3999 222.347 76.2807L226.781 74.0161H236.555L240.989 76.2807C241.227 76.3999 241.275 76.6979 241.108 76.9005H241.12Z" stroke="#231F20" stroke-width="0.709205" stroke-miterlimit="10"/>
<path opacity="0.5" d="M222.741 69.3438C222.741 71.3939 224.779 73.1817 227.747 74.0041H235.637C238.605 73.1579 240.643 71.3939 240.643 69.3438C240.643 66.4594 236.639 64.1353 231.692 64.1353C226.746 64.1353 222.741 66.4594 222.741 69.3438V69.3438Z" stroke="#231F20" stroke-width="0.709205" stroke-miterlimit="10"/>
<path opacity="0.5" d="M231.681 64.1473V57.437" stroke="#231F20" stroke-width="0.709205" stroke-miterlimit="10"/>
<path opacity="0.5" d="M215.269 62.6694V67.5681" stroke="#231F20" stroke-width="0.709205" stroke-miterlimit="10"/>
<path opacity="0.5" d="M326.292 120.392H288.712" stroke="#231F20" stroke-width="0.709205" stroke-miterlimit="10"/>
<path opacity="0.5" d="M288.712 124.588H338.414" stroke="#231F20" stroke-width="0.709205" stroke-miterlimit="10"/>
<path opacity="0.5" d="M326.292 149.068H288.712" stroke="#231F20" stroke-width="0.709205" stroke-miterlimit="10"/>
<path opacity="0.5" d="M288.712 153.276H353.777" stroke="#231F20" stroke-width="0.709205" stroke-miterlimit="10"/>
<path opacity="0.5" d="M288.712 178.749H341.644" stroke="#231F20" stroke-width="0.709205" stroke-miterlimit="10"/>
<path opacity="0.5" d="M326.292 182.955H288.712" stroke="#231F20" stroke-width="0.709205" stroke-miterlimit="10"/>
<path opacity="0.5" d="M205.137 79.7017V96.6742H225.089L223.385 94.3738C223.277 94.2308 223.313 94.0162 223.48 93.9209L224.505 93.313V84.9579L205.137 79.7136V79.7017Z" stroke="#231F20" stroke-width="0.709205" stroke-miterlimit="10"/>
<path opacity="0.5" d="M205.137 79.7008V64.7188" stroke="#231F20" stroke-width="0.709205" stroke-miterlimit="10"/>
<path opacity="0.5" d="M205.137 96.6738V183.431" stroke="#231F20" stroke-width="0.709205" stroke-miterlimit="10"/>
<path opacity="0.5" d="M234.112 80.5475V88.6761H229.261V80.5475C229.261 80.2257 229.32 79.9038 229.44 79.6297C229.571 79.3317 229.749 79.0695 229.976 78.8431C230.417 78.4021 231.025 78.1279 231.692 78.1279C232.705 78.1279 233.563 78.7477 233.945 79.6297C234.052 79.9158 234.124 80.2257 234.124 80.5475H234.112Z" stroke="#231F20" stroke-width="0.709205" stroke-miterlimit="10"/>
<path opacity="0.5" d="M286.913 96.9832V105.112H282.062V96.9832C282.062 96.3396 282.312 95.7556 282.729 95.3265C282.741 95.3146 282.765 95.2907 282.777 95.2669C283.218 94.8259 283.826 94.5518 284.493 94.5518C285.16 94.5518 285.816 94.8378 286.257 95.3146C286.674 95.7436 286.924 96.3277 286.924 96.9713L286.913 96.9832Z" stroke="#231F20" stroke-width="0.709205" stroke-miterlimit="10"/>
<path opacity="0.5" d="M220.977 139.963H209.558V117.317C209.558 114.171 212.121 111.608 215.267 111.608C218.414 111.608 220.977 114.171 220.977 117.317V139.963V139.963Z" stroke="#231F20" stroke-width="0.709205" stroke-miterlimit="10"/>
<path opacity="0.5" d="M220.977 178.581H209.558V155.935C209.558 152.788 212.121 150.226 215.267 150.226C218.414 150.226 220.977 152.788 220.977 155.935V178.581V178.581Z" stroke="#231F20" stroke-width="0.709205" stroke-miterlimit="10"/>
<path opacity="0.5" d="M324.29 149.057H313.158V135.338C313.158 132.263 315.649 129.772 318.724 129.772C321.799 129.772 324.29 132.263 324.29 135.338V149.057V149.057Z" stroke="#231F20" stroke-width="0.709205" stroke-miterlimit="10"/>
<path opacity="0.5" d="M306.495 149.057H295.363V135.338C295.363 132.263 297.854 129.772 300.929 129.772C304.004 129.772 306.495 132.263 306.495 135.338V149.057Z" stroke="#231F20" stroke-width="0.709205" stroke-miterlimit="10"/>
<path opacity="0.5" d="M324.255 178.749H313.123V165.03C313.123 161.955 315.614 159.464 318.689 159.464C321.764 159.464 324.255 161.955 324.255 165.03V178.749V178.749Z" stroke="#231F20" stroke-width="0.709205" stroke-miterlimit="10"/>
<path opacity="0.5" d="M306.459 178.749H295.327V165.03C295.327 161.955 297.818 159.464 300.893 159.464C303.968 159.464 306.459 161.955 306.459 165.03V178.749V178.749Z" stroke="#231F20" stroke-width="0.709205" stroke-miterlimit="10"/>
<path opacity="0.5" d="M278.724 142.681L271.311 140.679V128.927C271.311 127.901 271.728 126.972 272.395 126.304C273.063 125.637 273.992 125.22 275.017 125.22C277.067 125.22 278.724 126.876 278.724 128.927V142.681V142.681Z" stroke="#231F20" stroke-width="0.709205" stroke-miterlimit="10"/>
<path opacity="0.5" d="M257.318 136.877V123.158C257.318 122.193 257.711 121.335 258.331 120.703C258.95 120.071 259.832 119.69 260.786 119.69C262.705 119.69 264.254 121.239 264.254 123.158V138.76L257.306 136.877H257.318Z" stroke="#231F20" stroke-width="0.709205" stroke-miterlimit="10"/>
<path opacity="0.5" d="M242.991 133.002V119.391C242.991 118.449 243.373 117.591 243.992 116.983C244.612 116.364 245.458 115.994 246.4 115.994C248.271 115.994 249.809 117.52 249.809 119.403V134.862L242.991 133.014V133.002Z" stroke="#231F20" stroke-width="0.709205" stroke-miterlimit="10"/>
<path opacity="0.5" d="M271.311 164.826V178.533H278.724V164.826C278.724 162.776 277.067 161.119 275.017 161.119C273.992 161.119 273.075 161.536 272.395 162.204C271.716 162.871 271.311 163.801 271.311 164.826V164.826Z" stroke="#231F20" stroke-width="0.709205" stroke-miterlimit="10"/>
<path opacity="0.5" d="M257.318 159.07V178.533H264.267V159.07C264.267 157.151 262.718 155.602 260.799 155.602C259.833 155.602 258.963 155.995 258.343 156.615C257.712 157.234 257.33 158.105 257.33 159.07H257.318Z" stroke="#231F20" stroke-width="0.709205" stroke-miterlimit="10"/>
<path opacity="0.5" d="M242.991 155.291V178.533H249.809V155.291C249.809 153.408 248.283 151.882 246.4 151.882C245.458 151.882 244.6 152.264 243.992 152.872C243.373 153.491 242.991 154.338 242.991 155.279V155.291Z" stroke="#231F20" stroke-width="0.709205" stroke-miterlimit="10"/>
<path opacity="0.5" d="M267.997 115.84V183.575" stroke="#231F20" stroke-width="0.709205" stroke-miterlimit="10"/>
<path opacity="0.5" d="M254.088 112.061V183.574" stroke="#231F20" stroke-width="0.709205" stroke-miterlimit="10"/>
<path opacity="0.5" d="M217.389 78.2825V69.677C217.389 68.509 216.448 67.5674 215.28 67.5674C214.696 67.5674 214.171 67.8058 213.79 68.1872C213.408 68.5805 213.17 69.1049 213.17 69.6889V77.1621" stroke="#231F20" stroke-width="0.709205" stroke-miterlimit="10"/>
</g>
<path opacity="0.5" d="M148.641 64.7183V183.43H205.148V64.7183H148.641V64.7183Z" stroke="#231F20" stroke-width="0.709205" stroke-miterlimit="10"/>
<path opacity="0.5" d="M191.596 87.4014H162.192C161.322 87.4014 160.619 88.1046 160.619 88.9747V183.432H193.158V88.9747C193.158 88.1046 192.455 87.4014 191.584 87.4014H191.596Z" stroke="#231F20" stroke-width="0.709205" stroke-miterlimit="10"/>
<path opacity="0.5" d="M176.889 146.185C183.372 146.185 188.641 151.453 188.641 157.937V183.432H165.148V157.937C165.148 151.453 170.417 146.185 176.9 146.185H176.889Z" stroke="#231F20" stroke-width="0.709205" stroke-miterlimit="10"/>
<path opacity="0.5" d="M193.157 125.219H205.136" stroke="#231F20" stroke-width="0.709205" stroke-miterlimit="10"/>
<path opacity="0.5" d="M148.641 125.219H160.619" stroke="#231F20" stroke-width="0.709205" stroke-miterlimit="10"/>
<path opacity="0.5" d="M193.157 167.066H205.136" stroke="#231F20" stroke-width="0.709205" stroke-miterlimit="10"/>
<path opacity="0.5" d="M148.641 167.066H160.619" stroke="#231F20" stroke-width="0.709205" stroke-miterlimit="10"/>
<g opacity="0.5">
<path opacity="0.5" d="M193.157 92.3955H199.534V96.6744" stroke="#231F20" stroke-width="0.709205" stroke-miterlimit="10"/>
<path opacity="0.5" d="M154.23 96.6744V92.3955H160.619" stroke="#231F20" stroke-width="0.709205" stroke-miterlimit="10"/>
</g>
<path opacity="0.5" d="M205.136 64.7193H148.641L141.132 38.748H212.657L205.136 64.7193Z" stroke="#231F20" stroke-width="0.709205" stroke-miterlimit="10"/>
<path opacity="0.5" d="M193.158 48.7354H160.619V64.7186H193.158V48.7354Z" stroke="#231F20" stroke-width="0.709205" stroke-miterlimit="10"/>
<path opacity="0.5" d="M193.158 54.1587H160.619" stroke="#231F20" stroke-width="0.709205" stroke-miterlimit="10"/>
<path opacity="0.5" d="M193.158 59.4385H160.619" stroke="#231F20" stroke-width="0.709205" stroke-miterlimit="10"/>
<g opacity="0.5">
<g opacity="0.5">
<path opacity="0.5" d="M159.797 13.5396H144.624C143.952 13.5396 143.408 14.0839 143.408 14.7553V22.5979C143.408 23.2693 143.952 23.8136 144.624 23.8136H159.797C160.468 23.8136 161.012 23.2693 161.012 22.5979V14.7553C161.012 14.0839 160.468 13.5396 159.797 13.5396Z" stroke="#231F20" stroke-width="0.709205" stroke-miterlimit="10"/>
<path opacity="0.5" d="M146.447 23.8135H157.961V28.8671C157.961 29.4392 157.496 29.904 156.924 29.904H147.484C146.912 29.904 146.447 29.4392 146.447 28.8671V23.8135V23.8135Z" stroke="#231F20" stroke-width="0.709205" stroke-miterlimit="10"/>
<path opacity="0.5" d="M154.731 29.8921H149.689V38.7359H154.731V29.8921Z" stroke="#231F20" stroke-width="0.709205" stroke-miterlimit="10"/>
<path opacity="0.5" d="M152.205 17.7227C154.171 17.7227 155.768 19.3198 155.768 21.2864V23.8132H148.629V21.2864C148.629 19.3198 150.226 17.7227 152.193 17.7227H152.205Z" stroke="#231F20" stroke-width="0.709205" stroke-miterlimit="10"/>
<path opacity="0.5" d="M157.961 13.54H146.447C146.447 11.0132 148.497 8.9751 151.012 8.9751H153.396C155.923 8.9751 157.961 11.0251 157.961 13.54Z" stroke="#231F20" stroke-width="0.709205" stroke-miterlimit="10"/>
<path opacity="0.5" d="M152.204 8.97477V6.17383" stroke="#231F20" stroke-width="0.709205" stroke-miterlimit="10"/>
</g>
<g opacity="0.5">
<path opacity="0.5" d="M209.164 13.5396H193.991C193.32 13.5396 192.775 14.0839 192.775 14.7553V22.5979C192.775 23.2693 193.32 23.8136 193.991 23.8136H209.164C209.835 23.8136 210.38 23.2693 210.38 22.5979V14.7553C210.38 14.0839 209.835 13.5396 209.164 13.5396Z" stroke="#231F20" stroke-width="0.709205" stroke-miterlimit="10"/>
<path opacity="0.5" d="M195.814 23.8135H207.328V28.8671C207.328 29.4392 206.863 29.904 206.291 29.904H196.851C196.279 29.904 195.814 29.4392 195.814 28.8671V23.8135V23.8135Z" stroke="#231F20" stroke-width="0.709205" stroke-miterlimit="10"/>
<path opacity="0.5" d="M204.098 29.8921H199.057V38.7359H204.098V29.8921Z" stroke="#231F20" stroke-width="0.709205" stroke-miterlimit="10"/>
<path opacity="0.5" d="M201.572 17.7227C203.538 17.7227 205.136 19.3198 205.136 21.2864V23.8132H197.996V21.2864C197.996 19.3198 199.593 17.7227 201.56 17.7227H201.572Z" stroke="#231F20" stroke-width="0.709205" stroke-miterlimit="10"/>
<path opacity="0.5" d="M207.328 13.54H195.814C195.814 11.0132 197.865 8.9751 200.379 8.9751H202.763C205.29 8.9751 207.328 11.0251 207.328 13.54V13.54Z" stroke="#231F20" stroke-width="0.709205" stroke-miterlimit="10"/>
<path opacity="0.5" d="M201.571 8.97477V6.17383" stroke="#231F20" stroke-width="0.709205" stroke-miterlimit="10"/>
</g>
</g>
<path opacity="0.5" d="M154.731 33.5391H164.97H168.438H175.16H178.617H185.339H188.808H199.058" stroke="#231F20" stroke-width="0.709205" stroke-miterlimit="10"/>
<g opacity="0.5">
<g opacity="0.5">
<path opacity="0.5" d="M170.047 22.8359H163.372V29.5105H170.047V22.8359Z" stroke="#231F20" stroke-width="0.709205" stroke-miterlimit="10"/>
<path opacity="0.5" d="M170.047 22.8361H163.372C163.372 21.9184 163.742 21.084 164.349 20.4762C164.922 19.916 165.696 19.5465 166.554 19.5107C166.602 19.5107 166.65 19.5107 166.697 19.5107C167.615 19.5107 168.45 19.8802 169.057 20.4762C169.665 21.084 170.035 21.9184 170.035 22.8361H170.047Z" stroke="#231F20" stroke-width="0.709205" stroke-miterlimit="10"/>
<path opacity="0.5" d="M168.425 29.4985H164.969V33.539H168.425V29.4985Z" stroke="#231F20" stroke-width="0.709205" stroke-miterlimit="10"/>
<path opacity="0.5" d="M166.709 19.5107V16.7217" stroke="#231F20" stroke-width="0.709205" stroke-miterlimit="10"/>
</g>
<g opacity="0.5">
<path opacity="0.5" d="M180.226 22.8359H173.552V29.5105H180.226V22.8359Z" stroke="#231F20" stroke-width="0.709205" stroke-miterlimit="10"/>
<path opacity="0.5" d="M180.226 22.8361H173.552C173.552 21.9184 173.921 21.084 174.529 20.4762C175.137 19.8802 175.971 19.5107 176.889 19.5107C177.807 19.5107 178.641 19.8802 179.249 20.4762C179.845 21.084 180.214 21.9184 180.214 22.8361H180.226Z" stroke="#231F20" stroke-width="0.709205" stroke-miterlimit="10"/>
<path opacity="0.5" d="M178.618 29.4985H175.161V33.539H178.618V29.4985Z" stroke="#231F20" stroke-width="0.709205" stroke-miterlimit="10"/>
<path opacity="0.5" d="M176.889 19.5107V16.7217" stroke="#231F20" stroke-width="0.709205" stroke-miterlimit="10"/>
</g>
<g opacity="0.5">
<path opacity="0.5" d="M190.417 22.8359H183.742V29.5105H190.417V22.8359Z" stroke="#231F20" stroke-width="0.709205" stroke-miterlimit="10"/>
<path opacity="0.5" d="M190.417 22.8361H183.742C183.742 21.9184 184.112 21.084 184.72 20.4762C185.327 19.8683 186.162 19.5107 187.068 19.5107C187.973 19.5107 188.82 19.8802 189.427 20.4762C190.035 21.084 190.405 21.9184 190.405 22.8361H190.417Z" stroke="#231F20" stroke-width="0.709205" stroke-miterlimit="10"/>
<path opacity="0.5" d="M188.795 29.4985H185.339V33.539H188.795V29.4985Z" stroke="#231F20" stroke-width="0.709205" stroke-miterlimit="10"/>
<path opacity="0.5" d="M187.079 19.5107V16.7217" stroke="#231F20" stroke-width="0.709205" stroke-miterlimit="10"/>
</g>
</g>
<g opacity="0.5">
<path opacity="0.5" d="M172.037 112.155V138.913H165.136C165.136 129.998 165.148 121.071 165.16 112.155C165.16 110.165 166.697 108.544 168.592 108.544C170.487 108.544 172.025 110.165 172.025 112.155H172.037Z" stroke="#231F20" stroke-width="0.709205" stroke-miterlimit="10"/>
<path opacity="0.5" d="M181.738 113.645V138.913H172.036V113.645C172.036 110.832 174.205 108.544 176.887 108.544C179.569 108.544 181.738 110.832 181.738 113.645V113.645Z" stroke="#231F20" stroke-width="0.709205" stroke-miterlimit="10"/>
<path opacity="0.5" d="M188.639 138.913H181.738V112.155C181.738 110.165 183.276 108.544 185.171 108.544C187.066 108.544 188.604 110.165 188.604 112.155L188.627 138.913H188.639Z" stroke="#231F20" stroke-width="0.709205" stroke-miterlimit="10"/>
<path opacity="0.5" d="M165.147 130.666H172.037H181.739H188.64" stroke="#231F20" stroke-width="0.709205" stroke-miterlimit="10"/>
<path opacity="0.5" d="M188.616 108.545C188.294 102.407 183.443 97.5317 177.52 97.5317H176.28C170.356 97.5317 165.505 102.407 165.184 108.545V138.914H188.652V108.545H188.628H188.616Z" stroke="#231F20" stroke-width="0.709205" stroke-miterlimit="10"/>
<path opacity="0.5" d="M188.366 106.673H165.422" stroke="#231F20" stroke-width="0.709205" stroke-miterlimit="10"/>
<path opacity="0.5" d="M172.036 106.674V98.3906" stroke="#231F20" stroke-width="0.709205" stroke-miterlimit="10"/>
<path opacity="0.5" d="M181.738 106.674V98.3906" stroke="#231F20" stroke-width="0.709205" stroke-miterlimit="10"/>
</g>
</g>
<path d="M224.098 145.708C224.098 145.708 209.867 144.552 208.151 135.076C206.029 123.384 215.171 122.955 217.721 112.74C218.782 108.485 219.247 93.6699 219.843 88.2825C220.904 78.7117 221.965 75.5174 225.159 71.2624C228.878 66.3041 248.925 56.9478 262.382 72.3231C269.831 80.8332 269.664 93.5864 276.207 104.23C282.751 114.862 290.713 120.702 293.228 126.566C296.422 134.015 296.553 141.334 291.416 144.158C284.718 147.829 260.26 140.392 252.823 143.586C240.463 148.89 224.11 145.708 224.11 145.708H224.098Z" fill="#242D3A"/>
<path d="M314.479 231H198.544C198.043 216.245 198.389 196.614 201.035 180.273C205.862 150.5 216.005 129.475 220.975 126.698C222.656 125.756 227.34 124.779 233.097 124.004C238.579 123.265 245.027 122.729 250.76 122.61C256.827 122.479 262.071 122.836 264.527 123.921C271.762 127.115 292.417 144.636 304.443 185.458C309.95 204.135 312.941 219.57 314.479 231Z" fill="#E6D8FC"/>
<path d="M250.772 122.608C249.723 126.625 246.481 132.525 241.881 132.525C236.636 132.525 233.502 127.447 233.108 124.003C238.591 123.264 245.039 122.728 250.772 122.608Z" fill="#D0C6E5"/>
<path d="M262.381 92.1441C262.381 107.353 252.274 128.211 241.118 128.211C235.028 128.211 230.188 121.417 227.066 112.764C226.243 110.499 225.54 108.127 224.956 105.708C223.705 100.428 223.037 94.9689 223.037 90.249C223.037 75.0405 229.962 71.2622 241.118 71.2622C252.274 71.2622 262.381 76.9356 262.381 92.1441Z" fill="#F26E3A"/>
<path d="M262.704 230.81C262.31 230.81 261.905 230.762 261.476 230.679C260.344 230.44 258.639 230.047 257.829 229.856C256.804 230.13 254.265 230.726 251.464 230.726C249.974 230.726 248.615 230.559 247.423 230.226C243.717 229.201 243.145 228.521 243.109 226.757C243.109 226.388 243.097 225.971 242.99 225.434C242.203 221.525 247.042 219.713 249.724 219.296L249.926 219.26H250.129C250.451 219.296 258.15 219.904 262.918 221.37C267.554 222.8 270.749 225.065 272.239 226.292C274.086 227.806 274.015 228.891 273.633 229.534C273.252 230.178 272.394 230.595 271.452 230.595C271.047 230.595 270.487 230.524 269.557 230.118C269.473 230.178 269.378 230.249 269.283 230.309C268.818 230.595 268.222 230.738 267.59 230.738C266.672 230.738 265.755 230.428 265.028 230.095C264.444 230.559 263.633 230.81 262.715 230.81H262.704Z" fill="#DB6137"/>
<path d="M249.998 220.273C249.998 220.273 257.769 220.869 262.406 222.3C267.042 223.73 270.392 226.269 271.25 226.972C273.455 228.784 272.263 229.606 271.452 229.606C270.308 229.606 267.71 227.83 267.71 227.83C267.71 227.83 269.819 228.712 268.437 229.546C267.054 230.381 264.337 228.474 264.48 228.545C264.623 228.617 264.265 230.226 261.834 229.725C260.344 229.415 257.793 228.807 257.793 228.807C257.793 228.807 252.275 230.512 247.901 229.296C243.526 228.08 244.826 227.77 244.325 225.291C243.515 221.287 249.998 220.285 249.998 220.285V220.273Z" fill="#F26E3A"/>
<path d="M226.601 124.41C226.601 124.41 229.235 142.038 231.869 145.732C237.137 153.122 244.574 148.176 246.732 143.384C249.092 138.128 252.715 121.799 252.715 121.799C252.715 121.799 259.449 122.348 262.214 122.944C265.599 123.671 270.081 126.174 270.081 126.174C270.081 126.174 270.295 161.144 270.474 175.375C270.76 197.568 266.16 207.818 260.51 213.73C252.441 222.18 242.834 222.776 237.602 220.154C231.821 217.258 223.764 209.069 219.986 191.596C216.934 177.484 217.232 165.101 217.316 152.347C217.352 147.699 218.842 127.795 218.842 127.795C219.616 126.734 224.92 124.66 226.589 124.398L226.601 124.41Z" fill="#CCB2FA"/>
<path d="M241.213 146.053L249.128 182.847C249.449 183.92 249.056 184.825 248.246 184.861L233.788 185.445C232.977 185.481 232.06 184.635 231.738 183.55L221.988 148.33C221.988 145.851 224.455 144.79 224.694 144.754L239.151 144.17C239.962 144.134 240.88 144.981 241.202 146.065L241.213 146.053Z" fill="#131820"/>
<path d="M239.497 148.187L247.411 184.981C247.733 186.054 247.34 186.959 246.541 186.995L232.083 187.579C231.273 187.615 230.355 186.769 230.033 185.684L222.119 148.89C221.797 147.818 222.191 146.912 222.989 146.876L237.447 146.292C238.257 146.256 239.175 147.103 239.497 148.187Z" fill="#1C53B5"/>
<path d="M235.563 150.046C235.599 150.94 236.183 151.631 236.85 151.583C237.53 151.535 238.054 150.773 238.019 149.879C237.983 148.985 237.399 148.294 236.731 148.341C236.064 148.389 235.527 149.152 235.563 150.046Z" fill="#1A2E35"/>
<path d="M257.709 179.081C257.447 178.842 251.344 173.348 245.85 171.632C240.188 169.868 236.338 170.809 235.146 172.442C234.753 172.99 234.717 173.729 235.063 174.433C235.087 174.468 235.099 174.504 235.123 174.552C233.919 175.028 233.752 175.636 233.669 175.922C233.573 176.256 233.525 176.792 233.847 177.448C233.883 177.519 233.919 177.591 233.967 177.674C233.311 177.949 232.894 178.378 232.727 178.962C232.524 179.641 232.596 180.332 232.918 180.988C233.144 181.441 233.454 181.786 233.728 182.037C233.514 182.227 233.299 182.442 233.096 182.68C232.369 183.562 232.25 184.671 232.763 185.708C233.251 186.685 234.145 187.281 234.324 187.388L247.006 194.778L247.459 194.718C248.186 194.611 254.586 193.61 256.529 190.046C258.388 186.649 258.233 180.499 258.221 180.237L258.198 179.558L257.697 179.105L257.709 179.081Z" fill="#DB6137"/>
<path d="M256.851 180.153C256.851 180.153 250.796 174.658 245.54 173.026C240.284 171.381 237.03 172.31 236.255 173.371C235.826 173.955 237.924 175.421 237.924 175.421C237.924 175.421 235.194 175.719 234.992 176.422C234.789 177.126 236.958 178.735 236.958 178.735C236.958 178.735 234.301 178.627 234.062 179.462C233.752 180.511 234.908 181.178 234.908 181.178L236.744 182.227C236.744 182.227 235.266 182.358 234.181 183.669C233.097 184.98 234.98 186.136 234.98 186.136L247.209 193.264C247.209 193.264 253.645 192.346 255.349 189.247C257.042 186.148 256.875 180.165 256.875 180.165L256.851 180.153Z" fill="#F26E3A"/>
<path d="M201.058 230.809C201.058 230.809 198.806 223.264 203.728 217.162C209.092 210.499 215.671 210.32 215.671 210.32C216.231 210.32 228.114 209.152 245.111 214.778C248.972 216.053 253.811 218.64 254.014 218.747L255.349 219.462L254.407 220.463C254.407 220.463 252.977 222.037 252.226 224.814C251.451 227.698 251.809 230.666 251.821 230.69L251.988 230.809H201.058Z" fill="#BBA3EF"/>
<path d="M200.665 230.809C200.665 230.809 198.531 222.907 203.168 217.15C208.174 210.94 215.671 210.32 215.671 210.32C215.671 210.32 227.315 210.237 244.431 215.91C248.185 217.15 253.036 219.76 253.036 219.76C253.036 219.76 251.427 221.476 250.593 224.575C249.759 227.686 250.164 230.809 250.164 230.809H200.665Z" fill="#E6D8FC"/>
<path d="M295.706 219.999C290.354 219.999 285.885 221.608 277.542 219.129C268.197 216.352 245.075 197.079 244.085 196.257L243.132 195.458L255.67 175.578L256.934 176.007C258.352 176.483 290.116 188.247 298.841 192.705C306.421 196.579 308.435 203.635 305.444 212.562C304.502 215.375 300.331 219.272 295.694 219.999H295.706Z" fill="#BBA3EF"/>
<path d="M245.183 195.172L256.398 177.389C256.398 177.389 290.903 189.057 299.616 193.515C306.851 197.21 312.477 206.805 310.069 214.921C308.46 220.344 295.6 225.255 277.924 218.616C268.997 215.267 245.195 195.184 245.195 195.184L245.183 195.172Z" fill="#E6D8FC"/>
<path d="M221.977 93.5979C221.977 93.5979 226.232 91.4763 228.353 89.3428C230.475 87.2213 232.608 82.9662 232.608 82.9662C232.608 82.9662 237.924 93.5979 249.628 97.8529C261.321 102.108 269.831 103.169 269.831 103.169C269.831 103.169 267.709 85.0878 263.454 79.772C259.199 74.4561 252.823 67.0068 246.434 67.0068C240.046 67.0068 230.487 69.1284 226.232 74.4561C221.977 79.772 221.977 93.5979 221.977 93.5979Z" fill="#242D3A"/>
<path d="M264.988 104.345C265.461 102.346 264.686 100.452 263.258 100.114C261.829 99.7756 260.288 101.122 259.815 103.12C259.342 105.119 260.116 107.013 261.544 107.351C262.973 107.689 264.514 106.343 264.988 104.345Z" fill="#F26E3A"/>
<path d="M237.722 118.902C241.631 119.224 244.909 117.293 246.554 115.231C246.685 117.579 245.552 119.045 243.443 119.987C240.761 121.191 237.722 118.902 237.722 118.902Z" fill="#C94C20"/>
<path d="M233.383 104.945C234.416 104.945 235.254 104.198 235.254 103.277C235.254 102.355 234.416 101.608 233.383 101.608C232.35 101.608 231.512 102.355 231.512 103.277C231.512 104.198 232.35 104.945 233.383 104.945Z" fill="#242D3A"/>
<path d="M243.478 105.089C244.511 105.089 245.349 104.342 245.349 103.42C245.349 102.499 244.511 101.751 243.478 101.751C242.444 101.751 241.606 102.499 241.606 103.42C241.606 104.342 242.444 105.089 243.478 105.089Z" fill="#242D3A"/>
<path d="M229.032 100.297C229.032 100.297 229.569 99.0935 230.76 98.569C232.298 97.8897 233.979 98.569 233.979 98.569" stroke="#242D3A" stroke-width="0.709205" stroke-miterlimit="10" stroke-linecap="round"/>
<path d="M242.906 98.3416C242.906 98.3416 244.241 97.8291 245.505 98.2105C247.126 98.6991 247.781 100.237 247.781 100.237" stroke="#242D3A" stroke-width="0.709205" stroke-miterlimit="10" stroke-linecap="round"/>
<path d="M227.233 112.74C227.233 112.74 227.113 112.763 227.066 112.763C226.243 110.499 225.54 108.127 224.956 105.707C225.171 105.624 225.397 105.564 225.624 105.529C227.852 105.135 230.022 106.435 230.463 108.425C230.904 110.415 229.449 112.358 227.233 112.74Z" fill="#EF503A"/>
<path d="M250.141 112.001C252.418 112.001 254.264 110.352 254.264 108.318C254.264 106.284 252.418 104.635 250.141 104.635C247.863 104.635 246.017 106.284 246.017 108.318C246.017 110.352 247.863 112.001 250.141 112.001Z" fill="#EF503A"/>
<path d="M226.242 148.246C226.242 148.246 226.219 148.318 226.195 148.353C226.076 148.628 225.921 148.89 225.766 149.152V149.176L225.718 149.235C225.623 149.39 225.527 149.545 225.432 149.688C225.337 149.843 225.229 149.986 225.11 150.141C224.872 150.439 224.633 150.725 224.383 150.976C224.121 151.25 223.835 151.512 223.525 151.75C223.227 151.989 222.953 152.179 222.679 152.346C222.345 152.549 222.035 152.704 221.713 152.823C221.534 152.894 221.356 152.942 221.189 152.99C221.105 153.014 221.022 153.026 220.938 153.049C220.986 153.097 221.034 153.133 221.093 153.169L221.225 153.276L221.32 153.347C221.451 153.455 221.582 153.562 221.701 153.693C221.928 153.908 222.13 154.122 222.309 154.349C222.5 154.599 222.679 154.861 222.846 155.171C223 155.445 223.132 155.731 223.251 156.017C223.501 156.625 223.668 157.257 223.775 157.96C223.859 158.484 223.906 159.057 223.942 159.76C223.966 159.712 223.978 159.676 223.99 159.629C224.168 159.104 224.419 158.592 224.741 158.079C225.074 157.555 225.468 157.066 225.909 156.625C226.362 156.16 226.862 155.743 227.399 155.397C227.899 155.064 228.412 154.801 228.936 154.587L228.9 154.551C228.841 154.504 228.781 154.456 228.722 154.42C228.4 154.17 228.126 153.931 227.899 153.693C227.649 153.419 227.422 153.145 227.255 152.859C227.089 152.585 226.946 152.287 226.814 151.989C226.683 151.691 226.576 151.381 226.493 151.071C226.314 150.439 226.219 149.784 226.195 149.14C226.195 148.842 226.195 148.556 226.219 148.27L226.242 148.246Z" fill="#FFFDF2"/>
<path d="M213.669 152.036V152.084C213.657 152.203 213.633 152.334 213.609 152.453V152.489C213.585 152.561 213.574 152.632 213.55 152.704C213.526 152.775 213.514 152.847 213.49 152.918C213.442 153.073 213.383 153.216 213.323 153.347C213.252 153.49 213.18 153.633 213.097 153.764C213.013 153.895 212.93 154.015 212.847 154.11C212.739 154.229 212.644 154.336 212.537 154.432C212.477 154.48 212.417 154.527 212.358 154.563C212.334 154.587 212.298 154.599 212.274 154.623C212.298 154.623 212.322 154.646 212.346 154.646L212.406 154.67H212.453C212.525 154.706 212.584 154.73 212.656 154.766C212.775 154.813 212.882 154.873 212.978 154.944C213.085 155.016 213.192 155.099 213.299 155.195C213.395 155.278 213.49 155.373 213.574 155.469C213.752 155.671 213.907 155.898 214.038 156.16C214.146 156.351 214.241 156.565 214.348 156.839C214.348 156.816 214.348 156.804 214.348 156.78C214.348 156.553 214.372 156.315 214.432 156.077C214.491 155.826 214.575 155.588 214.694 155.35C214.813 155.111 214.944 154.873 215.111 154.67C215.266 154.48 215.433 154.301 215.6 154.146H215.588C215.588 154.146 215.528 154.122 215.504 154.11C215.338 154.05 215.206 154.003 215.087 153.943C214.956 153.872 214.825 153.788 214.718 153.705C214.622 153.621 214.515 153.526 214.432 153.419C214.336 153.311 214.253 153.216 214.181 153.097C214.026 152.87 213.895 152.632 213.8 152.382C213.752 152.263 213.717 152.155 213.693 152.036H213.669Z" fill="#FFFDF2"/>
<path d="M237.018 137.282L237.041 137.318C237.101 137.425 237.161 137.544 237.208 137.651V137.687C237.244 137.759 237.28 137.818 237.304 137.89C237.327 137.961 237.351 138.033 237.375 138.104C237.423 138.259 237.459 138.402 237.482 138.545C237.506 138.7 237.53 138.855 237.542 139.022C237.542 139.177 237.542 139.32 237.542 139.451C237.542 139.606 237.506 139.761 237.471 139.892C237.447 139.964 237.423 140.047 237.399 140.107C237.387 140.142 237.375 140.166 237.363 140.202C237.387 140.202 237.411 140.19 237.435 140.178L237.506 140.154H237.554C237.625 140.119 237.685 140.107 237.757 140.095C237.888 140.071 238.007 140.059 238.126 140.047C238.257 140.047 238.388 140.047 238.531 140.059C238.662 140.071 238.793 140.095 238.913 140.13C239.175 140.19 239.425 140.285 239.687 140.417C239.89 140.512 240.093 140.631 240.331 140.798C240.331 140.786 240.307 140.762 240.295 140.75C240.164 140.56 240.045 140.357 239.962 140.119C239.866 139.88 239.795 139.63 239.759 139.38C239.711 139.117 239.699 138.843 239.699 138.581C239.699 138.331 239.747 138.092 239.795 137.866H239.771C239.771 137.866 239.711 137.89 239.687 137.902C239.521 137.949 239.378 137.985 239.246 137.997C239.091 138.021 238.948 138.021 238.805 138.009C238.674 138.009 238.543 137.973 238.412 137.949C238.281 137.914 238.15 137.878 238.031 137.83C237.768 137.735 237.53 137.616 237.316 137.461C237.208 137.389 237.113 137.318 237.029 137.246L237.018 137.282Z" fill="#FFFDF2"/>
<path d="M171.334 199.593H41.8945C42.6931 194.086 43.444 188.52 44.171 182.894C46.5906 164.003 48.4261 145.66 49.7729 127.924C49.9159 119.343 51.6084 112.466 53.2771 107.615C53.6108 106.637 53.9445 105.743 54.2663 104.933C55.1007 102.823 56.0184 100.821 57.0315 98.9019C64.1233 85.3024 75.0171 76.399 82.9789 72.728C83.1101 72.6684 83.2292 72.6088 83.3603 72.5611C83.5868 72.4539 83.8133 72.3585 84.0516 72.2632C84.4211 72.1082 84.7668 71.9771 85.1124 71.846C90.321 69.9271 95.5891 69.3907 95.5891 69.3907C95.5891 69.3907 100.357 69.0212 105.375 69.5099C106.483 69.6172 107.568 69.7602 108.64 69.9271C109.32 70.0343 109.987 70.1535 110.655 70.2846C111.119 70.3681 111.572 70.4634 112.025 70.5707C132.609 75.0999 147.198 90.4156 154.17 102.335C155.339 104.337 156.292 106.232 157.031 107.972C157.138 108.246 157.246 108.497 157.341 108.759C157.532 109.212 157.698 109.665 157.83 110.094C158.032 110.654 158.199 111.178 158.33 111.691C158.437 112.096 158.545 112.501 158.652 112.918C158.783 113.443 158.926 113.967 159.045 114.492C159.343 115.66 159.629 116.84 159.915 118.044C159.999 118.377 160.07 118.711 160.154 119.057C160.499 120.559 160.833 122.072 161.155 123.622C161.274 124.182 161.393 124.754 161.512 125.314C163.825 136.506 165.696 148.675 167.186 160.07C167.281 160.809 167.377 161.548 167.472 162.287C169.474 178.043 170.726 192.06 171.334 199.593Z" fill="#FFDF76"/>
<path d="M112.573 75.4468C110.666 79.5588 102.335 82.4074 95.1594 80.5242C90.1535 79.1893 85.6005 75.8759 82.9902 72.7412C88.5683 70.119 96.5658 70.2502 100.654 69.9522C104.039 69.7019 107.305 69.7615 110.451 70.0714C112.478 71.7996 113.383 73.7066 112.585 75.4468H112.573Z" fill="#FFBE22"/>
<path d="M143.67 190.177L90.7148 182.024L93.6707 115.159L146.614 123.3L143.67 190.177Z" fill="#80C5FF"/>
<path d="M143.67 190.177L137.472 192.99L83.6943 186.458L86.5906 118.663L93.6704 115.159L90.7146 182.024L143.67 190.177Z" fill="#FFF3F2"/>
<path d="M141 179.39L137.508 181.988L96.6025 176.923L99.5227 124.79L102.359 121.583L99.4512 173.717L141 179.39Z" fill="#FFF3F2"/>
<path d="M141 179.39L99.4512 173.717L102.359 121.583L143.921 127.257L141 179.39Z" fill="#D4EFFF"/>
<path d="M139.343 182.822C153.86 175.361 170.153 163.692 172.37 153.299C174.754 142.083 161.309 114.872 160.737 113.716L160.177 112.584L158.938 112.858C158.628 112.93 151.274 114.563 147.198 116.124C146.745 116.303 146.244 116.529 145.708 116.803C141.548 118.949 136.018 123.609 135.779 123.812L134.861 124.586L135.35 125.695C139.331 134.765 143.419 145.707 143.109 147.566C141.965 152.882 132.502 159.425 124.754 163.406C122.073 164.777 119.45 165.933 117.555 166.577C111.238 168.71 107.829 167.935 107.794 167.935L107.055 167.757L106.435 168.209C105.255 169.103 104.063 171.213 105.398 173.573C103.3 173.954 101.322 174.443 100.118 175.063C98.5208 175.885 98.2705 176.934 98.3539 177.673C98.485 178.936 99.081 180.033 100.07 180.832C100.178 180.915 100.297 180.998 100.416 181.082C99.2121 181.857 99.1287 182.81 99.2002 183.335C99.3551 184.479 99.9511 185.79 101.62 186.708C101.262 187.292 101.143 187.971 101.286 188.686C101.429 189.365 101.87 190.331 103.193 191.01C107.829 193.394 121.596 190.986 133.252 185.754C135.243 184.86 137.293 183.871 139.331 182.822H139.343Z" fill="#E28B60"/>
<path d="M159.283 114.442C159.283 114.442 173.073 142.178 170.785 152.964C168.461 163.882 148.401 177.183 132.609 184.275C119.033 190.366 103.634 192.058 102.883 188.351C102.335 185.622 110.499 186.039 110.499 186.039C110.499 186.039 101.393 187.338 100.809 183.107C100.606 181.617 108.878 180.652 108.878 180.652C108.878 180.652 100.44 181.999 99.9629 177.493C99.7483 175.455 111.5 174.347 111.5 174.347C111.5 174.347 108.39 175.133 106.959 173.012C105.529 170.89 107.4 169.496 107.4 169.496C107.4 169.496 111.095 170.449 118.068 168.101C125.04 165.753 142.883 156.254 144.683 147.887C145.398 144.597 136.816 125.038 136.816 125.038C136.816 125.038 143.753 119.162 147.77 117.637C151.786 116.111 159.283 114.442 159.283 114.442Z" fill="#F79B67"/>
<path d="M128.296 30.7727C128.045 34.3841 120.548 37.0301 120.548 37.0301L76.7226 42.1671L77.688 60.558C77.688 60.558 73.1946 65.6712 69.4044 57.1134C67.6285 53.0968 69.452 51.3923 69.452 51.3923C69.452 51.3923 65.936 50.5223 65.936 45.6594C65.936 42.2625 67.3782 40.3793 68.9753 39.3424C66.9729 37.2923 64.9586 34.6821 65.197 32.6797C65.6738 28.8061 70.0599 27.8168 70.0599 27.8168C70.0599 27.8168 64.1839 23.6452 66.4604 21.0945C68.7369 18.5439 73.0992 19.2233 73.0992 19.2233C73.0992 19.2233 68.9991 14.2173 69.9526 12.7156C70.9061 11.2138 75.9002 10.6536 75.9002 10.6536C75.9002 10.6536 74.315 8.35324 75.6618 6.82763C76.9967 5.30201 84.0169 6.29128 84.0169 6.29128C84.0169 6.29128 84.744 2.6441 87.0562 1.29726C89.3685 -0.0495719 96.2695 5.01596 96.2695 5.01596C96.2695 5.01596 99.6307 -0.8243 103.051 0.0934547C106.46 0.99929 109.249 7.05409 109.249 7.05409C109.249 7.05409 114.327 3.84791 117.08 5.58806C119.821 7.32822 120.072 14.7537 120.072 14.7537C120.072 14.7537 122.026 11.7501 124.934 15.8741C127.843 20.0099 125.554 25.433 125.554 25.433C125.554 25.433 128.546 27.1613 128.296 30.7727Z" fill="#242D3A"/>
<path d="M127.014 48.8825C127.88 45.6593 126.85 42.5814 124.714 42.0078C122.578 41.4343 120.144 43.5822 119.279 46.8055C118.414 50.0287 119.444 53.1066 121.58 53.6801C123.716 54.2537 126.149 52.1057 127.014 48.8825Z" fill="#E28B60"/>
<path d="M124.529 38.7703C125.709 57.0539 111.108 77.7093 96.7814 78.6271C82.443 79.5567 73.8018 60.4031 72.6218 42.1195C71.4419 23.8359 82.4549 13.6691 96.7933 12.7394C111.132 11.8098 123.361 20.4748 124.541 38.7584L124.529 38.7703Z" fill="#F79B67"/>
<path d="M96.4247 20.0451C96.4247 20.0451 100.644 27.2083 107.76 21.9163C107.76 21.9163 109.833 30.8555 117.152 28.4598C117.152 28.4598 113.242 35.194 122.241 36.9341C122.241 36.9699 122.241 36.8984 122.241 36.9341C119.392 45.039 123.945 46.1236 124.279 45.5753C126.58 41.7732 130.429 39.1153 125.495 32.691C125.864 31.07 120.835 20.3192 118.391 17.113C115.948 13.9068 104.589 7.12498 96.0076 8.80555C87.426 10.4742 75.7336 18.5552 73.3855 23.3824C69.1424 32.0474 73.4094 48.9603 73.4094 48.9603C73.4094 48.9603 79.202 45.7183 75.5667 36.2309C75.5667 36.2309 85.4355 31.511 83.4928 23.8472C83.4928 23.8472 92.8133 28.2572 96.4367 20.057L96.4247 20.0451Z" fill="#242D3A"/>
<path d="M74.1919 53.8796C76.2939 53.1917 77.1566 50.0627 76.1186 46.8908C75.0807 43.719 72.5352 41.7053 70.4331 42.3932C68.331 43.081 67.4684 46.21 68.5063 49.3819C69.5443 52.5537 72.0898 54.5674 74.1919 53.8796Z" fill="#F79B67"/>
<path d="M94.3145 43.4069C95.506 43.4069 96.4719 42.4411 96.4719 41.2496C96.4719 40.0582 95.506 39.0923 94.3145 39.0923C93.1231 39.0923 92.1572 40.0582 92.1572 41.2496C92.1572 42.4411 93.1231 43.4069 94.3145 43.4069Z" fill="#242D3A"/>
<path d="M105.9 44.0383C107.091 44.0383 108.057 43.0724 108.057 41.8809C108.057 40.6895 107.091 39.7236 105.9 39.7236C104.708 39.7236 103.742 40.6895 103.742 41.8809C103.742 43.0724 104.708 44.0383 105.9 44.0383Z" fill="#242D3A"/>
<path d="M106.4 31.0464L111.406 33.1203" stroke="#242D3A" stroke-width="0.709205" stroke-miterlimit="10" stroke-linecap="round"/>
<path d="M89.7861 32.6798L94.7921 30.606" stroke="#242D3A" stroke-width="0.709205" stroke-miterlimit="10" stroke-linecap="round"/>
<path d="M85.566 51.63C88.1859 51.63 90.3097 49.5062 90.3097 46.8863C90.3097 44.2664 88.1859 42.1426 85.566 42.1426C82.9461 42.1426 80.8223 44.2664 80.8223 46.8863C80.8223 49.5062 82.9461 51.63 85.566 51.63Z" fill="#F48062"/>
<path d="M112.765 54.1451C115.385 54.1451 117.509 52.0213 117.509 49.4014C117.509 46.7815 115.385 44.6577 112.765 44.6577C110.145 44.6577 108.021 46.7815 108.021 49.4014C108.021 52.0213 110.145 54.1451 112.765 54.1451Z" fill="#F48062"/>
<path d="M101.001 62.5491C100.834 64.0748 97.1396 66.5181 94.2314 65.3143C92.813 64.7303 90.2743 62.3108 91.6212 58.8662C91.6212 58.8662 94.6128 59.9747 96.0431 60.5229C97.8309 61.2023 101.013 62.5491 101.013 62.5491H101.001Z" fill="#D1652F"/>
<path d="M128.032 110.487L128.426 108.652C128.318 107.913 127.269 96.6015 139.164 91.2499C141.405 90.2488 145.839 99.4621 144.921 97.2094C143.92 94.7779 141.322 89.629 144.528 89.9269L150.034 96.6373L168.699 122.382C168.699 122.382 164.421 123.824 158.092 126.923C151.679 130.07 142.418 136.351 142.323 136.411L140.833 137.424L128.032 110.475V110.487Z" fill="#FFBE22"/>
<path d="M166.101 121.381C166.101 121.381 163.932 122.239 157.377 125.457C150.785 128.687 141.417 135.064 141.417 135.064L126.066 110.892C126.066 110.892 117.925 96.2799 128.032 89.9152C137.401 84.0272 143.67 89.057 143.67 89.057L166.101 121.381Z" fill="#FFDF76"/>
<path d="M136.423 109.354L125.78 146.732C125.339 147.828 125.875 148.734 126.96 148.77L146.399 149.366C147.484 149.402 148.723 148.543 149.153 147.447L162.263 111.666C162.263 109.151 158.938 108.067 158.628 108.031L139.188 107.435C138.104 107.399 136.864 108.258 136.435 109.354H136.423Z" fill="#131820"/>
<path d="M138.736 111.512L128.092 148.889C127.651 149.986 128.187 150.892 129.272 150.928L148.712 151.524C149.796 151.559 151.036 150.701 151.465 149.605L162.109 112.227C162.55 111.13 162.013 110.213 160.929 110.189L141.489 109.593C140.404 109.557 139.165 110.415 138.736 111.512Z" fill="#1C53B5"/>
<path d="M144.004 113.394C143.956 114.3 143.182 115.003 142.264 114.955C141.358 114.908 140.655 114.133 140.702 113.215C140.75 112.309 141.525 111.606 142.443 111.654C143.36 111.701 144.052 112.476 144.004 113.394Z" fill="#1A2E35"/>
<path d="M127.448 167.245C112.18 172.895 92.6088 177.019 83.4908 171.643C73.6339 165.839 62.6805 137.615 62.2156 136.423L61.7627 135.243L62.7996 134.516C63.0619 134.337 69.212 130.034 73.1095 128.08C73.5386 127.865 74.0511 127.651 74.6113 127.436C78.9855 125.815 86.1487 124.897 86.4467 124.861L87.6386 124.707L88.1273 125.803C92.1201 134.838 97.4121 145.231 98.9854 146.244C103.67 148.985 114.849 146.435 123.002 143.419C125.815 142.382 128.437 141.226 130.177 140.261C136.005 137.043 137.734 134.027 137.746 134.003L138.115 133.348L138.866 133.193C140.32 132.919 142.668 133.479 143.502 136.041C145.195 134.754 146.887 133.634 148.163 133.169C149.843 132.549 150.785 133.074 151.274 133.634C152.12 134.587 152.525 135.755 152.442 137.031C152.442 137.174 152.418 137.317 152.394 137.448C153.777 137.078 154.527 137.662 154.861 138.068C155.6 138.95 156.16 140.273 155.707 142.12C156.375 142.251 156.959 142.621 157.388 143.205C157.793 143.765 158.198 144.742 157.817 146.172C156.446 151.19 145.398 159.688 133.705 164.742C131.703 165.6 129.605 166.446 127.46 167.233L127.448 167.245Z" fill="#E28B60"/>
<path d="M63.717 135.839C63.717 135.839 74.8254 164.671 84.3009 170.249C93.8956 175.899 117.197 170.106 133.049 163.265C146.684 157.377 158.293 147.198 156.076 144.147C154.444 141.894 149.247 148.187 149.247 148.187C149.247 148.187 156.339 142.371 153.621 139.093C152.668 137.937 146.375 143.372 146.375 143.372C146.375 143.372 153.049 138.08 150.057 134.695C148.699 133.158 139.974 141.06 139.974 141.06C139.974 141.06 142.644 139.296 142.048 136.817C141.452 134.338 139.164 134.767 139.164 134.767C139.164 134.767 137.376 138.128 130.951 141.668C124.527 145.208 105.517 151.93 98.1507 147.627C95.2544 145.935 86.637 126.447 86.637 126.447C86.637 126.447 77.6383 127.591 73.8123 129.51C69.9863 131.429 63.7051 135.827 63.7051 135.827L63.717 135.839Z" fill="#F79B67"/>
<path d="M92.0727 131.666C91.9654 131.69 81.2861 134.479 74.8022 137.185C68.3898 139.867 62.9668 143.502 62.9191 143.538L61.0717 144.777L55.0288 122.775C55.0288 122.775 52.502 116.422 59.2004 111.285C59.999 110.677 67.2099 105.802 68.1753 105.433C77.2337 101.964 76.3517 99.2351 79.0692 101.583L93.9797 131.166L92.0727 131.654V131.666Z" fill="#FFBE22"/>
<path d="M62.0132 142.203C62.0132 142.203 67.5435 138.473 74.1824 135.695C80.8212 132.918 91.6674 130.106 91.6674 130.106L77.3528 100.511C77.3528 100.511 71.3695 91.4407 60.6663 96.3393C52.0847 100.261 53.1932 111.238 53.1932 111.238L62.0132 142.203Z" fill="#FFDF76"/>
</g>
<defs>
<clipPath id="clip0_1_8857">
<rect width="353.776" height="231" fill="white"/>
</clipPath>
</defs>
</svg>
