<svg width="202" height="231" viewBox="0 0 202 231" fill="none" xmlns="http://www.w3.org/2000/svg">
<path d="M186.845 87.9612C184.369 83.9926 180.816 80.7109 176.559 78.3705C172.641 76.2166 168.257 75.0294 163.848 74.4612L163.297 71.6035L163.585 67.813C164.306 61.2581 166.544 58.5615 166.544 58.5615C166.544 58.5615 170.886 49.3269 168.478 43.2214C168.478 43.2214 168.546 39.9482 166.18 37.065C161.813 31.7227 152.527 32.8845 147.609 33.4865C144.471 33.8681 141.936 34.5635 140.197 35.1232C140.138 36.3273 140.257 37.9385 141.045 39.5581C141.164 39.7956 141.283 40.016 141.41 40.228C141.249 40.7283 140.995 41.6103 140.8 42.7211C139.782 48.6909 142.546 50.8279 141.834 56.7044C141.631 58.3665 141.266 59.384 141.529 61.2666C141.766 62.971 142.343 64.1412 143.174 65.7694C144.573 68.5253 145.726 70.8064 148.101 71.6035C148.898 71.8749 149.619 71.9003 150.093 71.8834L149.763 72.9603L149.585 73.5369L149.008 74.8513C146.311 75.3262 143.462 76.047 140.579 77.1324C134.482 79.4304 131.718 81.1603 129.191 83.0937C128.402 83.7043 127.766 84.2979 127.257 85.0441C123.017 88.5378 119.786 97.9759 119.413 109.958C119.227 115.962 118.955 121.932 119.829 127.901C120.592 133.142 123.78 136.882 125.188 141.842C126.146 145.209 125.654 148.719 125.654 152.162C125.654 155.741 126.078 159.277 125.968 162.872H188.041C189.228 149.372 190.144 135.83 190.61 122.288C190.89 114.164 191.56 105.472 190.33 97.4332C189.805 93.9904 188.584 90.8019 186.82 87.9612H186.845Z" fill="#EDEDED"/>
<path d="M119.939 102.292V102.318C119.973 102.386 119.99 102.454 120.007 102.53V102.555C120.007 102.555 120.032 102.64 120.041 102.683C120.041 102.725 120.058 102.767 120.066 102.81C120.075 102.903 120.083 102.988 120.083 103.073C120.083 103.166 120.083 103.259 120.066 103.352C120.058 103.446 120.041 103.522 120.024 103.598C119.998 103.692 119.973 103.768 119.939 103.844C119.922 103.887 119.897 103.929 119.88 103.963C119.871 103.98 119.854 103.997 119.846 104.014C119.863 104.014 119.88 104.014 119.888 104.014H119.956C119.956 104.014 120.041 103.997 120.083 103.997C120.159 103.997 120.227 103.997 120.295 104.005C120.371 104.014 120.448 104.031 120.524 104.056C120.6 104.073 120.668 104.099 120.736 104.133C120.88 104.192 121.016 104.277 121.16 104.379C121.262 104.455 121.372 104.54 121.491 104.658C121.491 104.65 121.491 104.641 121.474 104.624C121.414 104.506 121.372 104.37 121.338 104.234C121.304 104.09 121.287 103.938 121.287 103.785C121.287 103.624 121.304 103.471 121.33 103.319C121.355 103.174 121.406 103.039 121.457 102.92H121.448C121.448 102.92 121.414 102.92 121.398 102.92C121.296 102.928 121.211 102.937 121.135 102.937C121.041 102.937 120.957 102.92 120.88 102.903C120.804 102.886 120.728 102.861 120.66 102.827C120.583 102.793 120.516 102.759 120.448 102.725C120.312 102.649 120.185 102.555 120.066 102.445C120.015 102.394 119.964 102.343 119.922 102.292" fill="#DFE7EF"/>
<path d="M26.2446 85.3323C28.9666 80.9737 32.8673 77.3613 37.5482 74.7919C41.8475 72.426 46.6726 71.1201 51.5146 70.4926L52.1251 67.3466L51.8114 63.1829C51.0227 55.9751 48.5551 53.0156 48.5551 53.0156C48.5551 53.0156 43.7809 42.8652 46.4266 36.1576C46.4266 36.1576 46.3588 32.5622 48.9536 29.3907C53.7533 23.5226 63.9545 24.7946 69.3647 25.456C72.8075 25.88 75.6059 26.6432 77.5053 27.2538C77.5732 28.5766 77.4375 30.3489 76.5726 32.1297C76.4454 32.3926 76.3097 32.6385 76.174 32.8674C76.3521 33.4186 76.6319 34.3853 76.8439 35.6064C77.9633 42.1698 74.9275 44.5103 75.7076 50.9719C75.9281 52.7951 76.3266 53.9229 76.0383 55.9835C75.7755 57.8576 75.1395 59.1381 74.2321 60.9273C72.6973 63.9631 71.4253 66.4647 68.822 67.3381C67.9401 67.6349 67.1514 67.6603 66.6257 67.6434L66.9903 68.8221L67.1854 69.458L67.8129 70.8996C70.7808 71.4169 73.9099 72.214 77.0729 73.4097C83.772 75.9367 86.8162 77.8362 89.5807 79.9646C90.4456 80.6345 91.141 81.2959 91.7006 82.11C96.3646 85.9429 99.9091 96.3138 100.316 109.491C100.52 116.089 100.816 122.644 99.8667 129.207C99.0272 134.965 95.5251 139.078 93.9732 144.53C92.9217 148.228 93.4644 152.086 93.4644 155.868C93.4644 159.794 92.9981 163.686 93.1168 167.638H24.9048C23.5989 152.807 22.5897 137.924 22.081 123.042C21.7757 114.113 21.0379 104.565 22.3862 95.7287C22.9629 91.9466 24.3027 88.4445 26.2446 85.3239V85.3323Z" fill="#EDEDED"/>
<path d="M99.765 101.071V101.097C99.7226 101.173 99.7056 101.249 99.6887 101.326V101.351C99.6717 101.393 99.6632 101.444 99.6548 101.487C99.6463 101.538 99.6378 101.58 99.6293 101.631C99.6124 101.733 99.6124 101.826 99.6124 101.919C99.6124 102.021 99.6124 102.123 99.6293 102.224C99.6378 102.326 99.6548 102.411 99.6802 102.496C99.7056 102.598 99.7311 102.682 99.7735 102.767C99.7904 102.81 99.8159 102.86 99.8413 102.894C99.8498 102.911 99.8668 102.928 99.8752 102.954C99.8583 102.954 99.8413 102.954 99.8244 102.954H99.748C99.7056 102.937 99.6548 102.937 99.6124 102.937C99.5276 102.937 99.4512 102.937 99.3749 102.945C99.2901 102.954 99.2053 102.971 99.1205 102.996C99.0442 103.022 98.9594 103.047 98.8831 103.081C98.722 103.149 98.5693 103.234 98.4252 103.344C98.3149 103.429 98.1962 103.522 98.0605 103.649C98.0605 103.641 98.069 103.624 98.0775 103.615C98.1453 103.488 98.1877 103.335 98.2217 103.183C98.2556 103.022 98.2725 102.86 98.2725 102.691C98.2725 102.521 98.2556 102.343 98.2217 102.182C98.1877 102.029 98.1453 101.877 98.086 101.741H98.0945C98.0945 101.741 98.1369 101.741 98.1538 101.741C98.2641 101.758 98.3573 101.758 98.4421 101.758C98.5439 101.758 98.6372 101.741 98.722 101.724C98.8068 101.707 98.8831 101.673 98.9679 101.639C99.0442 101.605 99.129 101.571 99.1969 101.529C99.3495 101.444 99.4852 101.343 99.6124 101.224C99.6717 101.173 99.7226 101.114 99.7735 101.054" fill="#DFE7EF"/>
<path d="M59.0537 154.511C56.4589 154.511 53.3383 153.298 49.7768 150.915C30.8667 138.263 26.2027 107.244 26.0077 105.93L25.8975 105.175L39.8384 95.6606L40.3556 96.4069C44.2818 102.063 53.6097 115.512 57.3578 120.753C58.7315 122.677 58.3753 125.518 58.6891 125.883C60.0883 127.519 65.3882 140.782 65.0151 146.65C65.0151 146.65 66.3634 147.829 65.9055 149.304C64.9642 152.298 62.3185 154.511 59.0537 154.511Z" fill="#868B91"/>
<path opacity="0.35" d="M168.86 106.998C168.86 117.047 166.621 126.561 162.61 135.084C162.288 135.796 161.949 136.483 161.601 137.17C160.643 139.035 159.6 140.842 158.472 142.597C157.437 144.225 156.335 145.794 155.156 147.312C153.664 149.271 152.053 151.136 150.34 152.9C150.221 153.027 150.102 153.154 149.975 153.282C149.628 153.638 149.288 153.977 148.932 154.325C148.813 154.443 148.695 154.562 148.568 154.681C147.567 155.639 146.541 156.572 145.481 157.462C145.04 157.844 144.599 158.208 144.141 158.573C138.197 163.364 131.404 167.138 124.027 169.648C117.336 171.92 110.162 173.158 102.7 173.158C102.267 173.158 101.835 173.158 101.411 173.141C101.275 173.141 101.14 173.141 101.012 173.133C100.936 173.133 100.868 173.133 100.8 173.133C100.555 173.133 100.317 173.124 100.08 173.107C94.1522 172.887 88.4198 171.878 82.9927 170.182C76.0308 168.011 69.5606 164.729 63.8028 160.523C63.1753 160.074 62.5563 159.607 61.9457 159.124C59.2661 157.03 56.756 154.732 54.441 152.255H54.4326C53.7033 151.475 52.9995 150.687 52.3126 149.881C42.4759 138.34 36.54 123.365 36.54 107.007C36.54 104.7 36.6588 102.428 36.8877 100.181C36.9386 99.6464 37.0064 99.1206 37.0743 98.5864C37.0912 98.3998 37.1167 98.2048 37.1506 98.0182C37.1845 97.7299 37.2269 97.4416 37.2693 97.1618C37.2947 96.9752 37.3202 96.7971 37.3541 96.6106C37.4389 96.0339 37.5407 95.4743 37.6424 94.9146C37.6424 94.9146 37.6509 94.9146 37.6424 94.9146C37.7357 94.4313 37.829 93.9564 37.9223 93.473C37.9392 93.4137 37.9477 93.3543 37.9647 93.2949C42.7982 70.3654 59.512 51.8115 81.3646 44.3746C86.5373 42.6108 91.9899 41.4745 97.6459 41.0505C99.308 40.9233 100.995 40.8555 102.7 40.8555H102.81C105.642 40.8555 108.424 41.042 111.163 41.3982C112.435 41.5508 113.69 41.7543 114.936 41.9918C115.649 42.119 116.361 42.2631 117.065 42.4242C146.693 48.9792 168.86 75.4109 168.86 107.015V106.998Z" fill="#F9F9FC"/>
<path opacity="0.3" d="M102.708 173.148C139.247 173.148 168.868 143.528 168.868 106.989C168.868 70.4494 139.247 40.8286 102.708 40.8286C66.1687 40.8286 36.5479 70.4494 36.5479 106.989C36.5479 143.528 66.1687 173.148 102.708 173.148Z" fill="#F5EDFF"/>
<path d="M39.5582 108.498C39.5582 72.7892 68.5085 43.839 104.217 43.839C139.926 43.839 168.461 72.3822 168.859 107.743C168.859 107.489 168.868 107.243 168.868 106.989C168.868 70.4488 139.247 40.8286 102.708 40.8286C66.168 40.8286 36.5479 70.4488 36.5479 106.989C36.5479 143.528 66.168 173.148 102.708 173.148C102.962 173.148 103.208 173.148 103.462 173.14C68.1014 172.733 39.5582 143.952 39.5582 108.498Z" fill="#938CF9"/>
<path d="M66.5413 168.973L57.4658 162.538L46.4639 178.053L55.5395 184.488L66.5413 168.973Z" fill="#E7D9FC"/>
<path opacity="0.5" d="M55.5938 165.194C58.019 168.094 60.6562 170.799 63.4885 173.293L66.5497 168.976L57.4763 162.54L55.6022 165.186L55.5938 165.194Z" fill="#000D53"/>
<path d="M61.1564 188.472L40.8556 174.082L10.7012 216.6L31.002 230.998L61.1564 188.472Z" fill="#B8B3FD"/>
<path d="M102.707 32.9424C61.8089 32.9424 28.6611 66.0986 28.6611 106.989C28.6611 147.878 61.8174 181.035 102.707 181.035C143.597 181.035 176.753 147.878 176.753 106.989C176.753 66.0986 143.597 32.9424 102.707 32.9424ZM102.707 173.148C66.1676 173.148 36.5474 143.528 36.5474 106.989C36.5474 70.4488 66.1676 40.8287 102.707 40.8287C139.247 40.8287 168.867 70.4488 168.867 106.989C168.867 143.528 139.247 173.148 102.707 173.148Z" fill="#B8B3FD"/>
<path d="M55.6705 152.73C47.9793 148.058 50.5656 120.549 53.0078 106.659C56.7644 85.3151 65.5495 70.6704 73.2408 71.476C73.9192 71.5438 75.6236 71.688 76.6158 72.7141C79.2954 75.5039 83.5862 94.4055 80.084 112.459C73.0033 148.906 65.7615 155.138 57.0527 153.281C56.5694 153.179 56.103 152.993 55.6705 152.73Z" fill="#B6BDC6"/>
<path d="M78.9219 112.196C71.5275 150.254 64.1076 153.51 57.2728 152.051C50.4381 150.593 50.5907 127.256 54.1692 106.913C57.7477 86.5698 66.0749 72.773 73.0199 72.7222C73.7323 72.7222 75.6148 73.214 76.0897 73.7058C78.4131 76.0887 82.4919 93.7777 78.9134 112.196H78.9219Z" fill="#D0D4DA"/>
<path d="M29.8414 101.587C29.8414 101.587 28.9086 99.9669 27.6536 97.7536C26.9497 96.5156 23.9818 93.802 22.201 92.1824C20.1065 90.2744 19.7079 89.8843 19.5723 89.384C19.3094 88.3495 19.6062 88.0187 19.903 87.705C20.1998 87.3912 20.8697 87.476 21.0308 87.3488C20.6662 86.8061 20.0132 86.3313 20.31 85.3391C20.539 84.5929 21.3276 84.5505 21.9212 84.6777C21.5311 84.2876 21.3445 83.2276 21.5905 82.6849C21.7092 82.439 22.3367 81.7691 23.3797 82.0659C23.1084 81.608 22.9981 80.9974 23.1932 80.5141C23.3204 80.1833 23.5154 79.8018 24.1514 79.8018C25.6184 79.8018 28.332 82.2524 30.2738 83.9993C30.4434 83.5838 30.6639 82.8969 31.0286 82.634C31.3932 82.3712 31.7493 82.2355 32.0801 82.2355C32.6143 82.2355 32.9874 82.5577 33.174 82.8969C33.2842 83.0835 33.988 84.2282 34.4883 85.0084C35.3702 86.3652 35.7434 87.6711 36.0741 88.8159C36.2437 89.3925 36.3963 89.9352 36.5998 90.4101C37.2867 92.0043 39.0081 95.4725 39.0251 95.5065L39.5084 96.4816L30.3162 102.46L29.8244 101.612L29.8414 101.587Z" fill="#DB6137"/>
<path d="M30.6388 100.966C30.6388 100.966 29.706 99.3553 28.451 97.1421C27.1959 94.9288 20.3612 89.8409 20.234 89.3576C19.369 85.9995 25.0336 90.2988 26.1953 90.9348C27.1027 91.4351 20.5223 87.2376 20.9887 85.9147C21.7095 83.8796 27.4503 89.1201 27.4503 89.1201C27.4503 89.1201 21.472 84.4816 22.0995 83.1588C22.7695 81.7342 28.3577 86.5507 28.3577 86.5507C28.3577 86.5507 22.5999 82.3532 23.8294 80.6827C24.9318 79.1732 31.8599 87.085 31.8599 87.085C31.8599 87.085 30.2996 84.4562 31.5376 83.5488C32.1906 83.074 32.3856 83.481 32.3856 83.481C32.3856 83.481 33.1742 84.77 33.7339 85.6434C34.9635 87.5429 35.1077 89.366 35.7606 90.8755C36.4729 92.5121 38.2113 96.0312 38.2113 96.0312L30.6303 100.958L30.6388 100.966Z" fill="#F26E3A"/>
<path d="M28.1875 99.8735L29.8156 105.046L40.7377 97.5161L38.3125 93.1914L28.1875 99.8735Z" fill="#FCDFD5"/>
<path d="M59.9024 153.661C57.3075 153.661 54.1869 152.449 50.6254 150.066C31.7153 137.414 27.0514 106.395 26.8563 105.08L26.7461 104.325L40.687 94.811L41.2043 95.5573C45.1304 101.213 54.4583 114.662 58.2064 119.903C59.5801 121.828 59.224 124.669 59.5377 125.033C60.9369 126.67 66.2368 139.932 65.8637 145.8C65.8637 145.8 67.212 146.979 66.7541 148.455C65.8128 151.448 63.1671 153.661 59.9024 153.661Z" fill="#B6BDC6"/>
<path d="M27.8057 104.902L40.4661 96.2612C40.4661 96.2612 56.0012 118.657 57.5191 120.42C59.037 122.184 67.8221 136.532 67.483 141.832C67.1438 147.132 64.6168 158.139 51.1083 149.099C32.3763 136.566 27.8057 104.902 27.8057 104.902Z" fill="#D0D4DA"/>
<path d="M151.18 137.687C151.061 140.197 150.934 142.707 150.798 145.175C150.645 147.803 150.493 150.39 150.34 152.9C150.323 153.129 150.315 153.349 150.298 153.57C150.187 153.476 150.086 153.375 149.975 153.281C149.628 153.637 149.289 153.977 148.932 154.324C148.814 154.443 148.695 154.562 148.568 154.68C147.567 155.639 146.541 156.571 145.481 157.462C145.04 157.843 144.599 158.208 144.141 158.573C138.197 163.364 131.405 167.137 124.027 169.647C117.336 171.92 110.162 173.158 102.7 173.158C102.268 173.158 101.835 173.158 101.411 173.141C101.276 173.141 101.14 173.141 101.013 173.133C100.936 173.133 100.869 173.133 100.801 173.133C100.555 173.133 100.317 173.124 100.08 173.107C94.1525 172.887 88.4201 171.878 82.993 170.182C76.031 168.011 69.5609 164.729 63.8031 160.523C63.1756 160.074 62.5565 159.607 61.946 159.124C61.9969 156.436 62.1495 154.579 62.353 153.23C62.353 153.213 62.353 153.205 62.3615 153.188C62.4208 152.73 62.4887 152.34 62.5735 151.992C62.5904 151.899 62.6074 151.823 62.6244 151.746C62.794 151.043 62.972 150.525 63.1501 150.093C63.9642 148.066 64.6765 147.702 63.3876 136.695C63.2773 135.796 62.7516 133.845 62.2513 130.793V130.767C62.158 130.267 62.0817 129.741 62.0053 129.181C61.9121 128.545 61.8273 127.867 61.7425 127.146C61.3693 123.763 61.1319 119.531 61.3524 114.384C61.5898 108.898 61.7933 104.157 61.7933 102.877C61.7933 100.91 61.7933 99.0864 61.8103 97.399V97.0258C61.8612 89.996 62.0477 85.2134 62.6159 81.7366C62.8957 80.0831 63.2519 78.7348 63.7267 77.5815C64.6002 75.4361 65.8721 73.9606 67.7038 72.519C71.2993 69.7037 75.1491 67.3378 83.188 64.2427C87.4364 62.6061 91.6001 61.58 95.416 60.9525C95.4245 60.944 95.433 60.944 95.433 60.944C95.4923 60.9355 95.5347 60.9271 95.5856 60.9186H95.5941C99.8679 60.2147 103.692 60.0112 106.686 60.0112C108.263 60.0112 109.789 60.0621 111.248 60.1723C111.791 60.2063 112.325 60.2572 112.842 60.308C113.071 60.3335 113.309 60.3589 113.537 60.3928C113.639 60.3928 113.733 60.4098 113.834 60.4267C113.936 60.4267 114.038 60.4437 114.14 60.4607C114.589 60.5115 115.03 60.5709 115.471 60.6387C130.506 62.8011 140.944 69.7631 146.651 81.4229C146.668 81.4398 146.677 81.4568 146.677 81.4738C147.737 83.6022 148.619 85.8918 149.339 88.3425C150.103 90.8695 150.679 93.5661 151.095 96.4323C152.29 104.759 151.968 121.312 151.18 137.695V137.687Z" fill="#B6BDC6"/>
<path d="M149.603 136.94C149.476 139.458 149.34 141.968 149.196 144.444C149.052 146.997 148.899 149.515 148.738 151.949C148.696 152.653 148.653 153.348 148.611 154.035C148.594 154.255 148.577 154.467 148.568 154.679C147.568 155.638 146.542 156.57 145.482 157.461C145.041 157.842 144.6 158.207 144.142 158.572C138.198 163.363 131.405 167.136 124.028 169.646C117.337 171.919 110.163 173.157 102.701 173.157C102.268 173.157 101.836 173.157 101.412 173.14C101.276 173.14 101.141 173.14 101.013 173.132C100.937 173.132 100.869 173.132 100.801 173.132C100.556 173.132 100.318 173.123 100.081 173.106C94.1532 172.886 88.4208 171.877 82.9937 170.181C76.0317 168.01 69.5616 164.728 63.8038 160.522C63.6935 158.114 63.5409 155.536 63.3543 152.805C63.3459 152.788 63.3459 152.78 63.3459 152.763C63.3204 152.381 63.295 152 63.2695 151.61C63.2611 151.559 63.2526 151.508 63.2526 151.457C63.2187 151.008 63.1848 150.55 63.1508 150.092C62.8371 146.166 62.4385 141.985 61.9128 137.626C61.811 136.761 61.8534 133.87 61.9721 130.062C61.9806 129.774 61.9891 129.477 62.0061 129.18C62.023 128.697 62.04 128.214 62.0569 127.705C62.4046 117.911 63.0915 104.275 63.0915 101.867C63.0915 100.468 63.0915 99.1532 63.0915 97.9067C63.1 96.8297 63.1 95.8122 63.1169 94.837C63.2017 86.4928 63.5324 81.8289 64.5076 78.7931C65.2878 76.3339 66.5004 74.9432 68.349 73.5186C69.1376 72.908 69.9432 72.3144 70.8251 71.7293C70.8251 71.7209 70.8336 71.7209 70.8336 71.7209H70.8421C73.6998 69.8044 77.3037 67.9134 83.494 65.5814C86.7249 64.3603 89.9387 63.4784 93.0254 62.8594C93.5935 62.7407 94.1532 62.6389 94.7129 62.5456C94.7892 62.5202 94.874 62.5117 94.9503 62.5032C95.0436 62.4778 95.1454 62.4608 95.2386 62.4524C95.722 62.3676 96.1969 62.2912 96.6633 62.2234C101.59 61.5111 106.042 61.4178 109.51 61.5789C110.579 61.6213 111.562 61.6977 112.427 61.7825C112.487 61.7909 112.546 61.7909 112.605 61.7994C112.877 61.8249 113.148 61.8588 113.419 61.8927C113.487 61.8927 113.564 61.9012 113.631 61.9097C113.767 61.9266 113.911 61.9436 114.047 61.9605L114.429 62.0114C115.692 62.1725 116.905 62.3676 118.075 62.588C123.909 63.7159 128.658 65.5814 132.516 67.8964H132.525C133.042 68.2017 133.542 68.5155 134.026 68.8462C146.499 77.1734 148.772 90.2578 149.586 95.8376C150.782 103.995 150.409 120.633 149.595 136.948L149.603 136.94Z" fill="#D0D4DA"/>
<path d="M116.098 26.6507L112.019 80.4215C112.019 80.4215 108.72 87.2987 100.495 88.6554C92.2695 90.0207 90.1919 78.1743 90.1919 78.1743L95.7123 60.0189L96.1533 58.5858C96.1533 58.5858 93.6517 59.561 90.6414 59.1031C86.7067 58.5095 83.4674 53.2181 82.1954 49.4106C81.7121 47.969 81.3983 45.3573 81.1948 42.2027C81.093 40.5746 81.0167 38.8108 80.9658 36.9791C80.686 27.1001 81.0846 15.4657 81.0846 15.4657L92.0829 11.5396L109.416 15.4318L116.089 26.6422L116.098 26.6507Z" fill="#F26E3A"/>
<path d="M108.297 53.8965C108.136 54.1254 106.05 55.9995 102.615 57.687C100.122 58.9081 98.0194 59.6713 95.7129 60.0274L96.1538 58.5943C96.4082 58.4926 97.6293 58.3484 101.208 57.1697C107.576 55.0752 107.975 54.0237 108.297 53.8965Z" fill="#C94C20"/>
<path d="M80.7883 19.4086C80.7883 19.4086 94.6783 26.3536 103.837 22.5971C108.662 20.6128 102.946 34.3756 104.6 36.8687C105.202 37.776 109.976 35.478 109.976 35.478C109.976 35.478 112.579 44.2462 111.112 52.3529L113.826 56.4911C114.275 45.3316 118.023 40.8627 118.023 40.8627C118.023 40.8627 123.807 28.5754 120.601 20.4517C120.601 20.4517 120.966 2.05035 92.8297 7.49442C87.4874 8.52896 75.0135 10.2504 75.0135 10.2504C74.3266 15.3977 81.0088 16.3983 81.0088 16.3983L74.9287 16.2372C77.4896 18.7387 80.7798 19.4086 80.7798 19.4086H80.7883Z" fill="#242D3A"/>
<path d="M111.953 35.7164C112.117 33.559 111.095 31.7223 109.671 31.6142C108.247 31.5061 106.959 33.1675 106.795 35.325C106.632 37.4825 107.654 39.3191 109.078 39.4272C110.502 39.5353 111.79 37.8739 111.953 35.7164Z" fill="#F26E3A"/>
<path d="M87.6396 48.3667C89.1406 48.3667 93.8469 48.1377 95.3224 47.8833C94.4066 49.3334 93.3975 49.893 91.5489 50.0711C89.1915 50.2916 87.6481 48.3751 87.6481 48.3751L87.6396 48.3667Z" fill="#C94C20"/>
<path d="M86.2831 34.5789C87.098 34.5789 87.7586 33.9183 87.7586 33.1034C87.7586 32.2885 87.098 31.6279 86.2831 31.6279C85.4682 31.6279 84.8076 32.2885 84.8076 33.1034C84.8076 33.9183 85.4682 34.5789 86.2831 34.5789Z" fill="#242D3A"/>
<path d="M94.2206 35.181C95.0355 35.181 95.6961 34.5204 95.6961 33.7055C95.6961 32.8906 95.0355 32.23 94.2206 32.23C93.4057 32.23 92.7451 32.8906 92.7451 33.7055C92.7451 34.5204 93.4057 35.181 94.2206 35.181Z" fill="#242D3A"/>
<path d="M83.0527 30.2114C83.0527 30.2114 83.5615 29.1853 84.5367 28.7867C85.7917 28.2779 87.0722 28.9818 87.0722 28.9818" stroke="#242D3A" stroke-width="0.649488" stroke-miterlimit="10" stroke-linecap="round"/>
<path d="M94.1182 29.195C94.1182 29.195 95.2036 28.8218 96.1703 29.2374C97.4168 29.7631 97.8239 31.1623 97.8239 31.1623" stroke="#242D3A" stroke-width="0.649488" stroke-miterlimit="10" stroke-linecap="round"/>
<path d="M100.181 42.499C101.783 42.499 103.081 41.2005 103.081 39.5988C103.081 37.9972 101.783 36.6987 100.181 36.6987C98.5797 36.6987 97.2812 37.9972 97.2812 39.5988C97.2812 41.2005 98.5797 42.499 100.181 42.499Z" fill="#EF503A"/>
<path d="M82.6967 42.4142C82.1709 42.4736 81.6537 42.3973 81.1958 42.2022C81.094 40.5741 81.0177 38.8103 80.9668 36.9786C81.2721 36.809 81.6197 36.6988 81.9929 36.6564C83.5871 36.4698 85.0371 37.5977 85.2237 39.1919C85.4187 40.7776 84.2739 42.2277 82.6882 42.4142H82.6967Z" fill="#EF503A"/>
<path d="M89.2676 153.102L95.2968 162.685L112.384 142.536L107.542 137.601L89.2676 153.102Z" fill="#F9FAFB"/>
<path d="M110.272 113.052L94.2537 113.493L92.8545 66.0822C92.8545 66.0822 92.8545 64.0471 94.1773 63.7757C94.7964 63.6485 95.4324 63.5552 96.0768 63.4704L101.521 68.058L108.542 63.1991C110.739 63.1821 112.765 63.1821 114.69 63.2584C117.59 63.3517 116.471 65.0646 115.75 67.6086C110.281 86.8325 110.281 113.061 110.281 113.061L110.272 113.052Z" fill="#FCDFD5"/>
<path d="M114.911 63.58L107.957 77.4107L101.47 69.4396L96.8231 75.6129L92.8545 65.1742L93.6262 64.3686L95.161 63.987L96.0768 64.7587L101.436 68.829L108.534 64.4789L113.562 60.9937L114.911 63.58Z" fill="#FABAAD"/>
<path d="M106.211 72.9595L103.217 68.0327L98.2735 72.5694C98.2735 72.5694 98.9604 75.69 99.7066 76.3939L100.801 77.4199L94.4746 142.918C94.4746 142.918 93.9488 151.771 94.5424 153.12C96.0942 156.656 101.606 167.179 101.606 167.179L110.705 153.221L104.837 77.4878L106.219 72.9595H106.211Z" fill="#F18B82"/>
<path d="M114.784 63.5639L107.441 75.4951L101.437 68.8299L96.4845 74.0789L93.1943 64.8444L94.178 63.7759L95.4839 60.7825L101.513 68.0582L113.699 58.1792L114.682 63.2502L114.784 63.5639Z" fill="#FCDFD5"/>
<path d="M100.08 173.099C94.1527 172.878 88.4203 171.869 82.9932 170.173V131.132L85.5032 129.071L86.7413 128.054L87.4705 127.46L88.2252 126.833L91.8292 123.873L93.8135 122.245L94.9328 127.867L95.1363 128.851L95.6027 131.191L95.7214 131.793L95.8741 132.557L96.103 133.727L96.2472 134.414L98.4265 145.336L100.631 156.394L100.826 157.36L100.954 156.012L100.97 155.876L102.285 142.063L102.319 141.698L102.437 140.392L102.895 135.626L103.09 135.643L107.788 136.025L108.501 137.5L109.527 139.629L109.662 139.909L111.46 143.623L113.868 148.609L114.725 150.39L124.027 169.648C117.337 171.92 110.163 173.158 102.7 173.158C102.268 173.158 101.835 173.158 101.411 173.141C101.276 173.141 101.14 173.141 101.013 173.133C100.937 173.133 100.869 173.133 100.801 173.133C100.555 173.133 100.318 173.124 100.08 173.107V173.099Z" fill="#D0D4DA"/>
<path d="M118.702 106.582C118.956 106.811 116.489 114.35 113.309 123.661C113.19 123.983 113.08 124.314 112.961 124.644C111.799 128.045 110.544 131.657 109.298 135.219C109.035 135.982 108.763 136.745 108.5 137.5C108.407 137.771 108.314 138.034 108.221 138.297C107.585 140.095 106.966 141.858 106.372 143.546C106.245 143.911 106.118 144.267 105.99 144.614C104.702 148.261 103.531 151.525 102.615 154.052C102.141 155.375 101.734 156.495 101.411 157.36C101.31 157.631 101.327 161.744 101.36 166.721C101.36 166.721 101.369 166.721 101.36 166.73C101.386 168.79 101.403 170.995 101.411 173.141C101.276 173.141 101.14 173.141 101.013 173.132C100.936 173.132 100.869 173.132 100.801 173.132C100.801 170.698 100.809 168.078 100.809 165.687C100.818 161.108 100.826 157.368 100.826 157.368C100.877 156.986 100.928 156.613 100.97 156.249C100.987 156.147 100.996 156.045 101.004 155.952C101.725 150.33 102.191 145.818 102.548 141.901C102.556 141.875 102.556 141.858 102.556 141.841C102.599 141.417 102.632 141.002 102.666 140.595C102.827 138.848 102.955 137.22 103.09 135.651C103.268 133.395 103.446 131.267 103.642 129.096C103.684 128.613 103.726 128.13 103.777 127.646C103.828 127.12 103.879 126.595 103.938 126.06C103.938 126.018 103.947 125.976 103.947 125.933C104.04 125.051 104.142 124.144 104.244 123.211C104.294 122.796 104.345 122.372 104.396 121.939C104.727 119.319 105.126 116.47 105.66 113.188C106.033 110.881 106.474 108.363 107 105.565C107.169 104.623 107.356 103.657 107.551 102.656C108.814 96.1774 109.917 89.19 110.917 82.1771C111.63 77.2758 112.283 72.3574 112.91 67.5748C112.952 67.1678 113.012 66.7607 113.063 66.3537C113.08 66.218 113.097 66.0823 113.122 65.9466C113.232 65.0393 113.351 64.132 113.47 63.2331C113.529 62.7921 113.58 62.3512 113.639 61.9102L113.716 61.2997C113.758 61.0114 113.792 60.7146 113.834 60.4263C113.877 60.121 113.911 59.8072 113.953 59.502L115.471 60.6383L118.083 62.5886L118.303 62.7582L120.593 87.9265L112.155 94.9817C112.155 94.9817 118.015 105.98 118.702 106.591V106.582Z" fill="#B6BDC6"/>
<path d="M101.012 173.132C100.936 173.132 100.868 173.132 100.8 173.132C100.554 173.132 100.317 173.124 100.079 173.107C100.156 170.385 100.24 167.408 100.308 164.729C100.427 160.743 100.512 157.411 100.529 156.529V156.3C100.045 154.536 99.0108 150.737 97.7134 145.954C96.9162 143.012 96.0259 139.696 95.11 136.27C94.7963 135.126 94.491 133.972 94.1772 132.811C94.067 132.378 93.9568 131.954 93.8465 131.53C93.6091 130.657 93.3801 129.783 93.1512 128.918C93.0664 128.588 92.9731 128.265 92.8883 127.935C92.5322 126.569 92.176 125.213 91.8283 123.881C91.3789 122.16 90.9379 120.489 90.5394 118.895C90.4546 118.581 90.3698 118.268 90.2935 117.962C89.6829 115.588 89.1402 113.426 88.6993 111.585C88.5975 111.178 88.5042 110.797 88.4194 110.432C88.3092 109.983 88.2159 109.55 88.1226 109.16C88.0378 108.804 87.97 108.473 87.9022 108.168C87.5121 106.447 87.3425 105.421 87.4442 105.353C88.2074 104.827 92.8035 96.4319 92.8035 96.4319L85.2988 88.393L92.193 63.4283L93.0325 62.8601L95.2288 61.3677V61.6051C95.2288 61.8849 95.2372 62.1648 95.2457 62.4531C95.2457 62.8347 95.2542 63.2163 95.2542 63.5979C95.2627 63.759 95.2627 63.9201 95.2627 64.0812C95.322 66.515 95.4323 69.008 95.5764 71.5435C95.5934 71.8573 95.6103 72.171 95.6358 72.4933C95.9411 77.7168 96.4075 83.0761 96.9078 88.3676C97.3826 93.3707 97.8829 98.3144 98.3239 103.012C98.3917 103.775 98.4596 104.539 98.5274 105.293C98.7903 108.304 99.0277 110.975 99.2397 113.366C99.4602 115.936 99.6552 118.183 99.8248 120.209C99.8588 120.642 99.8927 121.049 99.9266 121.448C100.011 122.507 100.088 123.5 100.156 124.441C100.308 126.493 100.435 128.308 100.529 130.029C100.554 130.411 100.571 130.792 100.588 131.165C100.605 131.479 100.622 131.793 100.639 132.098C100.639 132.175 100.639 132.242 100.647 132.319C100.664 132.726 100.681 133.133 100.698 133.531C100.766 135.295 100.809 137.059 100.842 139.009C100.851 139.493 100.859 139.976 100.868 140.476C100.876 141.358 100.885 142.274 100.893 143.249C100.927 146.633 100.944 150.661 100.97 155.884V156.249C100.97 156.63 100.978 157.012 100.978 157.402C100.978 157.402 101.02 161.26 101.02 166.094C101.029 168.333 101.029 170.775 101.012 173.141V173.132Z" fill="#B6BDC6"/>
<path d="M162.611 135.083C162.289 135.795 161.949 136.482 161.602 137.169C160.644 139.035 159.601 140.841 158.473 142.596C157.438 144.224 156.336 145.793 155.157 147.311C153.665 149.27 152.053 151.136 150.34 152.899C150.324 153.128 150.315 153.349 150.298 153.569C150.188 153.476 150.086 153.374 149.976 153.281C149.628 153.637 149.289 153.976 148.933 154.324C148.831 154.231 148.721 154.137 148.611 154.036C145.354 151.059 141.954 145.827 139.028 139.84H139.02C138.35 138.475 137.706 137.067 137.095 135.643C136.501 134.261 135.933 132.853 135.407 131.445C135.255 131.047 135.102 130.657 134.967 130.258C132.94 124.653 131.515 119.073 131.1 114.511C130.871 111.975 130.625 109.474 130.37 107.032C128.462 88.3421 126.495 72.7477 132.558 69.5083C132.864 69.3472 133.406 69.0419 134.034 68.8384C134.254 68.7706 134.483 68.7112 134.721 68.6773C135.128 68.6095 135.552 68.618 135.959 68.7452C137.85 69.3387 142.225 74.1214 146.652 81.4141C146.669 81.431 146.677 81.448 146.677 81.465C150.434 87.6553 154.224 95.6602 156.539 104.428C160.058 117.742 161.966 127.663 162.611 135.083Z" fill="#B6BDC6"/>
<path d="M161.601 137.169C160.643 139.034 159.6 140.841 158.472 142.596C157.438 144.224 156.335 145.793 155.157 147.311C153.664 149.27 152.053 151.135 150.34 152.899C150.323 153.128 150.315 153.348 150.298 153.569C150.188 153.476 150.086 153.374 149.976 153.28C149.569 152.882 149.162 152.441 148.738 151.949C146.651 149.498 144.455 145.827 142.301 141.4C141.199 139.136 140.105 136.677 139.037 134.082C138.808 133.522 138.579 132.954 138.35 132.386C138.189 131.971 138.027 131.547 137.858 131.123C135.772 125.721 133.821 119.87 132.193 114.078C131.523 111.712 130.913 109.355 130.37 107.031C125.961 88.4265 125.443 71.984 130.641 68.3885C131.261 67.9561 131.905 67.8289 132.524 67.8882H132.532C133.338 67.9476 134.101 68.3037 134.72 68.6769C135.373 69.0585 135.874 69.457 136.103 69.5248C138.189 70.1693 144.15 77.4535 149.34 88.3332C151.672 93.2091 153.842 98.7973 155.437 104.835C159.32 119.539 161.152 129.868 161.601 137.169Z" fill="#D0D4DA"/>
<path d="M92.1263 108.99L97.5449 126.823C97.7654 127.34 97.5025 127.781 96.9428 127.798L87.0383 128.087C86.4871 128.104 85.8596 127.688 85.6307 127.171L78.957 110.101C78.957 108.897 80.653 108.379 80.8141 108.371L90.7186 108.083C91.2698 108.066 91.8973 108.473 92.1263 108.998V108.99Z" fill="#131820"/>
<path d="M90.9471 110.024L96.3657 127.857C96.5862 128.374 96.3233 128.815 95.7636 128.832L85.8592 129.112C85.308 129.129 84.6805 128.713 84.4515 128.196L79.0329 110.363C78.8124 109.837 79.0753 109.405 79.635 109.388L89.5394 109.108C90.0906 109.091 90.7181 109.498 90.9471 110.024Z" fill="#1C53B5"/>
<path d="M88.2581 110.924C88.2835 111.356 88.6821 111.695 89.14 111.67C89.6064 111.644 89.9625 111.28 89.9371 110.839C89.9117 110.406 89.5131 110.067 89.0552 110.093C88.5973 110.118 88.2327 110.483 88.2581 110.924Z" fill="#1A2E35"/>
<path d="M96.8579 134.048C96.6374 133.963 91.4138 131.843 88.6833 128.926C85.8849 125.932 85.2913 123.219 85.9273 121.972C86.1393 121.557 86.5888 121.302 87.123 121.302C87.1484 121.302 87.1823 121.302 87.2078 121.302C87.1399 120.403 87.4622 120.107 87.6063 119.962C87.7844 119.801 88.0982 119.606 88.5985 119.606C88.6578 119.606 88.7087 119.606 88.7681 119.606C88.7426 119.114 88.8783 118.716 89.1836 118.436C89.5397 118.105 89.9892 117.927 90.481 117.927C90.8287 117.927 91.134 118.012 91.3714 118.114C91.4223 117.919 91.4901 117.724 91.5749 117.52C91.8971 116.791 92.5331 116.375 93.3302 116.375C94.0765 116.375 94.7125 116.757 94.8312 116.833L103.209 122.489L103.311 122.795C103.464 123.278 104.787 127.594 103.192 129.918C101.666 132.131 97.85 133.937 97.6889 134.014L97.2734 134.209L96.8409 134.039L96.8579 134.048Z" fill="#DB6137"/>
<path d="M97.2567 133.175C97.2567 133.175 92.05 131.089 89.4467 128.299C86.8434 125.509 86.4279 123.194 86.8434 122.38C87.0724 121.939 88.6072 122.787 88.6072 122.787C88.6072 122.787 87.9627 120.989 88.3274 120.642C88.692 120.294 90.3456 121.159 90.3456 121.159C90.3456 121.159 89.4721 119.531 89.9131 119.115C90.4643 118.598 91.219 119.115 91.219 119.115L92.4231 119.938C92.4231 119.938 92.05 118.971 92.5334 117.886C93.0167 116.8 94.2887 117.623 94.2887 117.623L102.37 123.075C102.37 123.075 103.761 127.392 102.37 129.41C100.979 131.428 97.2651 133.175 97.2651 133.175H97.2567Z" fill="#F26E3A"/>
<path d="M94.7539 133.412L99.1974 136.38L106.422 122.6L102.131 121.176L94.7539 133.412Z" fill="#FCDFD5"/>
<path d="M155.157 147.311C153.664 149.27 152.053 151.135 150.34 152.899C150.323 153.128 150.315 153.348 150.298 153.569C150.188 153.476 150.086 153.374 149.976 153.281C149.628 153.637 149.289 153.976 148.933 154.324C148.814 154.442 148.695 154.561 148.568 154.68C147.567 155.638 146.541 156.571 145.481 157.461C145.04 157.843 144.599 158.207 144.141 158.572C133.075 158.987 122.806 155.019 114.725 150.389C113.147 149.482 111.655 148.557 110.264 147.633C109.781 147.319 109.315 146.997 108.857 146.683C107.839 145.979 106.881 145.293 105.99 144.614C104.71 143.656 103.565 142.74 102.548 141.892C102.539 141.892 102.522 141.875 102.514 141.867C102.446 141.816 102.378 141.756 102.319 141.697C101.793 141.265 101.31 140.849 100.869 140.467C98.8165 138.661 97.5954 137.415 97.4004 137.211L96.8916 136.685L97.6293 135.337L98.5791 133.582H98.5876L99.478 131.928H99.4864L100.529 130.02L102.904 125.662L103.692 124.229L104.244 123.202L104.863 122.083L105.355 121.176L106.253 121.464C106.889 121.668 107.568 121.88 108.28 122.1C109.823 122.583 111.528 123.109 113.309 123.66C121.89 126.315 132.202 129.452 134.966 130.258C135.221 130.334 135.407 130.385 135.526 130.419C136.459 130.673 137.222 130.902 137.858 131.123C140.215 131.92 140.656 132.505 140.275 133.082C140.054 133.404 139.579 133.726 139.037 134.082C138.367 134.532 137.603 135.023 137.095 135.642C136.51 136.355 136.272 137.237 136.934 138.39C137.146 138.763 137.909 139.255 139.02 139.84H139.028C139.918 140.306 141.038 140.832 142.301 141.4C144.362 142.325 146.796 143.368 149.195 144.445C149.73 144.69 150.264 144.928 150.798 145.174C152.341 145.886 153.825 146.607 155.157 147.311Z" fill="#B6BDC6"/>
<path d="M158.472 142.596C157.437 144.224 156.335 145.793 155.156 147.31C153.664 149.269 152.053 151.135 150.34 152.899C150.323 153.128 150.314 153.348 150.297 153.569C150.187 153.475 150.085 153.374 149.975 153.28C149.627 153.636 149.288 153.976 148.932 154.323C148.813 154.442 148.694 154.561 148.567 154.679C147.567 155.638 146.541 156.57 145.481 157.461C145.099 157.486 144.717 157.512 144.319 157.529C132.82 158.029 122.085 153.56 113.876 148.616H113.868C112.562 147.828 111.324 147.039 110.154 146.242C109.958 146.115 109.763 145.979 109.568 145.843C108.432 145.063 107.364 144.292 106.371 143.545C105.261 142.706 104.252 141.9 103.353 141.154C103.115 140.967 102.886 140.772 102.666 140.586C102.589 140.527 102.513 140.459 102.437 140.391C101.852 139.899 101.317 139.433 100.843 139.009C99.1467 137.491 98.2139 136.524 98.2139 136.524L98.5276 135.939L100.436 132.462L100.639 132.089L101.64 130.257H101.648L102.895 127.942V127.917L103.938 126.051L103.955 126.009L105.905 122.439C105.905 122.439 105.939 122.447 105.998 122.464L106.075 122.49C106.159 122.515 106.27 122.558 106.414 122.6C106.838 122.727 107.508 122.939 108.364 123.219C109.577 123.592 111.163 124.084 112.96 124.644C121.126 127.196 133.677 131.088 135.288 131.419C135.322 131.428 135.364 131.436 135.407 131.445C135.958 131.572 137.001 131.911 138.349 132.386C138.934 132.589 139.579 132.827 140.274 133.081C143.038 134.116 146.49 135.515 149.602 136.94C150.145 137.194 150.67 137.44 151.179 137.686C153.74 138.924 155.919 140.145 157.064 141.146C157.59 141.603 158.056 142.087 158.472 142.596Z" fill="#D0D4DA"/>
<path d="M63.5564 92.1748C63.5564 92.1748 63.5564 92.2342 63.5564 92.2596C63.5564 92.4886 63.5395 92.726 63.5225 92.9634V93.0398C63.5056 93.1754 63.4886 93.3196 63.4716 93.4553C63.4547 93.5909 63.4292 93.7351 63.3953 93.8793C63.336 94.1676 63.2596 94.4474 63.1748 94.7103C63.0816 94.9901 62.9713 95.27 62.8356 95.5413C62.7085 95.8042 62.5813 96.0331 62.4456 96.2451C62.2845 96.4995 62.1149 96.7115 61.9283 96.9066C61.8265 97.0168 61.7248 97.1101 61.6146 97.2034C61.5637 97.2458 61.5128 97.2882 61.4619 97.3221C61.5128 97.339 61.5552 97.3475 61.6061 97.356L61.7333 97.3814L61.8181 97.3984C61.9453 97.4238 62.0725 97.4662 62.1997 97.5086C62.4286 97.585 62.6491 97.6698 62.8441 97.763C63.0646 97.8733 63.2766 98.0005 63.4971 98.1531C63.7006 98.2973 63.8872 98.4499 64.0652 98.6025C64.4383 98.9417 64.7775 99.3318 65.0828 99.7812C65.3202 100.12 65.5492 100.502 65.7951 100.985C65.7951 100.951 65.7951 100.909 65.7951 100.875C65.7442 100.451 65.7527 100.002 65.8036 99.5353C65.863 99.0605 65.9732 98.5856 66.1343 98.1277C66.2954 97.6528 66.5074 97.1949 66.7618 96.7709C66.9993 96.3723 67.2706 96.0077 67.5674 95.6939H67.5335C67.4741 95.6685 67.4148 95.66 67.3639 95.6431C67.0501 95.5752 66.7873 95.4989 66.5498 95.4141C66.2785 95.3124 66.0326 95.1852 65.8206 95.041C65.617 94.9053 65.4135 94.7442 65.2185 94.5746C65.0319 94.405 64.8539 94.2269 64.6843 94.0404C64.3451 93.6503 64.0652 93.2348 63.8363 92.7938C63.726 92.5903 63.6412 92.3783 63.5649 92.1833L63.5564 92.1748Z" fill="#FFFDF2"/>
<path d="M81.9835 97.9077L81.9581 97.9586C81.8902 98.0858 81.7969 98.2045 81.7121 98.3232H81.7037L81.6867 98.3656C81.6358 98.4335 81.5849 98.5013 81.5256 98.5691C81.4662 98.637 81.4153 98.7048 81.356 98.7727C81.2288 98.9083 81.1016 99.0355 80.9744 99.1458C80.8387 99.2645 80.6861 99.3747 80.525 99.485C80.3723 99.5867 80.2282 99.663 80.0925 99.7309C79.9229 99.8157 79.7618 99.875 79.6091 99.9174C79.5243 99.9429 79.4311 99.9598 79.3463 99.9768C79.3039 99.9768 79.2699 99.9853 79.2275 99.9938C79.253 100.019 79.2699 100.036 79.2954 100.062L79.3547 100.121L79.3971 100.155C79.4565 100.214 79.5159 100.274 79.5667 100.341C79.6685 100.452 79.7533 100.57 79.8296 100.681C79.9144 100.808 79.9822 100.944 80.0501 101.096C80.1094 101.232 80.1603 101.376 80.2027 101.52C80.296 101.825 80.3469 102.131 80.3723 102.478C80.3893 102.733 80.3893 103.013 80.3723 103.343C80.3808 103.326 80.3978 103.301 80.4062 103.284C80.5165 103.038 80.6606 102.801 80.8387 102.572C81.0253 102.334 81.2373 102.122 81.4662 101.927C81.7037 101.724 81.9665 101.546 82.2379 101.401C82.4923 101.266 82.7552 101.156 83.0096 101.088L82.9926 101.071C82.9926 101.071 82.9417 101.02 82.9163 100.994C82.7721 100.859 82.6534 100.732 82.5601 100.613C82.4499 100.469 82.3566 100.324 82.2888 100.18C82.2209 100.045 82.1616 99.892 82.1192 99.7394C82.0683 99.5867 82.0344 99.4341 82.0089 99.2815C81.9496 98.9677 81.9326 98.6539 81.9581 98.3402C81.9665 98.196 81.9835 98.0604 82.0089 97.9247L81.9835 97.9077Z" fill="#FFFDF2"/>
<path d="M56.0266 99.043V99.0769C56.0775 99.1702 56.0945 99.2634 56.1199 99.3567V99.3906C56.1369 99.45 56.1538 99.5009 56.1623 99.5602C56.1708 99.6196 56.1793 99.679 56.1877 99.7383C56.2047 99.857 56.2132 99.9758 56.2132 100.094C56.2132 100.213 56.2132 100.34 56.1962 100.468C56.1792 100.586 56.1623 100.697 56.1368 100.798C56.1114 100.917 56.069 101.027 56.0266 101.129C56.0012 101.188 55.9757 101.239 55.9418 101.29C55.9249 101.316 55.9164 101.333 55.8994 101.358C55.9164 101.358 55.9418 101.358 55.9588 101.358H56.0436C56.0944 101.341 56.1538 101.333 56.2132 101.341C56.3149 101.341 56.4082 101.341 56.5015 101.358C56.6032 101.375 56.705 101.392 56.8068 101.426C56.9 101.451 57.0018 101.485 57.0866 101.528C57.2816 101.612 57.4597 101.714 57.6463 101.85C57.7819 101.952 57.9261 102.07 58.0872 102.223C58.0872 102.206 58.0787 102.197 58.0703 102.181C57.9939 102.019 57.9346 101.85 57.8922 101.655C57.8498 101.46 57.8328 101.256 57.8328 101.061C57.8328 100.849 57.8498 100.646 57.8922 100.442C57.9346 100.256 57.9855 100.078 58.0618 99.9079H58.0448C58.0448 99.9079 57.9939 99.9079 57.977 99.9164C57.8413 99.9334 57.7311 99.9418 57.6293 99.9334C57.5106 99.9334 57.4003 99.9164 57.2901 99.891C57.1884 99.8655 57.0951 99.8316 56.9933 99.7892C56.9 99.7468 56.7983 99.7044 56.7135 99.6535C56.5269 99.5518 56.3573 99.4246 56.2132 99.2804C56.1453 99.2126 56.0775 99.1447 56.0181 99.0769L56.0266 99.043Z" fill="#FFFDF2"/>
</svg>
