<svg width="288" height="231" viewBox="0 0 288 231" fill="none" xmlns="http://www.w3.org/2000/svg">
<g clip-path="url(#clip0_1_11616)">
<path d="M218.619 56.1169C227.961 48.3587 236.918 40.1405 245.468 31.4941C251.974 37.615 258.598 43.843 264.323 50.6594C255.312 60.2688 245.607 69.7391 234.135 76.1703C228.828 69.8996 222.193 63.1153 218.619 56.1169Z" fill="#6C0954"/>
<path d="M218.427 56.3847C222.172 63.2654 225.2 70.8095 229.395 77.3264C229.598 76.7806 229.802 76.2456 230.016 75.6998C230.508 76.0208 230.947 76.4168 231.321 76.8662L231.535 75.9459C232.338 76.3205 233.28 76.3847 234.125 76.1065C228.807 69.7394 224.045 62.1632 218.427 56.374V56.3847Z" fill="#4F0443"/>
<path d="M218.556 56.0415C222.012 58.888 225.254 62.1089 228.818 64.7734C239.208 59.3053 247.566 49.8885 255.121 40.9212C252.242 37.3685 248.946 34.1368 245.372 31.376C236.651 40.033 228.037 48.4439 218.545 56.0308L218.556 56.0415Z" fill="#A31866"/>
<path d="M227.779 48.7864C221.337 45.2016 228.132 40.5896 231.557 37.7645C233.354 36.3306 235.184 39.7549 236.532 40.7394C236.993 40.3541 237.389 39.894 237.72 39.3911C236.19 38.4494 233.526 34.4258 231.878 34.993C228.015 36.8763 224.034 40.6859 222.932 44.9876C223.188 47.2562 225.5 48.7115 226.977 50.2632C227.351 49.91 227.694 49.5141 227.972 49.0861C227.822 48.8613 227.619 48.6794 227.768 48.7971L227.779 48.7864Z" fill="#4F0443"/>
<path d="M239.882 53.9009C240.62 55.0352 241.369 56.5761 242.632 57.1112C244.333 56.2016 246.174 54.7998 247.18 53.1091C247.447 52.039 245.457 50.391 244.676 49.7383C243.435 50.0807 239.85 52.7666 239.871 53.9009H239.882Z" fill="#EE6186"/>
<path d="M244.087 51.0226C242.279 52.1248 239.625 54.2971 242.964 55.3993C244.023 54.7251 245.179 53.837 246.003 52.8953C245.864 52.1462 244.943 50.7872 244.087 51.0226Z" fill="#A31866"/>
<path d="M287.367 93.5487L258.084 84.9912L249.725 113.597L279.008 122.154L287.367 93.5487Z" fill="#3ABCB4"/>
<path d="M257.688 111.825C257.474 111.772 257.378 111.504 257.506 111.322L264.098 102.334C264.248 102.12 264.622 102.184 264.686 102.441L266.313 108.305L270.219 102.002C270.272 101.916 270.358 101.863 270.454 101.852C270.55 101.638 273.268 104.163 273.365 104.196L278.705 95.7097C278.801 95.5599 279.004 95.5171 279.154 95.6134C279.314 95.7097 279.357 95.9024 279.261 96.0629L273.718 104.87C273.664 104.945 273.579 105.009 273.483 105.02C273.386 105.244 270.679 102.708 270.572 102.676C265.35 110.199 266.805 112.788 264.216 103.275L258.03 111.718C257.945 111.836 257.806 111.879 257.667 111.836L257.688 111.825Z" fill="#052F47"/>
<path d="M279.196 98.1494C279.068 98.1173 278.972 97.9996 278.961 97.8605L278.8 96.127L276.874 96.8225C276.703 96.8867 276.51 96.8011 276.446 96.6299C276.382 96.4587 276.468 96.2768 276.639 96.2126L278.972 95.3779C279.164 95.303 279.4 95.4421 279.421 95.6561L279.624 97.8177C279.646 98.0424 279.421 98.2136 279.207 98.1494H279.196Z" fill="#005B59"/>
<path d="M70.8721 53.9978L68.1541 47.7913L65.2006 49.0861C64.5265 48.2407 63.7453 47.5023 62.8999 46.871L64.077 43.8747L57.7635 41.4028L56.5864 44.3991C55.5377 44.2921 54.4677 44.3028 53.3976 44.4633L52.1028 41.5098L45.8962 44.2279L47.191 47.1813C46.3457 47.8555 45.6073 48.6366 44.976 49.482L41.9797 48.3049L39.5078 54.6184L42.5041 55.7955C42.3971 56.8442 42.4078 57.9143 42.5683 58.9844L39.6148 60.2792L42.3328 66.4857L45.2863 65.1909C45.9604 66.0363 46.7416 66.7746 47.587 67.406L46.4099 70.4022L52.7234 72.8741L53.9005 69.8779C54.9492 69.9849 56.0193 69.9742 57.0894 69.8137L58.3842 72.7671L64.5907 70.0491L63.2959 67.0957C64.1413 66.4215 64.8796 65.6403 65.511 64.795L68.5072 65.9721L70.9791 59.6585L67.9829 58.4814C68.0899 57.4328 68.0792 56.3627 67.9187 55.2926L70.8721 53.9978ZM58.0739 63.5965C54.5105 65.1588 50.3478 63.5323 48.7855 59.9582C47.2232 56.3948 48.8497 52.2321 52.4238 50.6698C55.9872 49.1075 60.1498 50.734 61.7121 54.3081C63.2745 57.8715 61.6479 62.0341 58.0739 63.5965Z" fill="#616161"/>
<path d="M31.3431 123.735C-16.308 125.254 21.2735 63.1783 36.5437 105.607C36.9396 109.545 38.0204 116.49 35.602 119.583C35.3131 120.171 33.5046 123.788 31.3431 123.735Z" fill="#FFBF1D"/>
<path d="M31.5569 129.225C30.1872 127.877 28.9352 126.411 27.833 124.838C31.0861 121.959 33.9967 118.417 37.8383 116.32C39.3044 118.278 41.0165 120.932 42.4825 122.89C40.6848 124.324 34.3926 129.653 32.627 130.466C32.0385 129.921 31.589 129.246 31.5676 129.225H31.5569Z" fill="#B0B0B0"/>
<path d="M30.6046 126.122C31.4393 125.619 43.2531 116.266 38.106 117.7C37.7956 119.081 25.9819 126.881 30.6046 126.122Z" fill="#616161"/>
<path d="M32.8088 128.005C33.8575 127.224 43.5311 119.744 40.0533 119.455C37.453 122.055 35.0132 124.838 31.9527 126.903C31.2037 127.384 32.0704 128.476 32.8088 127.994V128.005Z" fill="#616161"/>
<path d="M14.9285 113.538C6.98846 103.051 22.783 90.6698 31.0762 100.878C39.0162 111.365 23.2217 123.746 14.9285 113.538Z" fill="#FFFDF2"/>
<path d="M30.1871 121.52C15.5803 115.442 20.4493 105.351 24.034 111.793C23.9698 112.242 23.5097 112.017 23.285 111.825C20.4707 109.171 24.644 104.302 27.4583 107.437C28.5712 108.336 27.9827 110.519 26.8484 108.614C25.789 107.106 26.9126 104.109 28.9993 105.233C33.0121 108.85 31.8136 115.131 32.8088 119.957C32.98 120.835 34.3497 120.653 34.1785 119.775C33.8575 118.149 33.8254 116.458 33.6648 114.81C33.194 110.926 32.9693 104.987 28.5177 103.628C26.0672 103.307 24.6975 105.886 25.1897 108.015C25.575 111.311 30.1978 111.846 29.331 107.93C27.0624 102.108 18.8762 106.175 21.4551 111.589C22.5573 114.532 26.6986 113.58 25.0292 110.423C20.2138 104.762 16.4471 112.221 20.7168 116.405C21.0164 117.807 32.4235 125.854 30.2085 121.509L30.1871 121.52Z" fill="#616161"/>
<path d="M8.42154 88.1117C9.73775 89.1818 10.3798 92.5526 12.2525 92.253C13.055 91.0866 10.0909 88.5291 9.50233 87.2663C8.94589 86.5601 7.85439 87.4162 8.42154 88.1117Z" fill="#FFBF1D"/>
<path d="M18.2344 87.5769C18.1809 87.4271 18.0632 87.0419 18.0739 87.0526C17.5282 86.143 17.999 80.5143 16.2227 83.0612C16.3725 84.4737 16.0086 88.4544 17.8706 88.4865C18.2237 88.3153 18.3628 87.9515 18.2344 87.5876V87.5769Z" fill="#FFBF1D"/>
<path d="M0.620939 99.0591C2.15117 98.7702 6.1426 100.857 6.60273 98.9414C6.52783 98.5348 6.2068 98.3422 5.82157 98.3422C5.09391 98.5027 -2.11849 96.523 0.620939 99.0591Z" fill="#FFBF1D"/>
<path d="M188.828 38.2239C182.289 37.8494 173.033 32.7557 169.373 27.9831C168.678 27.1913 168.592 26.0356 169.159 25.1474C170.925 22.3973 172.701 19.6364 174.467 16.8863C175.13 15.859 176.468 15.5059 177.549 16.0731L194.306 24.912C195.419 25.5005 195.869 26.8488 195.344 27.9831L191.246 36.8649C190.818 37.7958 189.833 38.3416 188.817 38.2239H188.828Z" fill="#3B3B4F"/>
<path d="M188.828 38.2237C186.763 37.9775 184.034 37.4425 181.038 36.244L187.887 21.5303L194.307 24.9225C195.42 25.511 195.87 26.8593 195.345 27.9936L191.247 36.8753C190.819 37.8063 189.834 38.3521 188.818 38.2344L188.828 38.2237Z" fill="#46465E"/>
<path d="M203.905 29.2775C197.731 30.7114 188.689 31.7815 183.317 30.2406C177.849 25.9388 170.711 17.9025 166.816 11.0646C165.575 8.18606 169.523 8.32517 171.449 7.97204C176.5 7.15877 184.558 8.01484 188.442 9.34175C191.835 11.4605 195.655 15.2379 198.79 18.6836C201.016 21.1769 203.274 24.1946 204.9 26.7414C205.521 27.7045 205.007 29.01 203.895 29.2775H203.905Z" fill="#46465E"/>
<path d="M203.906 29.2567C197.732 30.6906 188.689 31.7607 183.317 30.2198C178.106 26.1427 170.776 18.0208 166.817 11.0438C166.431 10.4017 166.538 9.63128 166.967 9.10693C166.849 9.53497 166.892 10.0058 167.138 10.4338C171.097 17.4108 178.416 25.5221 183.638 29.6098C186.485 31.0116 201.873 30.2305 205.115 28.0903C204.955 28.6468 204.527 29.1069 203.906 29.2567Z" fill="#2F2F3F"/>
<path d="M169.342 19.0693L168.785 18.7161C169.481 17.8173 170.337 15.5594 171.717 15.5594C176.565 15.0885 181.498 15.4738 186.228 16.6723L186.067 17.3143C181.423 16.1265 176.565 15.752 171.781 16.2121C171.375 16.2549 171.011 16.469 170.786 16.8221L169.342 19.0693Z" fill="#E2984D"/>
<path d="M166.784 22.4609C166.024 21.7332 168.881 18.63 168.678 18.8547C168.967 18.5444 169.449 19.0045 169.16 19.3041C169.149 19.3148 167.672 20.8771 167.255 22.2576C167.201 22.4502 166.966 22.5465 166.784 22.4502V22.4609Z" fill="#E2984D"/>
<path d="M168.389 22.8145C167.683 21.6267 168.817 18.7267 168.742 18.791C168.87 18.3843 169.512 18.5983 169.363 19.005C169.363 19.0264 168.667 21.0595 168.87 22.4828C168.913 22.7396 168.614 22.9429 168.389 22.8145Z" fill="#E2984D"/>
<path d="M167.49 22.9421C166.805 22.0218 168.678 18.7688 168.517 19.0149C168.721 18.6404 169.309 18.9721 169.095 19.3359C169.095 19.3573 168.036 21.23 167.982 22.6639C167.982 22.8993 167.704 23.0491 167.501 22.9421H167.49Z" fill="#E2984D"/>
<path d="M166.078 22.001C165.232 21.3055 168.742 18.7586 168.646 18.855C168.999 18.6088 169.374 19.1653 169.01 19.4007C168.988 19.4114 167.223 20.6206 166.517 21.8726C166.431 22.0331 166.238 22.0866 166.078 22.001Z" fill="#E2984D"/>
<path d="M189.042 17.4106C187.961 19.1442 185.007 17.9992 184.248 16.4689C183.969 15.9339 183.884 15.3668 184.151 14.8424C185.339 12.5952 190.219 15.1741 189.031 17.4213L189.042 17.4106Z" fill="#3B3B4F"/>
<path d="M169.695 19.5718C169.213 20.4814 167.672 19.6681 168.143 18.7585C168.625 17.8489 170.166 18.6622 169.695 19.5718Z" fill="#D18A4A"/>
<path d="M189.042 17.4105C188.935 17.571 188.496 18.5126 188.368 18.6411C187.768 19.4008 186.399 19.5185 185.157 18.8551C183.916 18.1916 183.242 17.0145 183.52 16.0835C183.542 15.9123 184.077 15.0135 184.152 14.8315C183.124 17.2285 187.64 19.6041 189.031 17.4105H189.042Z" fill="#2F2F3F"/>
<path d="M183.52 16.0728H183.499L183.617 15.8374C183.574 15.9123 183.542 15.9979 183.52 16.0728Z" fill="#46465E"/>
<path d="M188.508 18.4165L188.39 18.6425H188.368C188.422 18.5671 188.465 18.4918 188.508 18.4165Z" fill="#46465E"/>
<path d="M112.456 86.9887C112.456 86.9887 110.294 92.1465 108.657 102.056C107.02 111.965 111.375 120.226 111.375 120.226C111.375 120.226 132.328 118.374 143.232 119.519C154.136 120.664 162.269 116.159 162.269 116.159L160.556 105.523L154.928 84.6559L124.109 78.2354L113.226 84.185L112.445 86.9887H112.456Z" fill="#242D3A"/>
<path d="M140.375 112.082H124.12V125.768H140.375V112.082Z" fill="#F79B67"/>
<path d="M140.375 114.704V117.005C138.545 117.615 135.292 118.011 131.589 118.011C128.657 118.011 125.993 117.765 124.12 117.358V114.351C126.003 113.944 128.657 113.698 131.589 113.698C135.292 113.698 138.534 114.105 140.375 114.704Z" fill="#E08051"/>
<path d="M114.36 98.6208C116.039 98.6208 117.399 97.0733 117.399 95.1644C117.399 93.2555 116.039 91.708 114.36 91.708C112.682 91.708 111.321 93.2555 111.321 95.1644C111.321 97.0733 112.682 98.6208 114.36 98.6208Z" fill="#E08051"/>
<path d="M115.484 81.4448C115.484 81.4448 114.799 92.8733 113.387 99.7326C111.974 106.592 116.736 115.334 125.757 116.79C142.226 119.444 149.663 110.209 149.898 107.469C150.144 104.73 146.003 85.0082 142.418 81.5625C138.834 78.1168 115.474 81.4341 115.474 81.4341L115.484 81.4448Z" fill="#F79B67"/>
<path d="M162.279 116.159C155.463 116.566 139.893 120.643 143.596 115.249C144.441 114.019 147.427 112.467 147.887 111.012C151.471 99.701 142.108 82.3121 139.326 81.8734C139.326 81.8734 126.132 89.0751 113.162 85.6508C113.162 85.6508 111.942 83.104 119.315 76.5229C124.12 72.2533 136.918 70.7337 145.928 74.051C154.939 77.3683 156.212 85.212 156.522 90.5411C156.865 96.3517 161.327 100.097 162.558 104.966C163.446 108.454 163.563 116.683 162.269 116.148L162.279 116.159Z" fill="#242D3A"/>
<path d="M146.892 98.6208C148.57 98.6208 149.931 97.0733 149.931 95.1644C149.931 93.2555 148.57 91.708 146.892 91.708C145.213 91.708 143.853 93.2555 143.853 95.1644C143.853 97.0733 145.213 98.6208 146.892 98.6208Z" fill="#F79B67"/>
<path d="M125.2 93.3452C126.004 93.3452 126.656 92.6936 126.656 91.8899C126.656 91.0861 126.004 90.4346 125.2 90.4346C124.397 90.4346 123.745 91.0861 123.745 91.8899C123.745 92.6936 124.397 93.3452 125.2 93.3452Z" fill="#242D3A"/>
<path d="M133.066 93.7729C133.869 93.7729 134.521 93.1214 134.521 92.3176C134.521 91.5139 133.869 90.8623 133.066 90.8623C132.262 90.8623 131.61 91.5139 131.61 92.3176C131.61 93.1214 132.262 93.7729 133.066 93.7729Z" fill="#242D3A"/>
<path d="M117.571 100.589C119.344 100.589 120.781 99.1517 120.781 97.3787C120.781 95.6057 119.344 94.1685 117.571 94.1685C115.798 94.1685 114.36 95.6057 114.36 97.3787C114.36 99.1517 115.798 100.589 117.571 100.589Z" fill="#F48062"/>
<path d="M140.374 101.017C142.147 101.017 143.585 99.5794 143.585 97.8065C143.585 96.0335 142.147 94.5962 140.374 94.5962C138.601 94.5962 137.164 96.0335 137.164 97.8065C137.164 99.5794 138.601 101.017 140.374 101.017Z" fill="#F48062"/>
<path d="M132.552 103.574C132.798 104.58 130.979 106.977 128.85 106.881C127.812 106.827 125.64 105.854 125.725 103.35C125.725 103.35 127.887 103.382 128.925 103.403C130.219 103.435 132.552 103.574 132.552 103.574Z" fill="#D1652F"/>
<path d="M122.793 90.2837C122.793 90.2837 122.739 90.2837 122.718 90.273C122.611 90.2302 122.568 90.1124 122.6 90.0054C122.622 89.9626 123.007 89.0102 123.874 88.5822C124.987 88.0258 126.174 88.5608 126.228 88.5822C126.324 88.625 126.378 88.7427 126.324 88.8497C126.281 88.9567 126.153 88.9889 126.057 88.946C126.057 88.946 124.987 88.4752 124.045 88.946C123.317 89.3099 122.975 90.1445 122.964 90.1552C122.932 90.2301 122.857 90.2837 122.771 90.2837H122.793Z" fill="#242D3A"/>
<path d="M135.506 90.2314C135.42 90.2314 135.345 90.1779 135.313 90.103C135.313 90.103 134.885 89.0115 133.89 88.6798C133.12 88.423 132.274 88.7654 132.274 88.7761C132.167 88.8189 132.049 88.7761 132.007 88.6691C131.964 88.5621 132.007 88.4444 132.114 88.4016C132.156 88.3802 133.098 87.9842 134.018 88.2946C135.195 88.6905 135.666 89.9104 135.688 89.9532C135.731 90.0602 135.677 90.1779 135.57 90.21C135.549 90.21 135.527 90.2207 135.495 90.2207L135.506 90.2314Z" fill="#242D3A"/>
<path d="M178.437 202.996C176.757 204.387 175.12 205.061 173.451 205.061C170.957 205.061 168.293 203.499 165.382 200.278C160.663 195.077 155.313 185.521 149.063 171.268C141.648 154.339 141.048 134.885 142.782 131.214C142.889 130.99 143.039 130.765 143.231 130.54C143.991 129.641 145.275 128.796 145.821 128.582C146.484 128.325 147.191 128.197 147.929 128.197C149.427 128.197 151.032 128.71 152.691 129.673C153.515 130.144 154.36 130.733 155.206 131.428C160.663 135.88 166.506 144.655 171.225 155.955C177.838 171.792 185.222 197.399 178.437 203.017V202.996Z" fill="#80C5FF"/>
<path d="M149.941 170.519C165.061 205.029 172.487 206.249 177.913 201.755C183.338 197.26 178.095 175.227 170.336 156.651C162.578 138.074 152.166 127.544 146.088 129.952C145.468 130.198 143.937 131.343 143.627 131.996C142.15 135.142 142.61 153.815 149.93 170.519H149.941Z" fill="#AADCFF"/>
<path d="M188.764 143.317L189.16 139.123C190.551 137.582 196.533 137.56 196.972 135.409C197.453 133.034 193.74 134.693 192.841 135.238C192.135 135.666 197.507 134.586 197.507 132.445C197.507 130.241 192.381 133.023 192.381 133.023C192.381 133.023 197.571 131.536 197.464 130.038C197.282 127.63 192.349 130.241 192.349 130.241C192.349 130.241 196.48 129.289 196.009 127.223C195.581 125.361 189.171 127.758 189.171 127.758C189.171 127.758 191.001 125.575 190.712 123.927C190.594 123.232 190.102 122.964 190.102 122.964C190.102 122.964 186.571 124.794 185.586 125.511C181.135 128.721 182.29 143.317 182.29 143.317H188.775H188.764Z" fill="#F79B67"/>
<path d="M176.479 204.933C178.512 204.045 180.728 201.712 183.071 198.01C195.484 178.341 193.248 144.42 193.141 142.986L193.087 142.162L180.342 137.015L180.075 137.967C178.074 145.212 173.312 162.419 171.375 169.171C170.669 171.643 171.482 174.489 171.311 174.971C170.519 177.154 168.892 192.788 170.305 198.78C170.305 198.78 169.47 200.471 170.112 201.851C171.418 204.655 173.911 206.046 176.479 204.922V204.933Z" fill="#80C5FF"/>
<path d="M192.37 143.115L180.802 138.438C180.802 138.438 172.884 167.106 172.028 169.46C171.172 171.815 165.714 191.119 166.988 196.534C168.261 201.948 174.007 209.856 182.515 197.165C195.184 178.256 192.37 143.115 192.37 143.115Z" fill="#AADCFF"/>
<path d="M166.474 210.08C166.11 222.333 165.447 231.001 165.447 231.001H100.567C100.567 231.001 103.061 171.889 105.008 160.642C108.283 141.691 110.434 131.942 118.352 125.8C120.546 124.099 122.643 123.039 124.12 122.387C125.265 123.029 128.422 124.591 132.649 124.216C136.619 123.863 139.315 122.001 140.375 121.199C140.792 121.316 141.477 121.52 142.29 121.83C142.29 121.83 148.4 124.184 154.05 130.594C154.874 131.536 155.698 132.552 156.512 133.644C156.918 134.19 157.314 134.746 157.721 135.335C166.72 148.443 167.191 186.1 166.474 210.07V210.08Z" fill="#AADCFF"/>
<path d="M94.8955 215.858C93.2262 215.944 91.5782 215.259 89.8661 213.771C82.964 207.779 89.7805 178.63 96.0405 160.492C102.6 141.487 111.717 128.496 118.716 128.154C119.454 128.121 120.192 128.121 120.834 128.496C127.341 132.305 110.808 171.16 111.343 172.37C113.151 176.425 120.481 170.668 118.523 176.671C109.706 203.755 101.423 215.548 94.8955 215.858Z" fill="#80C5FF"/>
<path d="M117.625 175.869C103.275 215.409 95.8805 217.153 90.3588 212.349C84.88 207.587 89.599 182.515 96.9398 161.252C104.281 139.989 115.645 124.912 121.766 127.319C122.387 127.565 123.082 130.316 123.403 131.022C124.955 134.489 124.58 156.725 117.625 175.859V175.869Z" fill="#AADCFF"/>
<path d="M163.425 166.56L155.249 195.259C154.918 196.094 155.324 196.8 156.159 196.822L171.087 197.282C171.921 197.303 172.874 196.651 173.205 195.805L183.264 168.325C183.264 166.389 180.717 165.565 180.471 165.532L165.544 165.072C164.709 165.051 163.757 165.704 163.425 166.549V166.56Z" fill="#131820"/>
<path d="M165.191 168.229L157.015 196.929C156.683 197.764 157.09 198.47 157.914 198.491L172.842 198.951C173.676 198.973 174.629 198.32 174.961 197.475L183.136 168.775C183.468 167.93 183.061 167.234 182.237 167.213L167.309 166.752C166.475 166.731 165.522 167.384 165.191 168.229Z" fill="#1C53B5"/>
<path d="M169.246 169.673C169.214 170.369 168.615 170.915 167.909 170.872C167.213 170.84 166.668 170.241 166.71 169.534C166.742 168.839 167.342 168.293 168.048 168.336C168.754 168.379 169.289 168.967 169.246 169.673Z" fill="#1A2E35"/>
<path d="M147.276 201.616L160.224 199.583C162.472 198.523 171.171 199.722 172.124 197.924C173.162 195.955 167.522 196.64 166.131 196.929C165.051 197.154 173.012 197.304 173.322 195.442C173.633 193.515 165.778 194.896 165.778 194.896C165.778 194.896 173.547 194.66 173.601 193.323C173.686 191.183 166.121 192.456 166.121 192.456C166.121 192.456 172.274 192.467 171.878 190.562C171.525 188.85 161.84 189.631 161.84 189.631C161.84 189.631 164.804 188.09 164.622 186.592C164.548 185.961 163.873 185.629 163.873 185.629C163.873 185.629 158.469 186.506 156.929 186.934C149.994 188.828 147.276 192.317 147.276 192.317V201.595V201.616Z" fill="#F79B67"/>
<path d="M89.4813 213.633C91.0864 215.378 94.0399 216.662 98.2667 217.464C120.696 221.713 149.898 204.12 151.129 203.371L151.835 202.943L151.29 187.213L150.337 187.363C143.114 188.508 125.928 191.215 119.166 192.21C116.683 192.574 114.489 194.714 113.986 194.746C111.739 194.896 97.2073 200.204 92.4561 204.377C92.4561 204.377 90.6156 204.259 89.6525 205.554C87.6942 208.187 87.4481 211.44 89.4706 213.633H89.4813Z" fill="#80C5FF"/>
<path d="M150.701 202.622L150.209 188.336C150.209 188.336 121.606 192.862 119.166 193.023C116.726 193.183 98.3526 195.741 94.0508 199.508C89.7597 203.274 83.5104 213.387 98.7806 216.501C120.846 220.995 150.701 202.622 150.701 202.622Z" fill="#AADCFF"/>
<path d="M164.29 159.7C164.29 159.7 164.29 159.764 164.29 159.796C164.29 160.032 164.28 160.289 164.258 160.524V160.61C164.237 160.749 164.226 160.899 164.205 161.038C164.183 161.177 164.162 161.327 164.13 161.477C164.066 161.776 163.991 162.065 163.895 162.333C163.798 162.622 163.68 162.91 163.541 163.199C163.413 163.478 163.274 163.713 163.135 163.927C162.964 164.184 162.792 164.409 162.6 164.612C162.493 164.719 162.386 164.826 162.279 164.912C162.225 164.954 162.172 164.997 162.118 165.04C162.172 165.051 162.214 165.061 162.268 165.072L162.396 165.104L162.482 165.126C162.621 165.158 162.75 165.19 162.878 165.243C163.113 165.318 163.338 165.404 163.541 165.511C163.766 165.628 163.991 165.757 164.216 165.917C164.419 166.067 164.622 166.217 164.804 166.388C165.189 166.741 165.542 167.137 165.863 167.608C166.11 167.961 166.345 168.357 166.602 168.849C166.602 168.807 166.602 168.775 166.602 168.732C166.548 168.293 166.559 167.833 166.613 167.351C166.677 166.859 166.784 166.367 166.955 165.885C167.126 165.393 167.34 164.912 167.608 164.473C167.854 164.055 168.132 163.681 168.442 163.349H168.41C168.346 163.328 168.293 163.317 168.228 163.296C167.907 163.221 167.629 163.146 167.383 163.05C167.105 162.943 166.848 162.814 166.623 162.664C166.409 162.525 166.206 162.365 166.003 162.183C165.81 162.001 165.617 161.819 165.457 161.626C165.104 161.23 164.815 160.792 164.569 160.332C164.462 160.118 164.365 159.904 164.28 159.7" fill="#FFFDF2"/>
<path d="M183.391 165.64L183.37 165.693C183.295 165.821 183.209 165.95 183.124 166.068L183.102 166.11C183.049 166.185 182.995 166.249 182.942 166.324C182.888 166.399 182.824 166.463 182.76 166.528C182.632 166.667 182.493 166.795 182.364 166.913C182.214 167.041 182.064 167.148 181.904 167.255C181.743 167.362 181.604 167.448 181.455 167.512C181.283 167.598 181.112 167.662 180.952 167.705C180.855 167.726 180.77 167.748 180.684 167.758C180.641 167.758 180.598 167.769 180.556 167.769C180.577 167.79 180.598 167.812 180.62 167.833L180.684 167.887L180.727 167.919C180.791 167.972 180.845 168.037 180.898 168.111C181.005 168.229 181.091 168.347 181.166 168.465C181.251 168.593 181.326 168.743 181.401 168.903C181.465 169.042 181.519 169.192 181.562 169.342C181.658 169.652 181.711 169.973 181.733 170.327C181.754 170.594 181.754 170.883 181.733 171.225C181.743 171.204 181.754 171.183 181.765 171.161C181.883 170.915 182.032 170.669 182.214 170.423C182.407 170.177 182.621 169.952 182.867 169.749C183.113 169.535 183.381 169.353 183.67 169.203C183.937 169.064 184.205 168.957 184.472 168.871V168.85C184.472 168.85 184.397 168.796 184.376 168.775C184.226 168.636 184.098 168.507 184.001 168.379C183.884 168.229 183.787 168.079 183.723 167.93C183.659 167.79 183.595 167.63 183.541 167.48C183.488 167.32 183.456 167.159 183.424 167.009C183.37 166.688 183.349 166.356 183.37 166.035C183.37 165.886 183.391 165.747 183.424 165.607" fill="#FFFDF2"/>
<path d="M156.49 166.816V166.848C156.543 166.944 156.565 167.041 156.586 167.137V167.169C156.607 167.222 156.618 167.287 156.629 167.34C156.64 167.404 156.65 167.458 156.661 167.522C156.682 167.651 156.682 167.768 156.682 167.886C156.682 168.014 156.682 168.143 156.661 168.271C156.65 168.4 156.629 168.507 156.607 168.614C156.575 168.742 156.543 168.849 156.49 168.956C156.468 169.01 156.436 169.074 156.404 169.117C156.393 169.138 156.372 169.159 156.361 169.191C156.383 169.191 156.404 169.191 156.426 169.191H156.522C156.575 169.17 156.64 169.17 156.693 169.17C156.8 169.17 156.896 169.17 156.993 169.181C157.1 169.191 157.207 169.213 157.314 169.245C157.41 169.277 157.517 169.309 157.603 169.352C157.806 169.438 157.988 169.545 158.18 169.684C158.32 169.791 158.469 169.908 158.641 170.069C158.641 170.058 158.63 170.037 158.619 170.026C158.544 169.866 158.48 169.684 158.437 169.48C158.394 169.277 158.373 169.074 158.373 168.86C158.373 168.646 158.394 168.432 158.437 168.218C158.48 168.025 158.534 167.832 158.609 167.661H158.598C158.598 167.661 158.544 167.661 158.523 167.661C158.384 167.683 158.266 167.683 158.159 167.683C158.031 167.683 157.924 167.661 157.806 167.64C157.699 167.618 157.603 167.576 157.496 167.533C157.399 167.49 157.292 167.447 157.207 167.394C157.014 167.287 156.843 167.158 156.682 167.008C156.607 166.944 156.543 166.869 156.479 166.794" fill="#FFFDF2"/>
<path d="M104.419 50.6477C105.543 37.935 107.779 12.9912 108.892 0.406993C108.924 0.0859664 108.56 -0.11735 108.304 0.0645647L81.6263 18.9623C81.4551 19.08 81.423 19.3155 81.5407 19.4867L103.745 50.8189C103.948 51.0971 104.387 50.9794 104.419 50.6369V50.6477ZM90.3797 21.3914L101.444 13.5584C100.984 18.7483 100.053 29.2031 99.5931 34.393L90.3904 21.4021L90.3797 21.3914Z" fill="#FFBF1D"/>
<path d="M85.1331 18.7198L82.374 20.6748L82.6648 21.0852L85.4239 19.1302L85.1331 18.7198Z" fill="#613802"/>
<path d="M89.5384 24.9327L86.7793 26.8877L87.0701 27.2981L89.8291 25.3431L89.5384 24.9327Z" fill="#613802"/>
<path d="M93.9329 31.1354L91.1738 33.0903L91.4646 33.5007L94.2237 31.5457L93.9329 31.1354Z" fill="#613802"/>
<path d="M98.3274 37.3375L95.5684 39.2925L95.8591 39.7028L98.6182 37.7479L98.3274 37.3375Z" fill="#613802"/>
<path d="M102.724 43.5465L99.9648 45.5015L100.256 45.9118L103.015 43.9569L102.724 43.5465Z" fill="#613802"/>
<path d="M84.9607 20.4855L83.1533 21.7661L83.4441 22.1765L85.2515 20.8958L84.9607 20.4855Z" fill="#613802"/>
<path d="M85.9031 21.8243L84.0957 23.105L84.3865 23.5153L86.1938 22.2347L85.9031 21.8243Z" fill="#613802"/>
<path d="M86.8542 23.1569L85.0469 24.4375L85.3376 24.8479L87.145 23.5672L86.8542 23.1569Z" fill="#613802"/>
<path d="M87.7966 24.4957L85.9893 25.7764L86.28 26.1867L88.0874 24.9061L87.7966 24.4957Z" fill="#613802"/>
<path d="M88.9532 26.8687L87.4951 27.9019L87.7859 28.3122L89.244 27.2791L88.9532 26.8687Z" fill="#613802"/>
<path d="M89.8956 28.2071L88.4375 29.2402L88.7283 29.6506L90.1864 28.6174L89.8956 28.2071Z" fill="#613802"/>
<path d="M90.8468 29.5396L89.3887 30.5728L89.6794 30.9831L91.1376 29.95L90.8468 29.5396Z" fill="#613802"/>
<path d="M91.7941 30.8697L90.3359 31.9028L90.6267 32.3132L92.0848 31.28L91.7941 30.8697Z" fill="#613802"/>
<path d="M93.7048 32.8517L91.8975 34.1323L92.1882 34.5427L93.9956 33.2621L93.7048 32.8517Z" fill="#613802"/>
<path d="M94.656 34.1842L92.8486 35.4648L93.1394 35.8752L94.9468 34.5946L94.656 34.1842Z" fill="#613802"/>
<path d="M95.6179 35.5167L93.8105 36.7974L94.1013 37.2077L95.9087 35.9271L95.6179 35.5167Z" fill="#613802"/>
<path d="M96.5603 36.8556L94.7529 38.1362L95.0437 38.5466L96.8511 37.266L96.5603 36.8556Z" fill="#613802"/>
<path d="M98.1003 39.0211L96.293 40.3018L96.5837 40.7121L98.3911 39.4315L98.1003 39.0211Z" fill="#613802"/>
<path d="M99.0427 40.3707L97.2354 41.6514L97.5261 42.0617L99.3335 40.7811L99.0427 40.3707Z" fill="#613802"/>
<path d="M99.9939 41.7037L98.1865 42.9844L98.4773 43.3947L100.285 42.1141L99.9939 41.7037Z" fill="#613802"/>
<path d="M100.936 43.0421L99.1289 44.3228L99.4197 44.7331L101.227 43.4525L100.936 43.0421Z" fill="#613802"/>
<path d="M85.5 18.5029L86.1634 18.032L85.9815 17.7752L86.217 17.604C86.3668 17.7966 86.4738 17.8715 86.6878 17.7645L86.8697 18.0213L85.7354 18.8239L85.5 18.4922V18.5029Z" fill="#613802"/>
<path d="M89.6523 24.3557C89.9734 24.0346 90.5298 24.5269 90.8615 24.4306C91.097 24.2487 90.7545 23.9704 90.5726 24.1952L90.3586 23.8955C91.3859 23.2107 91.8781 25.49 90.2409 24.6018L90.6047 25.1154L90.3265 25.308L89.6523 24.3557Z" fill="#613802"/>
<path d="M94.4679 30.3051L94.6926 30.6154C94.2967 31.0006 95.217 31.1504 94.8531 30.6368L95.0457 30.4977C95.3668 30.9578 95.5166 30.2087 95.0993 30.3586L94.8852 30.0482C95.538 29.5667 96.18 31.1076 95.2598 30.9364C95.1635 31.9851 93.6546 30.8401 94.4786 30.2943L94.4679 30.3051Z" fill="#613802"/>
<path d="M98.7475 37.1973L98.9829 37.026L98.6084 36.5017L98.8866 36.3091L99.8925 36.3947L100.117 36.7157L99.4752 37.1759L99.5715 37.315L99.3147 37.4969L99.2183 37.3578L98.9829 37.529L98.7582 37.208L98.7475 37.1973ZM99.0578 36.5766L99.2504 36.8548L99.5822 36.6194L99.0578 36.5766Z" fill="#613802"/>
<path d="M103.103 42.6971L103.371 43.0074C103.242 43.1679 103.467 43.4247 103.638 43.2856C103.81 43.1893 103.713 42.9325 103.531 42.9325L103.339 42.6008L104.045 42.269L104.559 42.9967L104.28 43.1893L103.927 42.6971L103.745 42.7827C104.291 43.0395 104.056 43.8314 103.467 43.7137C103.103 43.6174 102.772 43.0288 103.093 42.7078L103.103 42.6971Z" fill="#613802"/>
<g style="mix-blend-mode:screen" opacity="0.19">
<path d="M106.72 12.124C106.421 15.5911 104.698 15.452 104.955 11.9849C105.254 8.51784 106.977 8.65696 106.72 12.124Z" fill="white"/>
</g>
<g style="mix-blend-mode:screen" opacity="0.19">
<path d="M106.056 17.4529C105.864 19.6465 104.472 19.5395 104.633 17.3351C104.826 15.1415 106.217 15.2485 106.056 17.4529Z" fill="white"/>
</g>
<g style="mix-blend-mode:multiply" opacity="0.09">
<path d="M99.5713 34.3723C100.031 29.193 100.962 18.7383 101.423 13.5483C101.423 13.7624 101.508 27.3525 99.5713 34.3723Z" fill="#231F20"/>
</g>
<path d="M132.605 38.6091C132.358 39.1228 131.877 39.5294 131.278 39.6471C128.988 40.1073 112.926 43.3603 111.032 43.7349L104.022 13.0554C109.598 10.7119 118.158 8.34704 124.6 7.50167C125.681 7.34116 126.708 8.06882 126.922 9.1389C128.859 18.5664 130.807 27.9832 132.744 37.4106C132.829 37.828 132.765 38.2453 132.605 38.5984V38.6091Z" fill="#F26F37"/>
<path d="M132.562 43.2424L113.557 47.4478C113.268 47.512 112.99 47.5441 112.712 47.5441C109.79 47.4478 109.298 44.9652 111.021 43.7346C117.773 42.3756 124.526 41.0059 131.267 39.6469C131.866 39.5292 132.348 39.1225 132.594 38.6089C132.69 39.0155 133.129 40.7919 133.215 41.1557C133.482 42.0011 133.621 42.9534 132.551 43.2424H132.562Z" fill="#FFCFC0"/>
<path d="M112.712 47.5441V47.5976C111.011 47.8223 108.892 47.7688 108.196 46.0139C107.265 43.649 106.377 41.1664 105.521 38.5768C103.124 31.3109 101.508 24.4516 100.427 18.2023C100.32 17.5602 100.395 16.8968 100.641 16.2975C101.059 14.885 103.21 13.1943 104.023 13.0552L111.032 43.7346C109.309 44.9652 109.801 47.4478 112.723 47.5441H112.712Z" fill="#4D0000"/>
<path d="M125.114 19.6363L110.026 22.9215C109.513 23.0285 109.01 22.7182 108.881 22.2153L107.982 18.6519C107.865 18.1917 108.1 17.7102 108.539 17.5283C112.498 15.7733 117.977 13.9649 122.311 13.0018C124.344 12.6166 124.975 14.3608 125.254 16.0087C125.457 16.8327 125.66 17.646 125.863 18.47C125.992 18.9943 125.66 19.5293 125.125 19.647L125.114 19.6363Z" fill="#4D0000"/>
<path d="M133.226 41.1562C132.744 41.4986 132.166 41.7982 131.546 41.9159C129.909 42.2156 117.292 44.9015 117.164 44.9336C117.025 44.9657 116.886 44.8801 116.864 44.741C116.832 44.6019 116.918 44.4628 117.057 44.4413C117.185 44.4092 129.802 41.7233 131.449 41.4237C132.059 41.3167 132.627 40.985 133.097 40.6318L133.226 41.1776V41.1562Z" fill="#4D0000"/>
</g>
<defs>
<clipPath id="clip0_1_11616">
<rect width="287.362" height="231" fill="white"/>
</clipPath>
</defs>
</svg>
